<?xml version="1.0"?>
<svg xmlns="http://www.w3.org/2000/svg" width="650" height="350" version="1.0" id="ezcGraph"><defs/><g id="ezcGraphChart" color-rendering="optimizeQuality" shape-rendering="geometricPrecision" text-rendering="optimizeLegibility"><path d=" M 0.0000,350.0000 L 0.0000,0.0000 L 650.0000,0.0000 L 650.0000,350.0000 L 0.0000,350.0000 z " style="fill: #eeeeec; fill-opacity: 1.00; stroke: none;" id="ezcGraphPolygon_1"/><path d=" M 0.0000,35.0000 L 0.0000,0.0000 L 650.0000,0.0000 L 650.0000,35.0000 L 0.0000,35.0000 z " style="fill: #000000; fill-opacity: 0.00; stroke: none;" id="ezcGraphPolygon_2"/><path d=" M 0.0000,350.0000 L 0.0000,35.0000 L 130.0000,35.0000 L 130.0000,350.0000 L 0.0000,350.0000 z " style="fill: #000000; fill-opacity: 0.00; stroke: none;" id="ezcGraphPolygon_4"/><path d=" M 2.0000,51.0000 L 2.0000,37.0000 L 16.0000,37.0000 L 16.0000,51.0000 L 2.0000,51.0000 z " style="fill: #3465a4; fill-opacity: 1.00; stroke: none;" id="ezcGraphPolygon_5"/><path d=" M 2.0000,69.0000 L 2.0000,55.0000 L 16.0000,55.0000 L 16.0000,69.0000 L 2.0000,69.0000 z " style="fill: #4e9a06; fill-opacity: 1.00; stroke: none;" id="ezcGraphPolygon_7"/><path d=" M 130.0000,321.6500 L 161.5000,290.1500 L 650.0000,290.1500 L 618.5000,321.6500 L 130.0000,321.6500 z " style="fill: #2e3436; fill-opacity: 0.20; stroke: none;" id="ezcGraphPolygon_9"/><path d=" M 161.5000,290.1500 L 650.0000,290.1500" style="fill: none; stroke: #2e3436; stroke-width: 1; stroke-opacity: 1.00; stroke-linecap: round; stroke-linejoin: round;" id="ezcGraphLine_10"/><path d=" M 642.0000,286.1500 L 650.0000,290.1500 L 642.0000,294.1500 L 642.0000,286.1500 z " style="fill: #2e3436; fill-opacity: 1.00; stroke: none;" id="ezcGraphPolygon_11"/><path d=" M 178.8500,350.0000 L 210.3500,318.5000 L 210.3500,35.0000 L 178.8500,66.5000 L 178.8500,350.0000 z " style="fill: #2e3436; fill-opacity: 0.20; stroke: none;" id="ezcGraphPolygon_12"/><path d=" M 210.3500,318.5000 L 210.3500,35.0000" style="fill: none; stroke: #2e3436; stroke-width: 1; stroke-opacity: 1.00; stroke-linecap: round; stroke-linejoin: round;" id="ezcGraphLine_13"/><path d=" M 206.8500,42.0000 L 210.3500,35.0000 L 213.8500,42.0000 L 206.8500,42.0000 z " style="fill: #2e3436; fill-opacity: 1.00; stroke: none;" id="ezcGraphPolygon_14"/><path d=" M 308.0500,290.1500 L 308.0500,63.3500" style="fill: none; stroke: #000000; stroke-width: 1; stroke-opacity: 0.00; stroke-linecap: round; stroke-linejoin: round;" id="ezcGraphLine_16"/><path d=" M 276.5500,318.9500 L 308.0500,287.4500 L 308.0500,292.8500 L 276.5500,324.3500 L 276.5500,318.9500 z " style="fill: #2e3436; fill-opacity: 0.20; stroke: none;" id="ezcGraphPolygon_17"/><path d=" M 307.5500,288.6571 L 307.5500,292.6429 L 277.0500,323.1429 L 277.0500,319.1571 L 307.5500,288.6571 z " style="fill: none; stroke: #2e3436; stroke-width: 1; stroke-opacity: 1.00; stroke-linecap: round; stroke-linejoin: round;" id="ezcGraphPolygon_18"/><path d=" M 405.7500,290.1500 L 405.7500,63.3500" style="fill: none; stroke: #000000; stroke-width: 1; stroke-opacity: 0.00; stroke-linecap: round; stroke-linejoin: round;" id="ezcGraphLine_20"/><path d=" M 374.2500,318.9500 L 405.7500,287.4500 L 405.7500,292.8500 L 374.2500,324.3500 L 374.2500,318.9500 z " style="fill: #2e3436; fill-opacity: 0.20; stroke: none;" id="ezcGraphPolygon_21"/><path d=" M 405.2500,288.6571 L 405.2500,292.6429 L 374.7500,323.1429 L 374.7500,319.1571 L 405.2500,288.6571 z " style="fill: none; stroke: #2e3436; stroke-width: 1; stroke-opacity: 1.00; stroke-linecap: round; stroke-linejoin: round;" id="ezcGraphPolygon_22"/><path d=" M 503.4500,290.1500 L 503.4500,63.3500" style="fill: none; stroke: #000000; stroke-width: 1; stroke-opacity: 0.00; stroke-linecap: round; stroke-linejoin: round;" id="ezcGraphLine_24"/><path d=" M 471.9500,318.9500 L 503.4500,287.4500 L 503.4500,292.8500 L 471.9500,324.3500 L 471.9500,318.9500 z " style="fill: #2e3436; fill-opacity: 0.20; stroke: none;" id="ezcGraphPolygon_25"/><path d=" M 502.9500,288.6571 L 502.9500,292.6429 L 472.4500,323.1429 L 472.4500,319.1571 L 502.9500,288.6571 z " style="fill: none; stroke: #2e3436; stroke-width: 1; stroke-opacity: 1.00; stroke-linecap: round; stroke-linejoin: round;" id="ezcGraphPolygon_26"/><path d=" M 601.1500,290.1500 L 601.1500,63.3500" style="fill: none; stroke: #000000; stroke-width: 1; stroke-opacity: 0.00; stroke-linecap: round; stroke-linejoin: round;" id="ezcGraphLine_28"/><path d=" M 569.6500,318.9500 L 601.1500,287.4500 L 601.1500,292.8500 L 569.6500,324.3500 L 569.6500,318.9500 z " style="fill: #2e3436; fill-opacity: 0.20; stroke: none;" id="ezcGraphPolygon_29"/><path d=" M 600.6500,288.6571 L 600.6500,292.6429 L 570.1500,323.1429 L 570.1500,319.1571 L 600.6500,288.6571 z " style="fill: none; stroke: #2e3436; stroke-width: 1; stroke-opacity: 1.00; stroke-linecap: round; stroke-linejoin: round;" id="ezcGraphPolygon_30"/><path d=" M 601.1500,261.8000 L 210.3500,261.8000" style="fill: none; stroke: #000000; stroke-width: 1; stroke-opacity: 0.00; stroke-linecap: round; stroke-linejoin: round;" id="ezcGraphLine_32"/><path d=" M 178.8500,293.3000 L 210.3500,261.8000 L 211.2894,261.8000 L 179.7894,293.3000 L 178.8500,293.3000 z " style="fill: #2e3436; fill-opacity: 0.20; stroke: none;" id="ezcGraphPolygon_33"/><path d=" M 210.5571,262.3000 L 210.0823,262.3000 L 179.5823,292.8000 L 180.0571,292.8000 L 210.5571,262.3000 z " style="fill: none; stroke: #2e3436; stroke-width: 1; stroke-opacity: 1.00; stroke-linecap: round; stroke-linejoin: round;" id="ezcGraphPolygon_34"/><path d=" M 601.1500,233.4500 L 210.3500,233.4500" style="fill: none; stroke: #000000; stroke-width: 1; stroke-opacity: 0.00; stroke-linecap: round; stroke-linejoin: round;" id="ezcGraphLine_35"/><path d=" M 178.8500,264.9500 L 210.3500,233.4500 L 211.2894,233.4500 L 179.7894,264.9500 L 178.8500,264.9500 z " style="fill: #2e3436; fill-opacity: 0.20; stroke: none;" id="ezcGraphPolygon_36"/><path d=" M 210.5571,233.9500 L 210.0823,233.9500 L 179.5823,264.4500 L 180.0571,264.4500 L 210.5571,233.9500 z " style="fill: none; stroke: #2e3436; stroke-width: 1; stroke-opacity: 1.00; stroke-linecap: round; stroke-linejoin: round;" id="ezcGraphPolygon_37"/><path d=" M 601.1500,205.1000 L 210.3500,205.1000" style="fill: none; stroke: #000000; stroke-width: 1; stroke-opacity: 0.00; stroke-linecap: round; stroke-linejoin: round;" id="ezcGraphLine_38"/><path d=" M 178.8500,236.6000 L 210.3500,205.1000 L 211.2894,205.1000 L 179.7894,236.6000 L 178.8500,236.6000 z " style="fill: #2e3436; fill-opacity: 0.20; stroke: none;" id="ezcGraphPolygon_39"/><path d=" M 210.5571,205.6000 L 210.0823,205.6000 L 179.5823,236.1000 L 180.0571,236.1000 L 210.5571,205.6000 z " style="fill: none; stroke: #2e3436; stroke-width: 1; stroke-opacity: 1.00; stroke-linecap: round; stroke-linejoin: round;" id="ezcGraphPolygon_40"/><path d=" M 601.1500,176.7500 L 210.3500,176.7500" style="fill: none; stroke: #000000; stroke-width: 1; stroke-opacity: 0.00; stroke-linecap: round; stroke-linejoin: round;" id="ezcGraphLine_41"/><path d=" M 178.8500,208.2500 L 210.3500,176.7500 L 213.1683,176.7500 L 181.6683,208.2500 L 178.8500,208.2500 z " style="fill: #2e3436; fill-opacity: 0.20; stroke: none;" id="ezcGraphPolygon_42"/><path d=" M 210.5571,177.2500 L 211.9612,177.2500 L 181.4612,207.7500 L 180.0571,207.7500 L 210.5571,177.2500 z " style="fill: none; stroke: #2e3436; stroke-width: 1; stroke-opacity: 1.00; stroke-linecap: round; stroke-linejoin: round;" id="ezcGraphPolygon_43"/><path d=" M 601.1500,148.4000 L 210.3500,148.4000" style="fill: none; stroke: #000000; stroke-width: 1; stroke-opacity: 0.00; stroke-linecap: round; stroke-linejoin: round;" id="ezcGraphLine_45"/><path d=" M 178.8500,179.9000 L 210.3500,148.4000 L 211.2894,148.4000 L 179.7894,179.9000 L 178.8500,179.9000 z " style="fill: #2e3436; fill-opacity: 0.20; stroke: none;" id="ezcGraphPolygon_46"/><path d=" M 210.5571,148.9000 L 210.0823,148.9000 L 179.5823,179.4000 L 180.0571,179.4000 L 210.5571,148.9000 z " style="fill: none; stroke: #2e3436; stroke-width: 1; stroke-opacity: 1.00; stroke-linecap: round; stroke-linejoin: round;" id="ezcGraphPolygon_47"/><path d=" M 601.1500,120.0500 L 210.3500,120.0500" style="fill: none; stroke: #000000; stroke-width: 1; stroke-opacity: 0.00; stroke-linecap: round; stroke-linejoin: round;" id="ezcGraphLine_48"/><path d=" M 178.8500,151.5500 L 210.3500,120.0500 L 211.2894,120.0500 L 179.7894,151.5500 L 178.8500,151.5500 z " style="fill: #2e3436; fill-opacity: 0.20; stroke: none;" id="ezcGraphPolygon_49"/><path d=" M 210.5571,120.5500 L 210.0823,120.5500 L 179.5823,151.0500 L 180.0571,151.0500 L 210.5571,120.5500 z " style="fill: none; stroke: #2e3436; stroke-width: 1; stroke-opacity: 1.00; stroke-linecap: round; stroke-linejoin: round;" id="ezcGraphPolygon_50"/><path d=" M 601.1500,91.7000 L 210.3500,91.7000" style="fill: none; stroke: #000000; stroke-width: 1; stroke-opacity: 0.00; stroke-linecap: round; stroke-linejoin: round;" id="ezcGraphLine_51"/><path d=" M 178.8500,123.2000 L 210.3500,91.7000 L 211.2894,91.7000 L 179.7894,123.2000 L 178.8500,123.2000 z " style="fill: #2e3436; fill-opacity: 0.20; stroke: none;" id="ezcGraphPolygon_52"/><path d=" M 210.5571,92.2000 L 210.0823,92.2000 L 179.5823,122.7000 L 180.0571,122.7000 L 210.5571,92.2000 z " style="fill: none; stroke: #2e3436; stroke-width: 1; stroke-opacity: 1.00; stroke-linecap: round; stroke-linejoin: round;" id="ezcGraphPolygon_53"/><path d=" M 601.1500,63.3500 L 210.3500,63.3500" style="fill: none; stroke: #000000; stroke-width: 1; stroke-opacity: 0.00; stroke-linecap: round; stroke-linejoin: round;" id="ezcGraphLine_54"/><path d=" M 178.8500,94.8500 L 210.3500,63.3500 L 213.1683,63.3500 L 181.6683,94.8500 L 178.8500,94.8500 z " style="fill: #2e3436; fill-opacity: 0.20; stroke: none;" id="ezcGraphPolygon_55"/><path d=" M 210.5571,63.8500 L 211.9612,63.8500 L 181.4612,94.3500 L 180.0571,94.3500 L 210.5571,63.8500 z " style="fill: none; stroke: #2e3436; stroke-width: 1; stroke-opacity: 1.00; stroke-linecap: round; stroke-linejoin: round;" id="ezcGraphPolygon_56"/><path d=" M 259.2000,198.0125 L 227.7000,229.5125 L 227.7000,229.5125 L 259.2000,198.0125 L 259.2000,198.0125 z " style="fill: #4e9a06; fill-opacity: 1.00; stroke: none;" id="ezcGraphPolygon_58"/><path d=" M 227.7000,321.6500 L 227.7000,229.5125 L 325.4000,229.5125 L 325.4000,321.6500 L 227.7000,321.6500 z " style="fill: #4e9a06; fill-opacity: 0.18; stroke: none;" id="ezcGraphPolygon_59"/><path d=" M 356.9000,290.1500 L 356.9000,198.0125 L 325.4000,229.5125 L 325.4000,321.6500 L 356.9000,290.1500 z " style="fill: #4e9a06; fill-opacity: 0.18; stroke: none;" id="ezcGraphPolygon_60"/><path d=" M 259.2000,198.0125 L 227.7000,229.5125 L 325.4000,229.5125 L 356.9000,198.0125 L 259.2000,198.0125 z " style="fill: #4e9a06; fill-opacity: 1.00; stroke: none;" id="ezcGraphPolygon_61"/><path d=" M 228.9071,229.0125 L 325.1929,229.0125 L 355.6929,198.5125 L 259.4071,198.5125 L 228.9071,229.0125 z " style="fill: none; stroke: #274d03; stroke-width: 1; stroke-opacity: 1.00; stroke-linecap: round; stroke-linejoin: round;" id="ezcGraphPolygon_62"/><path d=" M 325.4000,321.6500 L 325.4000,229.5125 L 423.1000,229.5125 L 423.1000,321.6500 L 325.4000,321.6500 z " style="fill: #4e9a06; fill-opacity: 0.18; stroke: none;" id="ezcGraphPolygon_63"/><path d=" M 454.6000,290.1500 L 454.6000,198.0125 L 423.1000,229.5125 L 423.1000,321.6500 L 454.6000,290.1500 z " style="fill: #4e9a06; fill-opacity: 0.18; stroke: none;" id="ezcGraphPolygon_64"/><path d=" M 356.9000,198.0125 L 325.4000,229.5125 L 423.1000,229.5125 L 454.6000,198.0125 L 356.9000,198.0125 z " style="fill: #4e9a06; fill-opacity: 1.00; stroke: none;" id="ezcGraphPolygon_65"/><path d=" M 326.6071,229.0125 L 422.8929,229.0125 L 453.3929,198.5125 L 357.1071,198.5125 L 326.6071,229.0125 z " style="fill: none; stroke: #274d03; stroke-width: 1; stroke-opacity: 1.00; stroke-linecap: round; stroke-linejoin: round;" id="ezcGraphPolygon_66"/><path d=" M 423.1000,321.6500 L 423.1000,229.5125 L 520.8000,229.5125 L 520.8000,321.6500 L 423.1000,321.6500 z " style="fill: #4e9a06; fill-opacity: 0.18; stroke: none;" id="ezcGraphPolygon_67"/><path d=" M 552.3000,290.1500 L 552.3000,198.0125 L 520.8000,229.5125 L 520.8000,321.6500 L 552.3000,290.1500 z " style="fill: #4e9a06; fill-opacity: 0.18; stroke: none;" id="ezcGraphPolygon_68"/><path d=" M 454.6000,198.0125 L 423.1000,229.5125 L 520.8000,229.5125 L 552.3000,198.0125 L 454.6000,198.0125 z " style="fill: #4e9a06; fill-opacity: 1.00; stroke: none;" id="ezcGraphPolygon_69"/><path d=" M 424.3071,229.0125 L 520.5929,229.0125 L 551.0929,198.5125 L 454.8071,198.5125 L 424.3071,229.0125 z " style="fill: none; stroke: #274d03; stroke-width: 1; stroke-opacity: 1.00; stroke-linecap: round; stroke-linejoin: round;" id="ezcGraphPolygon_70"/><path d=" M 272.4224,318.5000 L 189.2776,318.5000 L 189.2776,318.5000 L 272.4224,318.5000 L 272.4224,318.5000 z " style="fill: #3465a4; fill-opacity: 1.00; stroke: none;" id="ezcGraphPolygon_71"/><path d=" M 214.4776,293.3000 L 189.2776,318.5000 L 272.4224,318.5000 L 297.6224,293.3000 L 214.4776,293.3000 z " style="fill: #1f3d62; fill-opacity: 1.00; stroke: none;" id="ezcGraphPolygon_72"/><path d=" M 297.6224,293.3000 L 272.4224,318.5000 L 272.4224,318.5000 L 297.6224,293.3000 L 297.6224,293.3000 z " style="fill: #2a5183; fill-opacity: 1.00; stroke: none;" id="ezcGraphPolygon_73"/><path d=" M 312.1776,100.5200 L 286.9776,125.7200 L 370.1224,125.7200 L 395.3224,100.5200 L 312.1776,100.5200 z " style="fill: #1f3d62; fill-opacity: 1.00; stroke: none;" id="ezcGraphPolygon_74"/><path d=" M 370.1224,318.5000 L 286.9776,318.5000 L 286.9776,125.7200 L 370.1224,125.7200 L 370.1224,318.5000 z " style="fill: #3465a4; fill-opacity: 1.00; stroke: none;" id="ezcGraphPolygon_75"/><path d=" M 395.3224,100.5200 L 370.1224,125.7200 L 370.1224,318.5000 L 395.3224,293.3000 L 395.3224,100.5200 z " style="fill: #2a5183; fill-opacity: 1.00; stroke: none;" id="ezcGraphPolygon_76"/><path d=" M 409.8776,117.5300 L 384.6776,142.7300 L 467.8224,142.7300 L 493.0224,117.5300 L 409.8776,117.5300 z " style="fill: #1f3d62; fill-opacity: 1.00; stroke: none;" id="ezcGraphPolygon_77"/><path d=" M 467.8224,318.5000 L 384.6776,318.5000 L 384.6776,142.7300 L 467.8224,142.7300 L 467.8224,318.5000 z " style="fill: #3465a4; fill-opacity: 1.00; stroke: none;" id="ezcGraphPolygon_78"/><path d=" M 493.0224,117.5300 L 467.8224,142.7300 L 467.8224,318.5000 L 493.0224,293.3000 L 493.0224,117.5300 z " style="fill: #2a5183; fill-opacity: 1.00; stroke: none;" id="ezcGraphPolygon_79"/><path d=" M 565.5224,318.5000 L 482.3776,318.5000 L 482.3776,318.5000 L 565.5224,318.5000 L 565.5224,318.5000 z " style="fill: #3465a4; fill-opacity: 1.00; stroke: none;" id="ezcGraphPolygon_80"/><path d=" M 507.5776,293.3000 L 482.3776,318.5000 L 565.5224,318.5000 L 590.7224,293.3000 L 507.5776,293.3000 z " style="fill: #1f3d62; fill-opacity: 1.00; stroke: none;" id="ezcGraphPolygon_81"/><path d=" M 590.7224,293.3000 L 565.5224,318.5000 L 565.5224,318.5000 L 590.7224,293.3000 L 590.7224,293.3000 z " style="fill: #2a5183; fill-opacity: 1.00; stroke: none;" id="ezcGraphPolygon_82"/><path d=" M 650.0000,290.1500 L 618.5000,321.6500" style="fill: none; stroke: #2e3436; stroke-width: 1; stroke-opacity: 1.00; stroke-linecap: round; stroke-linejoin: round;" id="ezcGraphLine_83"/><path d=" M 618.5000,321.6500 L 130.0000,321.6500" style="fill: none; stroke: #2e3436; stroke-width: 1; stroke-opacity: 1.00; stroke-linecap: round; stroke-linejoin: round;" id="ezcGraphLine_84"/><path d=" M 130.0000,321.6500 L 161.5000,290.1500" style="fill: none; stroke: #2e3436; stroke-width: 1; stroke-opacity: 1.00; stroke-linecap: round; stroke-linejoin: round;" id="ezcGraphLine_85"/><path d=" M 210.3500,35.0000 L 178.8500,66.5000" style="fill: none; stroke: #2e3436; stroke-width: 1; stroke-opacity: 1.00; stroke-linecap: round; stroke-linejoin: round;" id="ezcGraphLine_86"/><path d=" M 178.8500,66.5000 L 178.8500,350.0000" style="fill: none; stroke: #2e3436; stroke-width: 1; stroke-opacity: 1.00; stroke-linecap: round; stroke-linejoin: round;" id="ezcGraphLine_87"/><path d=" M 178.8500,350.0000 L 210.3500,318.5000" style="fill: none; stroke: #2e3436; stroke-width: 1; stroke-opacity: 1.00; stroke-linecap: round; stroke-linejoin: round;" id="ezcGraphLine_88"/><g id="ezcGraphTextBox_3"><path d=" M 245.7950,35.0000 L 245.7950,0.5000 L 404.7050,0.5000 L 404.7050,35.0000 L 245.7950,35.0000 z " style="fill: #ffffff; fill-opacity: 0.00; stroke: none;" id="ezcGraphPolygon_89"/><text id="ezcGraphTextBox_3_text" x="246.2950" text-length="157.4100px" y="29.0500" style="font-size: 33px; font-family: 'sans-serif'; fill: #2e3436; fill-opacity: 1.00; stroke: none;">Avg Speed</text></g><g id="ezcGraphTextBox_6"><path d=" M 16.5000,52.0000 L 16.5000,36.5000 L 107.0400,36.5000 L 107.0400,52.0000 L 16.5000,52.0000 z " style="fill: #ffffff; fill-opacity: 0.00; stroke: none;" id="ezcGraphPolygon_90"/><text id="ezcGraphTextBox_6_text" x="17.0000" text-length="89.0400px" y="48.9000" style="font-size: 14px; font-family: 'sans-serif'; fill: #2e3436; fill-opacity: 1.00; stroke: none;">Weekly Total</text></g><g id="ezcGraphTextBox_8"><path d=" M 16.5000,70.0000 L 16.5000,54.5000 L 69.9400,54.5000 L 69.9400,70.0000 L 16.5000,70.0000 z " style="fill: #ffffff; fill-opacity: 0.00; stroke: none;" id="ezcGraphPolygon_91"/><text id="ezcGraphTextBox_8_text" x="17.0000" text-length="51.9400px" y="66.9000" style="font-size: 14px; font-family: 'sans-serif'; fill: #2e3436; fill-opacity: 1.00; stroke: none;">Average</text></g><g id="ezcGraphTextBox_15"><path d=" M 180.5600,340.4500 L 180.5600,322.9500 L 275.3400,322.9500 L 275.3400,340.4500 L 180.5600,340.4500 z " style="fill: #ffffff; fill-opacity: 0.00; stroke: none;" id="ezcGraphPolygon_92"/><text id="ezcGraphTextBox_15_text" x="181.0600" text-length="93.2800px" y="337.0500" style="font-size: 16px; font-family: 'sans-serif'; fill: #2e3436; fill-opacity: 1.00; stroke: none;">26-Jan-2009</text></g><g id="ezcGraphTextBox_19"><path d=" M 278.2600,340.4500 L 278.2600,322.9500 L 373.0400,322.9500 L 373.0400,340.4500 L 278.2600,340.4500 z " style="fill: #ffffff; fill-opacity: 0.00; stroke: none;" id="ezcGraphPolygon_93"/><text id="ezcGraphTextBox_19_text" x="278.7600" text-length="93.2800px" y="337.0500" style="font-size: 16px; font-family: 'sans-serif'; fill: #2e3436; fill-opacity: 1.00; stroke: none;">23-Feb-2009</text></g><g id="ezcGraphTextBox_23"><path d=" M 375.9600,340.4500 L 375.9600,322.9500 L 470.7400,322.9500 L 470.7400,340.4500 L 375.9600,340.4500 z " style="fill: #ffffff; fill-opacity: 0.00; stroke: none;" id="ezcGraphPolygon_94"/><text id="ezcGraphTextBox_23_text" x="376.4600" text-length="93.2800px" y="337.0500" style="font-size: 16px; font-family: 'sans-serif'; fill: #2e3436; fill-opacity: 1.00; stroke: none;">16-Mar-2009</text></g><g id="ezcGraphTextBox_27"><path d=" M 473.6600,340.4500 L 473.6600,322.9500 L 568.4400,322.9500 L 568.4400,340.4500 L 473.6600,340.4500 z " style="fill: #ffffff; fill-opacity: 0.00; stroke: none;" id="ezcGraphPolygon_95"/><text id="ezcGraphTextBox_27_text" x="474.1600" text-length="93.2800px" y="337.0500" style="font-size: 16px; font-family: 'sans-serif'; fill: #2e3436; fill-opacity: 1.00; stroke: none;">30-Mar-2009</text></g><g id="ezcGraphTextBox_31"><path d=" M 166.5512,320.8500 L 166.5512,303.3500 L 177.9712,303.3500 L 177.9712,320.8500 L 166.5512,320.8500 z " style="fill: #ffffff; fill-opacity: 0.00; stroke: none;" id="ezcGraphPolygon_96"/><text id="ezcGraphTextBox_31_text" x="167.0512" text-length="9.9200px" y="317.4500" style="font-size: 16px; font-family: 'sans-serif'; fill: #2e3436; fill-opacity: 1.00; stroke: none;">0</text></g><g id="ezcGraphTextBox_44"><path d=" M 156.6312,207.4500 L 156.6312,189.9500 L 177.9712,189.9500 L 177.9712,207.4500 L 156.6312,207.4500 z " style="fill: #ffffff; fill-opacity: 0.00; stroke: none;" id="ezcGraphPolygon_97"/><text id="ezcGraphTextBox_44_text" x="157.1312" text-length="19.8400px" y="204.0500" style="font-size: 16px; font-family: 'sans-serif'; fill: #2e3436; fill-opacity: 1.00; stroke: none;">10</text></g><g id="ezcGraphTextBox_57"><path d=" M 156.6312,113.6500 L 156.6312,96.1500 L 177.9712,96.1500 L 177.9712,113.6500 L 156.6312,113.6500 z " style="fill: #ffffff; fill-opacity: 0.00; stroke: none;" id="ezcGraphPolygon_98"/><text id="ezcGraphTextBox_57_text" x="157.1312" text-length="19.8400px" y="110.2500" style="font-size: 16px; font-family: 'sans-serif'; fill: #2e3436; fill-opacity: 1.00; stroke: none;">20</text></g></g></svg>
