<?xml version="1.0"?>
<svg xmlns="http://www.w3.org/2000/svg" width="650" height="350" version="1.0" id="ezcGraph"><defs/><g id="ezcGraphChart" color-rendering="optimizeQuality" shape-rendering="geometricPrecision" text-rendering="optimizeLegibility"><path d=" M 0.0000,350.0000 L 0.0000,0.0000 L 650.0000,0.0000 L 650.0000,350.0000 L 0.0000,350.0000 z " style="fill: #eeeeec; fill-opacity: 1.00; stroke: none;" id="ezcGraphPolygon_1"/><path d=" M 0.0000,35.0000 L 0.0000,0.0000 L 650.0000,0.0000 L 650.0000,35.0000 L 0.0000,35.0000 z " style="fill: #000000; fill-opacity: 0.00; stroke: none;" id="ezcGraphPolygon_2"/><path d=" M 0.0000,350.0000 L 0.0000,35.0000 L 130.0000,35.0000 L 130.0000,350.0000 L 0.0000,350.0000 z " style="fill: #000000; fill-opacity: 0.00; stroke: none;" id="ezcGraphPolygon_4"/><path d=" M 2.0000,51.0000 L 2.0000,37.0000 L 16.0000,37.0000 L 16.0000,51.0000 L 2.0000,51.0000 z " style="fill: #3465a4; fill-opacity: 1.00; stroke: none;" id="ezcGraphPolygon_5"/><path d=" M 2.0000,69.0000 L 2.0000,55.0000 L 16.0000,55.0000 L 16.0000,69.0000 L 2.0000,69.0000 z " style="fill: #4e9a06; fill-opacity: 1.00; stroke: none;" id="ezcGraphPolygon_7"/><path d=" M 130.0000,318.5000 L 650.0000,318.5000" style="fill: none; stroke: #2e3436; stroke-width: 1; stroke-opacity: 1.00; stroke-linecap: round; stroke-linejoin: round;" id="ezcGraphLine_9"/><path d=" M 642.0000,314.5000 L 650.0000,318.5000 L 642.0000,322.5000 L 642.0000,314.5000 z " style="fill: #2e3436; fill-opacity: 1.00; stroke: none;" id="ezcGraphPolygon_10"/><path d=" M 286.0000,66.5000 L 286.0000,318.5000" style="fill: none; stroke: #000000; stroke-width: 1; stroke-opacity: 0.00; stroke-linecap: round; stroke-linejoin: round;" id="ezcGraphLine_12"/><path d=" M 286.0000,315.5000 L 286.0000,321.5000" style="fill: none; stroke: #2e3436; stroke-width: 1; stroke-opacity: 1.00; stroke-linecap: round; stroke-linejoin: round;" id="ezcGraphLine_13"/><path d=" M 390.0000,66.5000 L 390.0000,318.5000" style="fill: none; stroke: #000000; stroke-width: 1; stroke-opacity: 0.00; stroke-linecap: round; stroke-linejoin: round;" id="ezcGraphLine_15"/><path d=" M 390.0000,315.5000 L 390.0000,321.5000" style="fill: none; stroke: #2e3436; stroke-width: 1; stroke-opacity: 1.00; stroke-linecap: round; stroke-linejoin: round;" id="ezcGraphLine_16"/><path d=" M 494.0000,66.5000 L 494.0000,318.5000" style="fill: none; stroke: #000000; stroke-width: 1; stroke-opacity: 0.00; stroke-linecap: round; stroke-linejoin: round;" id="ezcGraphLine_18"/><path d=" M 494.0000,315.5000 L 494.0000,321.5000" style="fill: none; stroke: #2e3436; stroke-width: 1; stroke-opacity: 1.00; stroke-linecap: round; stroke-linejoin: round;" id="ezcGraphLine_19"/><path d=" M 598.0000,66.5000 L 598.0000,318.5000" style="fill: none; stroke: #000000; stroke-width: 1; stroke-opacity: 0.00; stroke-linecap: round; stroke-linejoin: round;" id="ezcGraphLine_21"/><path d=" M 598.0000,315.5000 L 598.0000,321.5000" style="fill: none; stroke: #2e3436; stroke-width: 1; stroke-opacity: 1.00; stroke-linecap: round; stroke-linejoin: round;" id="ezcGraphLine_22"/><path d=" M 182.0000,350.0000 L 182.0000,35.0000" style="fill: none; stroke: #2e3436; stroke-width: 1; stroke-opacity: 1.00; stroke-linecap: round; stroke-linejoin: round;" id="ezcGraphLine_23"/><path d=" M 178.5000,42.0000 L 182.0000,35.0000 L 185.5000,42.0000 L 178.5000,42.0000 z " style="fill: #2e3436; fill-opacity: 1.00; stroke: none;" id="ezcGraphPolygon_24"/><path d=" M 182.0000,318.5000 L 598.0000,318.5000" style="fill: none; stroke: #000000; stroke-width: 1; stroke-opacity: 0.00; stroke-linecap: round; stroke-linejoin: round;" id="ezcGraphLine_25"/><path d=" M 182.0000,318.5000 L 185.0000,318.5000" style="fill: none; stroke: #2e3436; stroke-width: 1; stroke-opacity: 1.00; stroke-linecap: round; stroke-linejoin: round;" id="ezcGraphLine_26"/><path d=" M 182.0000,297.5000 L 598.0000,297.5000" style="fill: none; stroke: #000000; stroke-width: 1; stroke-opacity: 0.00; stroke-linecap: round; stroke-linejoin: round;" id="ezcGraphLine_28"/><path d=" M 182.0000,297.5000 L 183.0000,297.5000" style="fill: none; stroke: #2e3436; stroke-width: 1; stroke-opacity: 1.00; stroke-linecap: round; stroke-linejoin: round;" id="ezcGraphLine_29"/><path d=" M 182.0000,276.5000 L 598.0000,276.5000" style="fill: none; stroke: #000000; stroke-width: 1; stroke-opacity: 0.00; stroke-linecap: round; stroke-linejoin: round;" id="ezcGraphLine_30"/><path d=" M 182.0000,276.5000 L 183.0000,276.5000" style="fill: none; stroke: #2e3436; stroke-width: 1; stroke-opacity: 1.00; stroke-linecap: round; stroke-linejoin: round;" id="ezcGraphLine_31"/><path d=" M 182.0000,255.5000 L 598.0000,255.5000" style="fill: none; stroke: #000000; stroke-width: 1; stroke-opacity: 0.00; stroke-linecap: round; stroke-linejoin: round;" id="ezcGraphLine_32"/><path d=" M 182.0000,255.5000 L 183.0000,255.5000" style="fill: none; stroke: #2e3436; stroke-width: 1; stroke-opacity: 1.00; stroke-linecap: round; stroke-linejoin: round;" id="ezcGraphLine_33"/><path d=" M 182.0000,234.5000 L 598.0000,234.5000" style="fill: none; stroke: #000000; stroke-width: 1; stroke-opacity: 0.00; stroke-linecap: round; stroke-linejoin: round;" id="ezcGraphLine_34"/><path d=" M 182.0000,234.5000 L 185.0000,234.5000" style="fill: none; stroke: #2e3436; stroke-width: 1; stroke-opacity: 1.00; stroke-linecap: round; stroke-linejoin: round;" id="ezcGraphLine_35"/><path d=" M 182.0000,213.5000 L 598.0000,213.5000" style="fill: none; stroke: #000000; stroke-width: 1; stroke-opacity: 0.00; stroke-linecap: round; stroke-linejoin: round;" id="ezcGraphLine_37"/><path d=" M 182.0000,213.5000 L 183.0000,213.5000" style="fill: none; stroke: #2e3436; stroke-width: 1; stroke-opacity: 1.00; stroke-linecap: round; stroke-linejoin: round;" id="ezcGraphLine_38"/><path d=" M 182.0000,192.5000 L 598.0000,192.5000" style="fill: none; stroke: #000000; stroke-width: 1; stroke-opacity: 0.00; stroke-linecap: round; stroke-linejoin: round;" id="ezcGraphLine_39"/><path d=" M 182.0000,192.5000 L 183.0000,192.5000" style="fill: none; stroke: #2e3436; stroke-width: 1; stroke-opacity: 1.00; stroke-linecap: round; stroke-linejoin: round;" id="ezcGraphLine_40"/><path d=" M 182.0000,171.5000 L 598.0000,171.5000" style="fill: none; stroke: #000000; stroke-width: 1; stroke-opacity: 0.00; stroke-linecap: round; stroke-linejoin: round;" id="ezcGraphLine_41"/><path d=" M 182.0000,171.5000 L 183.0000,171.5000" style="fill: none; stroke: #2e3436; stroke-width: 1; stroke-opacity: 1.00; stroke-linecap: round; stroke-linejoin: round;" id="ezcGraphLine_42"/><path d=" M 182.0000,150.5000 L 598.0000,150.5000" style="fill: none; stroke: #000000; stroke-width: 1; stroke-opacity: 0.00; stroke-linecap: round; stroke-linejoin: round;" id="ezcGraphLine_43"/><path d=" M 182.0000,150.5000 L 185.0000,150.5000" style="fill: none; stroke: #2e3436; stroke-width: 1; stroke-opacity: 1.00; stroke-linecap: round; stroke-linejoin: round;" id="ezcGraphLine_44"/><path d=" M 182.0000,129.5000 L 598.0000,129.5000" style="fill: none; stroke: #000000; stroke-width: 1; stroke-opacity: 0.00; stroke-linecap: round; stroke-linejoin: round;" id="ezcGraphLine_46"/><path d=" M 182.0000,129.5000 L 183.0000,129.5000" style="fill: none; stroke: #2e3436; stroke-width: 1; stroke-opacity: 1.00; stroke-linecap: round; stroke-linejoin: round;" id="ezcGraphLine_47"/><path d=" M 182.0000,108.5000 L 598.0000,108.5000" style="fill: none; stroke: #000000; stroke-width: 1; stroke-opacity: 0.00; stroke-linecap: round; stroke-linejoin: round;" id="ezcGraphLine_48"/><path d=" M 182.0000,108.5000 L 183.0000,108.5000" style="fill: none; stroke: #2e3436; stroke-width: 1; stroke-opacity: 1.00; stroke-linecap: round; stroke-linejoin: round;" id="ezcGraphLine_49"/><path d=" M 182.0000,87.5000 L 598.0000,87.5000" style="fill: none; stroke: #000000; stroke-width: 1; stroke-opacity: 0.00; stroke-linecap: round; stroke-linejoin: round;" id="ezcGraphLine_50"/><path d=" M 182.0000,87.5000 L 183.0000,87.5000" style="fill: none; stroke: #2e3436; stroke-width: 1; stroke-opacity: 1.00; stroke-linecap: round; stroke-linejoin: round;" id="ezcGraphLine_51"/><path d=" M 182.0000,66.5000 L 598.0000,66.5000" style="fill: none; stroke: #000000; stroke-width: 1; stroke-opacity: 0.00; stroke-linecap: round; stroke-linejoin: round;" id="ezcGraphLine_52"/><path d=" M 182.0000,66.5000 L 185.0000,66.5000" style="fill: none; stroke: #2e3436; stroke-width: 1; stroke-opacity: 1.00; stroke-linecap: round; stroke-linejoin: round;" id="ezcGraphLine_53"/><path d=" M 278.2531,318.5000 L 189.7469,318.5000 L 189.7469,251.3000 L 278.2531,251.3000 L 278.2531,318.5000 z " style="fill: #3465a4; fill-opacity: 1.00; stroke: none;" id="ezcGraphPolygon_55"/><path d=" M 190.2469,318.0000 L 190.2469,251.8000 L 277.7531,251.8000 L 277.7531,318.0000 L 190.2469,318.0000 z " style="fill: none; stroke: #1a3352; stroke-width: 1; stroke-opacity: 1.00; stroke-linecap: round; stroke-linejoin: round;" id="ezcGraphPolygon_56"/><path d=" M 382.2531,318.5000 L 293.7469,318.5000 L 293.7469,251.3000 L 382.2531,251.3000 L 382.2531,318.5000 z " style="fill: #3465a4; fill-opacity: 1.00; stroke: none;" id="ezcGraphPolygon_57"/><path d=" M 294.2469,318.0000 L 294.2469,251.8000 L 381.7531,251.8000 L 381.7531,318.0000 L 294.2469,318.0000 z " style="fill: none; stroke: #1a3352; stroke-width: 1; stroke-opacity: 1.00; stroke-linecap: round; stroke-linejoin: round;" id="ezcGraphPolygon_58"/><path d=" M 486.2531,318.5000 L 397.7469,318.5000 L 397.7469,108.0800 L 486.2531,108.0800 L 486.2531,318.5000 z " style="fill: #3465a4; fill-opacity: 1.00; stroke: none;" id="ezcGraphPolygon_59"/><path d=" M 398.2469,318.0000 L 398.2469,108.5800 L 485.7531,108.5800 L 485.7531,318.0000 L 398.2469,318.0000 z " style="fill: none; stroke: #1a3352; stroke-width: 1; stroke-opacity: 1.00; stroke-linecap: round; stroke-linejoin: round;" id="ezcGraphPolygon_60"/><path d=" M 590.2531,318.5000 L 501.7469,318.5000 L 501.7469,100.1000 L 590.2531,100.1000 L 590.2531,318.5000 z " style="fill: #3465a4; fill-opacity: 1.00; stroke: none;" id="ezcGraphPolygon_61"/><path d=" M 502.2469,318.0000 L 502.2469,100.6000 L 589.7531,100.6000 L 589.7531,318.0000 L 502.2469,318.0000 z " style="fill: none; stroke: #1a3352; stroke-width: 1; stroke-opacity: 1.00; stroke-linecap: round; stroke-linejoin: round;" id="ezcGraphPolygon_62"/><path d=" M 234.0000,177.6950 L 234.0000,177.6950" style="fill: none; stroke: #4e9a06; stroke-width: 1; stroke-opacity: 1.00; stroke-linecap: round; stroke-linejoin: round;" id="ezcGraphLine_63"/><path d=" M 234.0000,318.5000 L 234.0000,177.6950 L 338.0000,177.6950 L 338.0000,318.5000 L 234.0000,318.5000 z " style="fill: #4e9a06; fill-opacity: 0.18; stroke: none;" id="ezcGraphPolygon_64"/><path d=" M 234.0000,177.6950 L 338.0000,177.6950" style="fill: none; stroke: #4e9a06; stroke-width: 1; stroke-opacity: 1.00; stroke-linecap: round; stroke-linejoin: round;" id="ezcGraphLine_65"/><path d=" M 338.0000,318.5000 L 338.0000,177.6950 L 442.0000,177.6950 L 442.0000,318.5000 L 338.0000,318.5000 z " style="fill: #4e9a06; fill-opacity: 0.18; stroke: none;" id="ezcGraphPolygon_66"/><path d=" M 338.0000,177.6950 L 442.0000,177.6950" style="fill: none; stroke: #4e9a06; stroke-width: 1; stroke-opacity: 1.00; stroke-linecap: round; stroke-linejoin: round;" id="ezcGraphLine_67"/><path d=" M 442.0000,318.5000 L 442.0000,177.6950 L 546.0000,177.6950 L 546.0000,318.5000 L 442.0000,318.5000 z " style="fill: #4e9a06; fill-opacity: 0.18; stroke: none;" id="ezcGraphPolygon_68"/><path d=" M 442.0000,177.6950 L 546.0000,177.6950" style="fill: none; stroke: #4e9a06; stroke-width: 1; stroke-opacity: 1.00; stroke-linecap: round; stroke-linejoin: round;" id="ezcGraphLine_69"/><g id="ezcGraphTextBox_3"><path d=" M 254.5400,35.0000 L 254.5400,0.5000 L 395.9600,0.5000 L 395.9600,35.0000 L 254.5400,35.0000 z " style="fill: #ffffff; fill-opacity: 0.00; stroke: none;" id="ezcGraphPolygon_70"/><text id="ezcGraphTextBox_3_text" x="255.0400" text-length="139.9200px" y="29.0500" style="font-size: 33px; font-family: 'sans-serif'; fill: #2e3436; fill-opacity: 1.00; stroke: none;">Distance</text></g><g id="ezcGraphTextBox_6"><path d=" M 16.5000,52.0000 L 16.5000,36.5000 L 107.0400,36.5000 L 107.0400,52.0000 L 16.5000,52.0000 z " style="fill: #ffffff; fill-opacity: 0.00; stroke: none;" id="ezcGraphPolygon_71"/><text id="ezcGraphTextBox_6_text" x="17.0000" text-length="89.0400px" y="48.9000" style="font-size: 14px; font-family: 'sans-serif'; fill: #2e3436; fill-opacity: 1.00; stroke: none;">Weekly Total</text></g><g id="ezcGraphTextBox_8"><path d=" M 16.5000,70.0000 L 16.5000,54.5000 L 69.9400,54.5000 L 69.9400,70.0000 L 16.5000,70.0000 z " style="fill: #ffffff; fill-opacity: 0.00; stroke: none;" id="ezcGraphPolygon_72"/><text id="ezcGraphTextBox_8_text" x="17.0000" text-length="51.9400px" y="66.9000" style="font-size: 14px; font-family: 'sans-serif'; fill: #2e3436; fill-opacity: 1.00; stroke: none;">Average</text></g><g id="ezcGraphTextBox_11"><path d=" M 183.9450,338.5000 L 183.9450,320.0000 L 284.5550,320.0000 L 284.5550,338.5000 L 183.9450,338.5000 z " style="fill: #ffffff; fill-opacity: 0.00; stroke: none;" id="ezcGraphPolygon_73"/><text id="ezcGraphTextBox_11_text" x="184.4450" text-length="99.1100px" y="334.9500" style="font-size: 17px; font-family: 'sans-serif'; fill: #2e3436; fill-opacity: 1.00; stroke: none;">26-Jan-2009</text></g><g id="ezcGraphTextBox_14"><path d=" M 287.9450,338.5000 L 287.9450,320.0000 L 388.5550,320.0000 L 388.5550,338.5000 L 287.9450,338.5000 z " style="fill: #ffffff; fill-opacity: 0.00; stroke: none;" id="ezcGraphPolygon_74"/><text id="ezcGraphTextBox_14_text" x="288.4450" text-length="99.1100px" y="334.9500" style="font-size: 17px; font-family: 'sans-serif'; fill: #2e3436; fill-opacity: 1.00; stroke: none;">23-Feb-2009</text></g><g id="ezcGraphTextBox_17"><path d=" M 391.9450,338.5000 L 391.9450,320.0000 L 492.5550,320.0000 L 492.5550,338.5000 L 391.9450,338.5000 z " style="fill: #ffffff; fill-opacity: 0.00; stroke: none;" id="ezcGraphPolygon_75"/><text id="ezcGraphTextBox_17_text" x="392.4450" text-length="99.1100px" y="334.9500" style="font-size: 17px; font-family: 'sans-serif'; fill: #2e3436; fill-opacity: 1.00; stroke: none;">16-Mar-2009</text></g><g id="ezcGraphTextBox_20"><path d=" M 495.9450,338.5000 L 495.9450,320.0000 L 596.5550,320.0000 L 596.5550,338.5000 L 495.9450,338.5000 z " style="fill: #ffffff; fill-opacity: 0.00; stroke: none;" id="ezcGraphPolygon_76"/><text id="ezcGraphTextBox_20_text" x="496.4450" text-length="99.1100px" y="334.9500" style="font-size: 17px; font-family: 'sans-serif'; fill: #2e3436; fill-opacity: 1.00; stroke: none;">30-Mar-2009</text></g><g id="ezcGraphTextBox_27"><path d=" M 158.4200,317.5000 L 158.4200,299.0000 L 181.0000,299.0000 L 181.0000,317.5000 L 158.4200,317.5000 z " style="fill: #ffffff; fill-opacity: 0.00; stroke: none;" id="ezcGraphPolygon_77"/><text id="ezcGraphTextBox_27_text" x="158.9200" text-length="21.0800px" y="313.9500" style="font-size: 17px; font-family: 'sans-serif'; fill: #2e3436; fill-opacity: 1.00; stroke: none;">10</text></g><g id="ezcGraphTextBox_36"><path d=" M 158.4200,233.5000 L 158.4200,215.0000 L 181.0000,215.0000 L 181.0000,233.5000 L 158.4200,233.5000 z " style="fill: #ffffff; fill-opacity: 0.00; stroke: none;" id="ezcGraphPolygon_78"/><text id="ezcGraphTextBox_36_text" x="158.9200" text-length="21.0800px" y="229.9500" style="font-size: 17px; font-family: 'sans-serif'; fill: #2e3436; fill-opacity: 1.00; stroke: none;">20</text></g><g id="ezcGraphTextBox_45"><path d=" M 158.4200,149.5000 L 158.4200,131.0000 L 181.0000,131.0000 L 181.0000,149.5000 L 158.4200,149.5000 z " style="fill: #ffffff; fill-opacity: 0.00; stroke: none;" id="ezcGraphPolygon_79"/><text id="ezcGraphTextBox_45_text" x="158.9200" text-length="21.0800px" y="145.9500" style="font-size: 17px; font-family: 'sans-serif'; fill: #2e3436; fill-opacity: 1.00; stroke: none;">30</text></g><g id="ezcGraphTextBox_54"><path d=" M 158.4200,86.5000 L 158.4200,68.0000 L 181.0000,68.0000 L 181.0000,86.5000 L 158.4200,86.5000 z " style="fill: #ffffff; fill-opacity: 0.00; stroke: none;" id="ezcGraphPolygon_80"/><text id="ezcGraphTextBox_54_text" x="158.9200" text-length="21.0800px" y="82.9500" style="font-size: 17px; font-family: 'sans-serif'; fill: #2e3436; fill-opacity: 1.00; stroke: none;">40</text></g></g></svg>
