<?xml version="1.0"?>
<svg xmlns="http://www.w3.org/2000/svg" width="700" height="250" version="1.0" id="ezcGraph"><defs/><g id="ezcGraphChart" color-rendering="optimizeQuality" shape-rendering="geometricPrecision" text-rendering="optimizeLegibility"><path d=" M 0.0000,250.0000 L 0.0000,0.0000 L 700.0000,0.0000 L 700.0000,250.0000 L 0.0000,250.0000 z " style="fill: #eeeeec; fill-opacity: 1.00; stroke: none;" id="ezcGraphPolygon_1"/><path d=" M 0.0000,25.0000 L 0.0000,0.0000 L 700.0000,0.0000 L 700.0000,25.0000 L 0.0000,25.0000 z " style="fill: #000000; fill-opacity: 0.00; stroke: none;" id="ezcGraphPolygon_2"/><path d=" M 0.0000,250.0000 L 0.0000,25.0000 L 140.0000,25.0000 L 140.0000,250.0000 L 0.0000,250.0000 z " style="fill: #000000; fill-opacity: 0.00; stroke: none;" id="ezcGraphPolygon_4"/><path d=" M 2.0000,41.0000 L 2.0000,27.0000 L 16.0000,27.0000 L 16.0000,41.0000 L 2.0000,41.0000 z " style="fill: #3465a4; fill-opacity: 1.00; stroke: none;" id="ezcGraphPolygon_5"/><path d=" M 2.0000,59.0000 L 2.0000,45.0000 L 16.0000,45.0000 L 16.0000,59.0000 L 2.0000,59.0000 z " style="fill: #4e9a06; fill-opacity: 1.00; stroke: none;" id="ezcGraphPolygon_7"/><path d=" M 140.0000,227.5000 L 700.0000,227.5000" style="fill: none; stroke: #2e3436; stroke-width: 1; stroke-opacity: 1.00; stroke-linecap: round; stroke-linejoin: round;" id="ezcGraphLine_9"/><path d=" M 692.0000,223.5000 L 700.0000,227.5000 L 692.0000,231.5000 L 692.0000,223.5000 z " style="fill: #2e3436; fill-opacity: 1.00; stroke: none;" id="ezcGraphPolygon_10"/><path d=" M 236.7273,47.5000 L 236.7273,227.5000" style="fill: none; stroke: #000000; stroke-width: 1; stroke-opacity: 0.00; stroke-linecap: round; stroke-linejoin: round;" id="ezcGraphLine_11"/><path d=" M 236.7273,226.5000 L 236.7273,227.5000" style="fill: none; stroke: #2e3436; stroke-width: 1; stroke-opacity: 1.00; stroke-linecap: round; stroke-linejoin: round;" id="ezcGraphLine_12"/><path d=" M 277.4545,47.5000 L 277.4545,227.5000" style="fill: none; stroke: #000000; stroke-width: 1; stroke-opacity: 0.00; stroke-linecap: round; stroke-linejoin: round;" id="ezcGraphLine_13"/><path d=" M 277.4545,224.5000 L 277.4545,227.5000" style="fill: none; stroke: #2e3436; stroke-width: 1; stroke-opacity: 1.00; stroke-linecap: round; stroke-linejoin: round;" id="ezcGraphLine_14"/><path d=" M 318.1818,47.5000 L 318.1818,227.5000" style="fill: none; stroke: #000000; stroke-width: 1; stroke-opacity: 0.00; stroke-linecap: round; stroke-linejoin: round;" id="ezcGraphLine_16"/><path d=" M 318.1818,224.5000 L 318.1818,227.5000" style="fill: none; stroke: #2e3436; stroke-width: 1; stroke-opacity: 1.00; stroke-linecap: round; stroke-linejoin: round;" id="ezcGraphLine_17"/><path d=" M 358.9091,47.5000 L 358.9091,227.5000" style="fill: none; stroke: #000000; stroke-width: 1; stroke-opacity: 0.00; stroke-linecap: round; stroke-linejoin: round;" id="ezcGraphLine_19"/><path d=" M 358.9091,224.5000 L 358.9091,227.5000" style="fill: none; stroke: #2e3436; stroke-width: 1; stroke-opacity: 1.00; stroke-linecap: round; stroke-linejoin: round;" id="ezcGraphLine_20"/><path d=" M 399.6364,47.5000 L 399.6364,227.5000" style="fill: none; stroke: #000000; stroke-width: 1; stroke-opacity: 0.00; stroke-linecap: round; stroke-linejoin: round;" id="ezcGraphLine_22"/><path d=" M 399.6364,224.5000 L 399.6364,227.5000" style="fill: none; stroke: #2e3436; stroke-width: 1; stroke-opacity: 1.00; stroke-linecap: round; stroke-linejoin: round;" id="ezcGraphLine_23"/><path d=" M 440.3636,47.5000 L 440.3636,227.5000" style="fill: none; stroke: #000000; stroke-width: 1; stroke-opacity: 0.00; stroke-linecap: round; stroke-linejoin: round;" id="ezcGraphLine_25"/><path d=" M 440.3636,226.5000 L 440.3636,227.5000" style="fill: none; stroke: #2e3436; stroke-width: 1; stroke-opacity: 1.00; stroke-linecap: round; stroke-linejoin: round;" id="ezcGraphLine_26"/><path d=" M 481.0909,47.5000 L 481.0909,227.5000" style="fill: none; stroke: #000000; stroke-width: 1; stroke-opacity: 0.00; stroke-linecap: round; stroke-linejoin: round;" id="ezcGraphLine_27"/><path d=" M 481.0909,224.5000 L 481.0909,227.5000" style="fill: none; stroke: #2e3436; stroke-width: 1; stroke-opacity: 1.00; stroke-linecap: round; stroke-linejoin: round;" id="ezcGraphLine_28"/><path d=" M 521.8182,47.5000 L 521.8182,227.5000" style="fill: none; stroke: #000000; stroke-width: 1; stroke-opacity: 0.00; stroke-linecap: round; stroke-linejoin: round;" id="ezcGraphLine_30"/><path d=" M 521.8182,224.5000 L 521.8182,227.5000" style="fill: none; stroke: #2e3436; stroke-width: 1; stroke-opacity: 1.00; stroke-linecap: round; stroke-linejoin: round;" id="ezcGraphLine_31"/><path d=" M 562.5455,47.5000 L 562.5455,227.5000" style="fill: none; stroke: #000000; stroke-width: 1; stroke-opacity: 0.00; stroke-linecap: round; stroke-linejoin: round;" id="ezcGraphLine_33"/><path d=" M 562.5455,224.5000 L 562.5455,227.5000" style="fill: none; stroke: #2e3436; stroke-width: 1; stroke-opacity: 1.00; stroke-linecap: round; stroke-linejoin: round;" id="ezcGraphLine_34"/><path d=" M 603.2727,47.5000 L 603.2727,227.5000" style="fill: none; stroke: #000000; stroke-width: 1; stroke-opacity: 0.00; stroke-linecap: round; stroke-linejoin: round;" id="ezcGraphLine_36"/><path d=" M 603.2727,224.5000 L 603.2727,227.5000" style="fill: none; stroke: #2e3436; stroke-width: 1; stroke-opacity: 1.00; stroke-linecap: round; stroke-linejoin: round;" id="ezcGraphLine_37"/><path d=" M 644.0000,47.5000 L 644.0000,227.5000" style="fill: none; stroke: #000000; stroke-width: 1; stroke-opacity: 0.00; stroke-linecap: round; stroke-linejoin: round;" id="ezcGraphLine_39"/><path d=" M 644.0000,224.5000 L 644.0000,227.5000" style="fill: none; stroke: #2e3436; stroke-width: 1; stroke-opacity: 1.00; stroke-linecap: round; stroke-linejoin: round;" id="ezcGraphLine_40"/><path d=" M 196.0000,250.0000 L 196.0000,25.0000" style="fill: none; stroke: #2e3436; stroke-width: 1; stroke-opacity: 1.00; stroke-linecap: round; stroke-linejoin: round;" id="ezcGraphLine_42"/><path d=" M 193.5000,30.0000 L 196.0000,25.0000 L 198.5000,30.0000 L 193.5000,30.0000 z " style="fill: #2e3436; fill-opacity: 1.00; stroke: none;" id="ezcGraphPolygon_43"/><path d=" M 196.0000,227.5000 L 644.0000,227.5000" style="fill: none; stroke: #000000; stroke-width: 1; stroke-opacity: 0.00; stroke-linecap: round; stroke-linejoin: round;" id="ezcGraphLine_44"/><path d=" M 196.0000,227.5000 L 199.0000,227.5000" style="fill: none; stroke: #2e3436; stroke-width: 1; stroke-opacity: 1.00; stroke-linecap: round; stroke-linejoin: round;" id="ezcGraphLine_45"/><path d=" M 196.0000,218.5000 L 644.0000,218.5000" style="fill: none; stroke: #000000; stroke-width: 1; stroke-opacity: 0.00; stroke-linecap: round; stroke-linejoin: round;" id="ezcGraphLine_47"/><path d=" M 196.0000,218.5000 L 197.0000,218.5000" style="fill: none; stroke: #2e3436; stroke-width: 1; stroke-opacity: 1.00; stroke-linecap: round; stroke-linejoin: round;" id="ezcGraphLine_48"/><path d=" M 196.0000,209.5000 L 644.0000,209.5000" style="fill: none; stroke: #000000; stroke-width: 1; stroke-opacity: 0.00; stroke-linecap: round; stroke-linejoin: round;" id="ezcGraphLine_49"/><path d=" M 196.0000,209.5000 L 197.0000,209.5000" style="fill: none; stroke: #2e3436; stroke-width: 1; stroke-opacity: 1.00; stroke-linecap: round; stroke-linejoin: round;" id="ezcGraphLine_50"/><path d=" M 196.0000,200.5000 L 644.0000,200.5000" style="fill: none; stroke: #000000; stroke-width: 1; stroke-opacity: 0.00; stroke-linecap: round; stroke-linejoin: round;" id="ezcGraphLine_51"/><path d=" M 196.0000,200.5000 L 197.0000,200.5000" style="fill: none; stroke: #2e3436; stroke-width: 1; stroke-opacity: 1.00; stroke-linecap: round; stroke-linejoin: round;" id="ezcGraphLine_52"/><path d=" M 196.0000,191.5000 L 644.0000,191.5000" style="fill: none; stroke: #000000; stroke-width: 1; stroke-opacity: 0.00; stroke-linecap: round; stroke-linejoin: round;" id="ezcGraphLine_53"/><path d=" M 196.0000,191.5000 L 199.0000,191.5000" style="fill: none; stroke: #2e3436; stroke-width: 1; stroke-opacity: 1.00; stroke-linecap: round; stroke-linejoin: round;" id="ezcGraphLine_54"/><path d=" M 196.0000,182.5000 L 644.0000,182.5000" style="fill: none; stroke: #000000; stroke-width: 1; stroke-opacity: 0.00; stroke-linecap: round; stroke-linejoin: round;" id="ezcGraphLine_56"/><path d=" M 196.0000,182.5000 L 197.0000,182.5000" style="fill: none; stroke: #2e3436; stroke-width: 1; stroke-opacity: 1.00; stroke-linecap: round; stroke-linejoin: round;" id="ezcGraphLine_57"/><path d=" M 196.0000,173.5000 L 644.0000,173.5000" style="fill: none; stroke: #000000; stroke-width: 1; stroke-opacity: 0.00; stroke-linecap: round; stroke-linejoin: round;" id="ezcGraphLine_58"/><path d=" M 196.0000,173.5000 L 197.0000,173.5000" style="fill: none; stroke: #2e3436; stroke-width: 1; stroke-opacity: 1.00; stroke-linecap: round; stroke-linejoin: round;" id="ezcGraphLine_59"/><path d=" M 196.0000,164.5000 L 644.0000,164.5000" style="fill: none; stroke: #000000; stroke-width: 1; stroke-opacity: 0.00; stroke-linecap: round; stroke-linejoin: round;" id="ezcGraphLine_60"/><path d=" M 196.0000,164.5000 L 197.0000,164.5000" style="fill: none; stroke: #2e3436; stroke-width: 1; stroke-opacity: 1.00; stroke-linecap: round; stroke-linejoin: round;" id="ezcGraphLine_61"/><path d=" M 196.0000,155.5000 L 644.0000,155.5000" style="fill: none; stroke: #000000; stroke-width: 1; stroke-opacity: 0.00; stroke-linecap: round; stroke-linejoin: round;" id="ezcGraphLine_62"/><path d=" M 196.0000,155.5000 L 199.0000,155.5000" style="fill: none; stroke: #2e3436; stroke-width: 1; stroke-opacity: 1.00; stroke-linecap: round; stroke-linejoin: round;" id="ezcGraphLine_63"/><path d=" M 196.0000,146.5000 L 644.0000,146.5000" style="fill: none; stroke: #000000; stroke-width: 1; stroke-opacity: 0.00; stroke-linecap: round; stroke-linejoin: round;" id="ezcGraphLine_65"/><path d=" M 196.0000,146.5000 L 197.0000,146.5000" style="fill: none; stroke: #2e3436; stroke-width: 1; stroke-opacity: 1.00; stroke-linecap: round; stroke-linejoin: round;" id="ezcGraphLine_66"/><path d=" M 196.0000,137.5000 L 644.0000,137.5000" style="fill: none; stroke: #000000; stroke-width: 1; stroke-opacity: 0.00; stroke-linecap: round; stroke-linejoin: round;" id="ezcGraphLine_67"/><path d=" M 196.0000,137.5000 L 197.0000,137.5000" style="fill: none; stroke: #2e3436; stroke-width: 1; stroke-opacity: 1.00; stroke-linecap: round; stroke-linejoin: round;" id="ezcGraphLine_68"/><path d=" M 196.0000,128.5000 L 644.0000,128.5000" style="fill: none; stroke: #000000; stroke-width: 1; stroke-opacity: 0.00; stroke-linecap: round; stroke-linejoin: round;" id="ezcGraphLine_69"/><path d=" M 196.0000,128.5000 L 197.0000,128.5000" style="fill: none; stroke: #2e3436; stroke-width: 1; stroke-opacity: 1.00; stroke-linecap: round; stroke-linejoin: round;" id="ezcGraphLine_70"/><path d=" M 196.0000,119.5000 L 644.0000,119.5000" style="fill: none; stroke: #000000; stroke-width: 1; stroke-opacity: 0.00; stroke-linecap: round; stroke-linejoin: round;" id="ezcGraphLine_71"/><path d=" M 196.0000,119.5000 L 199.0000,119.5000" style="fill: none; stroke: #2e3436; stroke-width: 1; stroke-opacity: 1.00; stroke-linecap: round; stroke-linejoin: round;" id="ezcGraphLine_72"/><path d=" M 196.0000,110.5000 L 644.0000,110.5000" style="fill: none; stroke: #000000; stroke-width: 1; stroke-opacity: 0.00; stroke-linecap: round; stroke-linejoin: round;" id="ezcGraphLine_74"/><path d=" M 196.0000,110.5000 L 197.0000,110.5000" style="fill: none; stroke: #2e3436; stroke-width: 1; stroke-opacity: 1.00; stroke-linecap: round; stroke-linejoin: round;" id="ezcGraphLine_75"/><path d=" M 196.0000,101.5000 L 644.0000,101.5000" style="fill: none; stroke: #000000; stroke-width: 1; stroke-opacity: 0.00; stroke-linecap: round; stroke-linejoin: round;" id="ezcGraphLine_76"/><path d=" M 196.0000,101.5000 L 197.0000,101.5000" style="fill: none; stroke: #2e3436; stroke-width: 1; stroke-opacity: 1.00; stroke-linecap: round; stroke-linejoin: round;" id="ezcGraphLine_77"/><path d=" M 196.0000,92.5000 L 644.0000,92.5000" style="fill: none; stroke: #000000; stroke-width: 1; stroke-opacity: 0.00; stroke-linecap: round; stroke-linejoin: round;" id="ezcGraphLine_78"/><path d=" M 196.0000,92.5000 L 197.0000,92.5000" style="fill: none; stroke: #2e3436; stroke-width: 1; stroke-opacity: 1.00; stroke-linecap: round; stroke-linejoin: round;" id="ezcGraphLine_79"/><path d=" M 196.0000,83.5000 L 644.0000,83.5000" style="fill: none; stroke: #000000; stroke-width: 1; stroke-opacity: 0.00; stroke-linecap: round; stroke-linejoin: round;" id="ezcGraphLine_80"/><path d=" M 196.0000,83.5000 L 199.0000,83.5000" style="fill: none; stroke: #2e3436; stroke-width: 1; stroke-opacity: 1.00; stroke-linecap: round; stroke-linejoin: round;" id="ezcGraphLine_81"/><path d=" M 196.0000,74.5000 L 644.0000,74.5000" style="fill: none; stroke: #000000; stroke-width: 1; stroke-opacity: 0.00; stroke-linecap: round; stroke-linejoin: round;" id="ezcGraphLine_83"/><path d=" M 196.0000,74.5000 L 197.0000,74.5000" style="fill: none; stroke: #2e3436; stroke-width: 1; stroke-opacity: 1.00; stroke-linecap: round; stroke-linejoin: round;" id="ezcGraphLine_84"/><path d=" M 196.0000,65.5000 L 644.0000,65.5000" style="fill: none; stroke: #000000; stroke-width: 1; stroke-opacity: 0.00; stroke-linecap: round; stroke-linejoin: round;" id="ezcGraphLine_85"/><path d=" M 196.0000,65.5000 L 197.0000,65.5000" style="fill: none; stroke: #2e3436; stroke-width: 1; stroke-opacity: 1.00; stroke-linecap: round; stroke-linejoin: round;" id="ezcGraphLine_86"/><path d=" M 196.0000,56.5000 L 644.0000,56.5000" style="fill: none; stroke: #000000; stroke-width: 1; stroke-opacity: 0.00; stroke-linecap: round; stroke-linejoin: round;" id="ezcGraphLine_87"/><path d=" M 196.0000,56.5000 L 197.0000,56.5000" style="fill: none; stroke: #2e3436; stroke-width: 1; stroke-opacity: 1.00; stroke-linecap: round; stroke-linejoin: round;" id="ezcGraphLine_88"/><path d=" M 196.0000,47.5000 L 644.0000,47.5000" style="fill: none; stroke: #000000; stroke-width: 1; stroke-opacity: 0.00; stroke-linecap: round; stroke-linejoin: round;" id="ezcGraphLine_89"/><path d=" M 196.0000,47.5000 L 199.0000,47.5000" style="fill: none; stroke: #2e3436; stroke-width: 1; stroke-opacity: 1.00; stroke-linecap: round; stroke-linejoin: round;" id="ezcGraphLine_90"/><path d=" M 196.0000,177.2133 L 196.0000,177.2133" style="fill: none; stroke: #3465a4; stroke-width: 1; stroke-opacity: 1.00; stroke-linecap: round; stroke-linejoin: round;" id="ezcGraphLine_92"/><path d=" M 196.0000,227.5000 L 196.0000,177.2133 L 236.7273,177.5333 L 236.7273,227.5000 L 196.0000,227.5000 z " style="fill: #3465a4; fill-opacity: 0.18; stroke: none;" id="ezcGraphPolygon_93"/><path d=" M 196.0000,177.2133 L 236.7273,177.5333" style="fill: none; stroke: #3465a4; stroke-width: 1; stroke-opacity: 1.00; stroke-linecap: round; stroke-linejoin: round;" id="ezcGraphLine_94"/><path d=" M 236.7273,227.5000 L 236.7273,177.5333 L 277.4545,179.4249 L 277.4545,227.5000 L 236.7273,227.5000 z " style="fill: #3465a4; fill-opacity: 0.18; stroke: none;" id="ezcGraphPolygon_95"/><path d=" M 236.7273,177.5333 L 277.4545,179.4249" style="fill: none; stroke: #3465a4; stroke-width: 1; stroke-opacity: 1.00; stroke-linecap: round; stroke-linejoin: round;" id="ezcGraphLine_96"/><path d=" M 277.4545,227.5000 L 277.4545,179.4249 L 318.1818,180.8062 L 318.1818,227.5000 L 277.4545,227.5000 z " style="fill: #3465a4; fill-opacity: 0.18; stroke: none;" id="ezcGraphPolygon_97"/><path d=" M 277.4545,179.4249 L 318.1818,180.8062" style="fill: none; stroke: #3465a4; stroke-width: 1; stroke-opacity: 1.00; stroke-linecap: round; stroke-linejoin: round;" id="ezcGraphLine_98"/><path d=" M 318.1818,227.5000 L 318.1818,180.8062 L 358.9091,179.0933 L 358.9091,227.5000 L 318.1818,227.5000 z " style="fill: #3465a4; fill-opacity: 0.18; stroke: none;" id="ezcGraphPolygon_99"/><path d=" M 318.1818,180.8062 L 358.9091,179.0933" style="fill: none; stroke: #3465a4; stroke-width: 1; stroke-opacity: 1.00; stroke-linecap: round; stroke-linejoin: round;" id="ezcGraphLine_100"/><path d=" M 358.9091,227.5000 L 358.9091,179.0933 L 399.6364,183.7012 L 399.6364,227.5000 L 358.9091,227.5000 z " style="fill: #3465a4; fill-opacity: 0.18; stroke: none;" id="ezcGraphPolygon_101"/><path d=" M 358.9091,179.0933 L 399.6364,183.7012" style="fill: none; stroke: #3465a4; stroke-width: 1; stroke-opacity: 1.00; stroke-linecap: round; stroke-linejoin: round;" id="ezcGraphLine_102"/><path d=" M 399.6364,227.5000 L 399.6364,183.7012 L 440.3636,195.1778 L 440.3636,227.5000 L 399.6364,227.5000 z " style="fill: #3465a4; fill-opacity: 0.18; stroke: none;" id="ezcGraphPolygon_103"/><path d=" M 399.6364,183.7012 L 440.3636,195.1778" style="fill: none; stroke: #3465a4; stroke-width: 1; stroke-opacity: 1.00; stroke-linecap: round; stroke-linejoin: round;" id="ezcGraphLine_104"/><path d=" M 440.3636,227.5000 L 440.3636,195.1778 L 481.0909,174.6036 L 481.0909,227.5000 L 440.3636,227.5000 z " style="fill: #3465a4; fill-opacity: 0.18; stroke: none;" id="ezcGraphPolygon_105"/><path d=" M 440.3636,195.1778 L 481.0909,174.6036" style="fill: none; stroke: #3465a4; stroke-width: 1; stroke-opacity: 1.00; stroke-linecap: round; stroke-linejoin: round;" id="ezcGraphLine_106"/><path d=" M 481.0909,227.5000 L 481.0909,174.6036 L 521.8182,119.0318 L 521.8182,227.5000 L 481.0909,227.5000 z " style="fill: #3465a4; fill-opacity: 0.18; stroke: none;" id="ezcGraphPolygon_107"/><path d=" M 481.0909,174.6036 L 521.8182,119.0318" style="fill: none; stroke: #3465a4; stroke-width: 1; stroke-opacity: 1.00; stroke-linecap: round; stroke-linejoin: round;" id="ezcGraphLine_108"/><path d=" M 521.8182,227.5000 L 521.8182,119.0318 L 562.5455,105.1331 L 562.5455,227.5000 L 521.8182,227.5000 z " style="fill: #3465a4; fill-opacity: 0.18; stroke: none;" id="ezcGraphPolygon_109"/><path d=" M 521.8182,119.0318 L 562.5455,105.1331" style="fill: none; stroke: #3465a4; stroke-width: 1; stroke-opacity: 1.00; stroke-linecap: round; stroke-linejoin: round;" id="ezcGraphLine_110"/><path d=" M 562.5455,227.5000 L 562.5455,105.1331 L 603.2727,52.2748 L 603.2727,227.5000 L 562.5455,227.5000 z " style="fill: #3465a4; fill-opacity: 0.18; stroke: none;" id="ezcGraphPolygon_111"/><path d=" M 562.5455,105.1331 L 603.2727,52.2748" style="fill: none; stroke: #3465a4; stroke-width: 1; stroke-opacity: 1.00; stroke-linecap: round; stroke-linejoin: round;" id="ezcGraphLine_112"/><path d=" M 603.2727,227.5000 L 603.2727,52.2748 L 644.0000,47.8370 L 644.0000,227.5000 L 603.2727,227.5000 z " style="fill: #3465a4; fill-opacity: 0.18; stroke: none;" id="ezcGraphPolygon_113"/><path d=" M 603.2727,52.2748 L 644.0000,47.8370" style="fill: none; stroke: #3465a4; stroke-width: 1; stroke-opacity: 1.00; stroke-linecap: round; stroke-linejoin: round;" id="ezcGraphLine_114"/><path d=" M 196.0000,147.6525 L 196.0000,147.6525" style="fill: none; stroke: #4e9a06; stroke-width: 1; stroke-opacity: 1.00; stroke-linecap: round; stroke-linejoin: round;" id="ezcGraphLine_115"/><path d=" M 196.0000,227.5000 L 196.0000,147.6525 L 236.7273,147.6525 L 236.7273,227.5000 L 196.0000,227.5000 z " style="fill: #4e9a06; fill-opacity: 0.18; stroke: none;" id="ezcGraphPolygon_116"/><path d=" M 196.0000,147.6525 L 236.7273,147.6525" style="fill: none; stroke: #4e9a06; stroke-width: 1; stroke-opacity: 1.00; stroke-linecap: round; stroke-linejoin: round;" id="ezcGraphLine_117"/><path d=" M 236.7273,227.5000 L 236.7273,147.6525 L 277.4545,147.6525 L 277.4545,227.5000 L 236.7273,227.5000 z " style="fill: #4e9a06; fill-opacity: 0.18; stroke: none;" id="ezcGraphPolygon_118"/><path d=" M 236.7273,147.6525 L 277.4545,147.6525" style="fill: none; stroke: #4e9a06; stroke-width: 1; stroke-opacity: 1.00; stroke-linecap: round; stroke-linejoin: round;" id="ezcGraphLine_119"/><path d=" M 277.4545,227.5000 L 277.4545,147.6525 L 318.1818,147.6525 L 318.1818,227.5000 L 277.4545,227.5000 z " style="fill: #4e9a06; fill-opacity: 0.18; stroke: none;" id="ezcGraphPolygon_120"/><path d=" M 277.4545,147.6525 L 318.1818,147.6525" style="fill: none; stroke: #4e9a06; stroke-width: 1; stroke-opacity: 1.00; stroke-linecap: round; stroke-linejoin: round;" id="ezcGraphLine_121"/><path d=" M 318.1818,227.5000 L 318.1818,147.6525 L 358.9091,147.6525 L 358.9091,227.5000 L 318.1818,227.5000 z " style="fill: #4e9a06; fill-opacity: 0.18; stroke: none;" id="ezcGraphPolygon_122"/><path d=" M 318.1818,147.6525 L 358.9091,147.6525" style="fill: none; stroke: #4e9a06; stroke-width: 1; stroke-opacity: 1.00; stroke-linecap: round; stroke-linejoin: round;" id="ezcGraphLine_123"/><path d=" M 358.9091,227.5000 L 358.9091,147.6525 L 399.6364,147.6525 L 399.6364,227.5000 L 358.9091,227.5000 z " style="fill: #4e9a06; fill-opacity: 0.18; stroke: none;" id="ezcGraphPolygon_124"/><path d=" M 358.9091,147.6525 L 399.6364,147.6525" style="fill: none; stroke: #4e9a06; stroke-width: 1; stroke-opacity: 1.00; stroke-linecap: round; stroke-linejoin: round;" id="ezcGraphLine_125"/><path d=" M 399.6364,227.5000 L 399.6364,147.6525 L 440.3636,147.6525 L 440.3636,227.5000 L 399.6364,227.5000 z " style="fill: #4e9a06; fill-opacity: 0.18; stroke: none;" id="ezcGraphPolygon_126"/><path d=" M 399.6364,147.6525 L 440.3636,147.6525" style="fill: none; stroke: #4e9a06; stroke-width: 1; stroke-opacity: 1.00; stroke-linecap: round; stroke-linejoin: round;" id="ezcGraphLine_127"/><path d=" M 440.3636,227.5000 L 440.3636,147.6525 L 481.0909,147.6525 L 481.0909,227.5000 L 440.3636,227.5000 z " style="fill: #4e9a06; fill-opacity: 0.18; stroke: none;" id="ezcGraphPolygon_128"/><path d=" M 440.3636,147.6525 L 481.0909,147.6525" style="fill: none; stroke: #4e9a06; stroke-width: 1; stroke-opacity: 1.00; stroke-linecap: round; stroke-linejoin: round;" id="ezcGraphLine_129"/><path d=" M 481.0909,227.5000 L 481.0909,147.6525 L 521.8182,147.6525 L 521.8182,227.5000 L 481.0909,227.5000 z " style="fill: #4e9a06; fill-opacity: 0.18; stroke: none;" id="ezcGraphPolygon_130"/><path d=" M 481.0909,147.6525 L 521.8182,147.6525" style="fill: none; stroke: #4e9a06; stroke-width: 1; stroke-opacity: 1.00; stroke-linecap: round; stroke-linejoin: round;" id="ezcGraphLine_131"/><path d=" M 521.8182,227.5000 L 521.8182,147.6525 L 562.5455,147.6525 L 562.5455,227.5000 L 521.8182,227.5000 z " style="fill: #4e9a06; fill-opacity: 0.18; stroke: none;" id="ezcGraphPolygon_132"/><path d=" M 521.8182,147.6525 L 562.5455,147.6525" style="fill: none; stroke: #4e9a06; stroke-width: 1; stroke-opacity: 1.00; stroke-linecap: round; stroke-linejoin: round;" id="ezcGraphLine_133"/><path d=" M 562.5455,227.5000 L 562.5455,147.6525 L 603.2727,147.6525 L 603.2727,227.5000 L 562.5455,227.5000 z " style="fill: #4e9a06; fill-opacity: 0.18; stroke: none;" id="ezcGraphPolygon_134"/><path d=" M 562.5455,147.6525 L 603.2727,147.6525" style="fill: none; stroke: #4e9a06; stroke-width: 1; stroke-opacity: 1.00; stroke-linecap: round; stroke-linejoin: round;" id="ezcGraphLine_135"/><path d=" M 603.2727,227.5000 L 603.2727,147.6525 L 644.0000,147.6525 L 644.0000,227.5000 L 603.2727,227.5000 z " style="fill: #4e9a06; fill-opacity: 0.18; stroke: none;" id="ezcGraphPolygon_136"/><path d=" M 603.2727,147.6525 L 644.0000,147.6525" style="fill: none; stroke: #4e9a06; stroke-width: 1; stroke-opacity: 1.00; stroke-linecap: round; stroke-linejoin: round;" id="ezcGraphLine_137"/><g id="ezcGraphTextBox_3"><path d=" M 258.0750,25.0000 L 258.0750,0.5000 L 442.4250,0.5000 L 442.4250,25.0000 L 258.0750,25.0000 z " style="fill: #ffffff; fill-opacity: 0.00; stroke: none;" id="ezcGraphPolygon_138"/><text id="ezcGraphTextBox_3_text" x="258.5750" text-length="182.8500px" y="20.5500" style="font-size: 23px; font-family: 'sans-serif'; fill: #2e3436; fill-opacity: 1.00; stroke: none;">Elevation Graph</text></g><g id="ezcGraphTextBox_6"><path d=" M 16.5000,41.5000 L 16.5000,27.0000 L 80.0100,27.0000 L 80.0100,41.5000 L 16.5000,41.5000 z " style="fill: #ffffff; fill-opacity: 0.00; stroke: none;" id="ezcGraphPolygon_139"/><text id="ezcGraphTextBox_6_text" x="17.0000" text-length="62.0100px" y="38.5500" style="font-size: 13px; font-family: 'sans-serif'; fill: #2e3436; fill-opacity: 1.00; stroke: none;">Elevation</text></g><g id="ezcGraphTextBox_8"><path d=" M 16.5000,59.5000 L 16.5000,45.0000 L 135.1300,45.0000 L 135.1300,59.5000 L 16.5000,59.5000 z " style="fill: #ffffff; fill-opacity: 0.00; stroke: none;" id="ezcGraphPolygon_140"/><text id="ezcGraphTextBox_8_text" x="17.0000" text-length="117.1300px" y="56.5500" style="font-size: 13px; font-family: 'sans-serif'; fill: #2e3436; fill-opacity: 1.00; stroke: none;">Average Elevation</text></g><g id="ezcGraphTextBox_15"><path d=" M 272.6145,244.5000 L 272.6145,229.0000 L 282.7945,229.0000 L 282.7945,244.5000 L 272.6145,244.5000 z " style="fill: #ffffff; fill-opacity: 0.00; stroke: none;" id="ezcGraphPolygon_141"/><text id="ezcGraphTextBox_15_text" x="273.1145" text-length="8.6800px" y="241.4000" style="font-size: 14px; font-family: 'sans-serif'; fill: #2e3436; fill-opacity: 1.00; stroke: none;">2</text></g><g id="ezcGraphTextBox_18"><path d=" M 313.3418,244.5000 L 313.3418,229.0000 L 323.5218,229.0000 L 323.5218,244.5000 L 313.3418,244.5000 z " style="fill: #ffffff; fill-opacity: 0.00; stroke: none;" id="ezcGraphPolygon_142"/><text id="ezcGraphTextBox_18_text" x="313.8418" text-length="8.6800px" y="241.4000" style="font-size: 14px; font-family: 'sans-serif'; fill: #2e3436; fill-opacity: 1.00; stroke: none;">3</text></g><g id="ezcGraphTextBox_21"><path d=" M 354.0691,244.5000 L 354.0691,229.0000 L 364.2491,229.0000 L 364.2491,244.5000 L 354.0691,244.5000 z " style="fill: #ffffff; fill-opacity: 0.00; stroke: none;" id="ezcGraphPolygon_143"/><text id="ezcGraphTextBox_21_text" x="354.5691" text-length="8.6800px" y="241.4000" style="font-size: 14px; font-family: 'sans-serif'; fill: #2e3436; fill-opacity: 1.00; stroke: none;">4</text></g><g id="ezcGraphTextBox_24"><path d=" M 394.7964,244.5000 L 394.7964,229.0000 L 404.9764,229.0000 L 404.9764,244.5000 L 394.7964,244.5000 z " style="fill: #ffffff; fill-opacity: 0.00; stroke: none;" id="ezcGraphPolygon_144"/><text id="ezcGraphTextBox_24_text" x="395.2964" text-length="8.6800px" y="241.4000" style="font-size: 14px; font-family: 'sans-serif'; fill: #2e3436; fill-opacity: 1.00; stroke: none;">5</text></g><g id="ezcGraphTextBox_29"><path d=" M 476.2509,244.5000 L 476.2509,229.0000 L 486.4309,229.0000 L 486.4309,244.5000 L 476.2509,244.5000 z " style="fill: #ffffff; fill-opacity: 0.00; stroke: none;" id="ezcGraphPolygon_145"/><text id="ezcGraphTextBox_29_text" x="476.7509" text-length="8.6800px" y="241.4000" style="font-size: 14px; font-family: 'sans-serif'; fill: #2e3436; fill-opacity: 1.00; stroke: none;">7</text></g><g id="ezcGraphTextBox_32"><path d=" M 516.9782,244.5000 L 516.9782,229.0000 L 527.1582,229.0000 L 527.1582,244.5000 L 516.9782,244.5000 z " style="fill: #ffffff; fill-opacity: 0.00; stroke: none;" id="ezcGraphPolygon_146"/><text id="ezcGraphTextBox_32_text" x="517.4782" text-length="8.6800px" y="241.4000" style="font-size: 14px; font-family: 'sans-serif'; fill: #2e3436; fill-opacity: 1.00; stroke: none;">8</text></g><g id="ezcGraphTextBox_35"><path d=" M 557.7055,244.5000 L 557.7055,229.0000 L 567.8855,229.0000 L 567.8855,244.5000 L 557.7055,244.5000 z " style="fill: #ffffff; fill-opacity: 0.00; stroke: none;" id="ezcGraphPolygon_147"/><text id="ezcGraphTextBox_35_text" x="558.2055" text-length="8.6800px" y="241.4000" style="font-size: 14px; font-family: 'sans-serif'; fill: #2e3436; fill-opacity: 1.00; stroke: none;">9</text></g><g id="ezcGraphTextBox_38"><path d=" M 594.0927,244.5000 L 594.0927,229.0000 L 612.9527,229.0000 L 612.9527,244.5000 L 594.0927,244.5000 z " style="fill: #ffffff; fill-opacity: 0.00; stroke: none;" id="ezcGraphPolygon_148"/><text id="ezcGraphTextBox_38_text" x="594.5927" text-length="17.3600px" y="241.4000" style="font-size: 14px; font-family: 'sans-serif'; fill: #2e3436; fill-opacity: 1.00; stroke: none;">10</text></g><g id="ezcGraphTextBox_41"><path d=" M 634.8200,244.5000 L 634.8200,229.0000 L 653.6800,229.0000 L 653.6800,244.5000 L 634.8200,244.5000 z " style="fill: #ffffff; fill-opacity: 0.00; stroke: none;" id="ezcGraphPolygon_149"/><text id="ezcGraphTextBox_41_text" x="635.3200" text-length="17.3600px" y="241.4000" style="font-size: 14px; font-family: 'sans-serif'; fill: #2e3436; fill-opacity: 1.00; stroke: none;">11</text></g><g id="ezcGraphTextBox_46"><path d=" M 158.7800,226.5000 L 158.7800,211.0000 L 195.0000,211.0000 L 195.0000,226.5000 L 158.7800,226.5000 z " style="fill: #ffffff; fill-opacity: 0.00; stroke: none;" id="ezcGraphPolygon_150"/><text id="ezcGraphTextBox_46_text" x="159.2800" text-length="34.7200px" y="223.4000" style="font-size: 14px; font-family: 'sans-serif'; fill: #2e3436; fill-opacity: 1.00; stroke: none;">7530</text></g><g id="ezcGraphTextBox_55"><path d=" M 158.7800,190.5000 L 158.7800,175.0000 L 195.0000,175.0000 L 195.0000,190.5000 L 158.7800,190.5000 z " style="fill: #ffffff; fill-opacity: 0.00; stroke: none;" id="ezcGraphPolygon_151"/><text id="ezcGraphTextBox_55_text" x="159.2800" text-length="34.7200px" y="187.4000" style="font-size: 14px; font-family: 'sans-serif'; fill: #2e3436; fill-opacity: 1.00; stroke: none;">7540</text></g><g id="ezcGraphTextBox_64"><path d=" M 158.7800,154.5000 L 158.7800,139.0000 L 195.0000,139.0000 L 195.0000,154.5000 L 158.7800,154.5000 z " style="fill: #ffffff; fill-opacity: 0.00; stroke: none;" id="ezcGraphPolygon_152"/><text id="ezcGraphTextBox_64_text" x="159.2800" text-length="34.7200px" y="151.4000" style="font-size: 14px; font-family: 'sans-serif'; fill: #2e3436; fill-opacity: 1.00; stroke: none;">7550</text></g><g id="ezcGraphTextBox_73"><path d=" M 158.7800,118.5000 L 158.7800,103.0000 L 195.0000,103.0000 L 195.0000,118.5000 L 158.7800,118.5000 z " style="fill: #ffffff; fill-opacity: 0.00; stroke: none;" id="ezcGraphPolygon_153"/><text id="ezcGraphTextBox_73_text" x="159.2800" text-length="34.7200px" y="115.4000" style="font-size: 14px; font-family: 'sans-serif'; fill: #2e3436; fill-opacity: 1.00; stroke: none;">7560</text></g><g id="ezcGraphTextBox_82"><path d=" M 158.7800,82.5000 L 158.7800,67.0000 L 195.0000,67.0000 L 195.0000,82.5000 L 158.7800,82.5000 z " style="fill: #ffffff; fill-opacity: 0.00; stroke: none;" id="ezcGraphPolygon_154"/><text id="ezcGraphTextBox_82_text" x="159.2800" text-length="34.7200px" y="79.4000" style="font-size: 14px; font-family: 'sans-serif'; fill: #2e3436; fill-opacity: 1.00; stroke: none;">7570</text></g><g id="ezcGraphTextBox_91"><path d=" M 158.7800,64.5000 L 158.7800,49.0000 L 195.0000,49.0000 L 195.0000,64.5000 L 158.7800,64.5000 z " style="fill: #ffffff; fill-opacity: 0.00; stroke: none;" id="ezcGraphPolygon_155"/><text id="ezcGraphTextBox_91_text" x="159.2800" text-length="34.7200px" y="61.4000" style="font-size: 14px; font-family: 'sans-serif'; fill: #2e3436; fill-opacity: 1.00; stroke: none;">7580</text></g></g></svg>
