<?xml version="1.0"?>
<svg xmlns="http://www.w3.org/2000/svg" width="700" height="250" version="1.0" id="ezcGraph"><defs/><g id="ezcGraphChart" color-rendering="optimizeQuality" shape-rendering="geometricPrecision" text-rendering="optimizeLegibility"><path d=" M 0.0000,250.0000 L 0.0000,0.0000 L 700.0000,0.0000 L 700.0000,250.0000 L 0.0000,250.0000 z " style="fill: #eeeeec; fill-opacity: 1.00; stroke: none;" id="ezcGraphPolygon_1"/><path d=" M 0.0000,25.0000 L 0.0000,0.0000 L 700.0000,0.0000 L 700.0000,25.0000 L 0.0000,25.0000 z " style="fill: #000000; fill-opacity: 0.00; stroke: none;" id="ezcGraphPolygon_2"/><path d=" M 0.0000,250.0000 L 0.0000,25.0000 L 140.0000,25.0000 L 140.0000,250.0000 L 0.0000,250.0000 z " style="fill: #000000; fill-opacity: 0.00; stroke: none;" id="ezcGraphPolygon_4"/><path d=" M 2.0000,41.0000 L 2.0000,27.0000 L 16.0000,27.0000 L 16.0000,41.0000 L 2.0000,41.0000 z " style="fill: #3465a4; fill-opacity: 1.00; stroke: none;" id="ezcGraphPolygon_5"/><path d=" M 2.0000,59.0000 L 2.0000,45.0000 L 16.0000,45.0000 L 16.0000,59.0000 L 2.0000,59.0000 z " style="fill: #4e9a06; fill-opacity: 1.00; stroke: none;" id="ezcGraphPolygon_7"/><path d=" M 140.0000,227.5000 L 700.0000,227.5000" style="fill: none; stroke: #2e3436; stroke-width: 1; stroke-opacity: 1.00; stroke-linecap: round; stroke-linejoin: round;" id="ezcGraphLine_9"/><path d=" M 692.0000,223.5000 L 700.0000,227.5000 L 692.0000,231.5000 L 692.0000,223.5000 z " style="fill: #2e3436; fill-opacity: 1.00; stroke: none;" id="ezcGraphPolygon_10"/><path d=" M 228.0000,47.5000 L 228.0000,227.5000" style="fill: none; stroke: #000000; stroke-width: 1; stroke-opacity: 0.00; stroke-linecap: round; stroke-linejoin: round;" id="ezcGraphLine_11"/><path d=" M 228.0000,226.5000 L 228.0000,227.5000" style="fill: none; stroke: #2e3436; stroke-width: 1; stroke-opacity: 1.00; stroke-linecap: round; stroke-linejoin: round;" id="ezcGraphLine_12"/><path d=" M 260.0000,47.5000 L 260.0000,227.5000" style="fill: none; stroke: #000000; stroke-width: 1; stroke-opacity: 0.00; stroke-linecap: round; stroke-linejoin: round;" id="ezcGraphLine_13"/><path d=" M 260.0000,224.5000 L 260.0000,227.5000" style="fill: none; stroke: #2e3436; stroke-width: 1; stroke-opacity: 1.00; stroke-linecap: round; stroke-linejoin: round;" id="ezcGraphLine_14"/><path d=" M 292.0000,47.5000 L 292.0000,227.5000" style="fill: none; stroke: #000000; stroke-width: 1; stroke-opacity: 0.00; stroke-linecap: round; stroke-linejoin: round;" id="ezcGraphLine_16"/><path d=" M 292.0000,226.5000 L 292.0000,227.5000" style="fill: none; stroke: #2e3436; stroke-width: 1; stroke-opacity: 1.00; stroke-linecap: round; stroke-linejoin: round;" id="ezcGraphLine_17"/><path d=" M 324.0000,47.5000 L 324.0000,227.5000" style="fill: none; stroke: #000000; stroke-width: 1; stroke-opacity: 0.00; stroke-linecap: round; stroke-linejoin: round;" id="ezcGraphLine_18"/><path d=" M 324.0000,224.5000 L 324.0000,227.5000" style="fill: none; stroke: #2e3436; stroke-width: 1; stroke-opacity: 1.00; stroke-linecap: round; stroke-linejoin: round;" id="ezcGraphLine_19"/><path d=" M 356.0000,47.5000 L 356.0000,227.5000" style="fill: none; stroke: #000000; stroke-width: 1; stroke-opacity: 0.00; stroke-linecap: round; stroke-linejoin: round;" id="ezcGraphLine_21"/><path d=" M 356.0000,226.5000 L 356.0000,227.5000" style="fill: none; stroke: #2e3436; stroke-width: 1; stroke-opacity: 1.00; stroke-linecap: round; stroke-linejoin: round;" id="ezcGraphLine_22"/><path d=" M 388.0000,47.5000 L 388.0000,227.5000" style="fill: none; stroke: #000000; stroke-width: 1; stroke-opacity: 0.00; stroke-linecap: round; stroke-linejoin: round;" id="ezcGraphLine_23"/><path d=" M 388.0000,224.5000 L 388.0000,227.5000" style="fill: none; stroke: #2e3436; stroke-width: 1; stroke-opacity: 1.00; stroke-linecap: round; stroke-linejoin: round;" id="ezcGraphLine_24"/><path d=" M 420.0000,47.5000 L 420.0000,227.5000" style="fill: none; stroke: #000000; stroke-width: 1; stroke-opacity: 0.00; stroke-linecap: round; stroke-linejoin: round;" id="ezcGraphLine_26"/><path d=" M 420.0000,226.5000 L 420.0000,227.5000" style="fill: none; stroke: #2e3436; stroke-width: 1; stroke-opacity: 1.00; stroke-linecap: round; stroke-linejoin: round;" id="ezcGraphLine_27"/><path d=" M 452.0000,47.5000 L 452.0000,227.5000" style="fill: none; stroke: #000000; stroke-width: 1; stroke-opacity: 0.00; stroke-linecap: round; stroke-linejoin: round;" id="ezcGraphLine_28"/><path d=" M 452.0000,224.5000 L 452.0000,227.5000" style="fill: none; stroke: #2e3436; stroke-width: 1; stroke-opacity: 1.00; stroke-linecap: round; stroke-linejoin: round;" id="ezcGraphLine_29"/><path d=" M 484.0000,47.5000 L 484.0000,227.5000" style="fill: none; stroke: #000000; stroke-width: 1; stroke-opacity: 0.00; stroke-linecap: round; stroke-linejoin: round;" id="ezcGraphLine_31"/><path d=" M 484.0000,226.5000 L 484.0000,227.5000" style="fill: none; stroke: #2e3436; stroke-width: 1; stroke-opacity: 1.00; stroke-linecap: round; stroke-linejoin: round;" id="ezcGraphLine_32"/><path d=" M 516.0000,47.5000 L 516.0000,227.5000" style="fill: none; stroke: #000000; stroke-width: 1; stroke-opacity: 0.00; stroke-linecap: round; stroke-linejoin: round;" id="ezcGraphLine_33"/><path d=" M 516.0000,224.5000 L 516.0000,227.5000" style="fill: none; stroke: #2e3436; stroke-width: 1; stroke-opacity: 1.00; stroke-linecap: round; stroke-linejoin: round;" id="ezcGraphLine_34"/><path d=" M 548.0000,47.5000 L 548.0000,227.5000" style="fill: none; stroke: #000000; stroke-width: 1; stroke-opacity: 0.00; stroke-linecap: round; stroke-linejoin: round;" id="ezcGraphLine_36"/><path d=" M 548.0000,226.5000 L 548.0000,227.5000" style="fill: none; stroke: #2e3436; stroke-width: 1; stroke-opacity: 1.00; stroke-linecap: round; stroke-linejoin: round;" id="ezcGraphLine_37"/><path d=" M 580.0000,47.5000 L 580.0000,227.5000" style="fill: none; stroke: #000000; stroke-width: 1; stroke-opacity: 0.00; stroke-linecap: round; stroke-linejoin: round;" id="ezcGraphLine_38"/><path d=" M 580.0000,224.5000 L 580.0000,227.5000" style="fill: none; stroke: #2e3436; stroke-width: 1; stroke-opacity: 1.00; stroke-linecap: round; stroke-linejoin: round;" id="ezcGraphLine_39"/><path d=" M 612.0000,47.5000 L 612.0000,227.5000" style="fill: none; stroke: #000000; stroke-width: 1; stroke-opacity: 0.00; stroke-linecap: round; stroke-linejoin: round;" id="ezcGraphLine_41"/><path d=" M 612.0000,226.5000 L 612.0000,227.5000" style="fill: none; stroke: #2e3436; stroke-width: 1; stroke-opacity: 1.00; stroke-linecap: round; stroke-linejoin: round;" id="ezcGraphLine_42"/><path d=" M 644.0000,47.5000 L 644.0000,227.5000" style="fill: none; stroke: #000000; stroke-width: 1; stroke-opacity: 0.00; stroke-linecap: round; stroke-linejoin: round;" id="ezcGraphLine_43"/><path d=" M 644.0000,224.5000 L 644.0000,227.5000" style="fill: none; stroke: #2e3436; stroke-width: 1; stroke-opacity: 1.00; stroke-linecap: round; stroke-linejoin: round;" id="ezcGraphLine_44"/><path d=" M 196.0000,250.0000 L 196.0000,25.0000" style="fill: none; stroke: #2e3436; stroke-width: 1; stroke-opacity: 1.00; stroke-linecap: round; stroke-linejoin: round;" id="ezcGraphLine_46"/><path d=" M 193.5000,30.0000 L 196.0000,25.0000 L 198.5000,30.0000 L 193.5000,30.0000 z " style="fill: #2e3436; fill-opacity: 1.00; stroke: none;" id="ezcGraphPolygon_47"/><path d=" M 196.0000,227.5000 L 644.0000,227.5000" style="fill: none; stroke: #000000; stroke-width: 1; stroke-opacity: 0.00; stroke-linecap: round; stroke-linejoin: round;" id="ezcGraphLine_48"/><path d=" M 196.0000,227.5000 L 199.0000,227.5000" style="fill: none; stroke: #2e3436; stroke-width: 1; stroke-opacity: 1.00; stroke-linecap: round; stroke-linejoin: round;" id="ezcGraphLine_49"/><path d=" M 196.0000,218.5000 L 644.0000,218.5000" style="fill: none; stroke: #000000; stroke-width: 1; stroke-opacity: 0.00; stroke-linecap: round; stroke-linejoin: round;" id="ezcGraphLine_51"/><path d=" M 196.0000,218.5000 L 197.0000,218.5000" style="fill: none; stroke: #2e3436; stroke-width: 1; stroke-opacity: 1.00; stroke-linecap: round; stroke-linejoin: round;" id="ezcGraphLine_52"/><path d=" M 196.0000,209.5000 L 644.0000,209.5000" style="fill: none; stroke: #000000; stroke-width: 1; stroke-opacity: 0.00; stroke-linecap: round; stroke-linejoin: round;" id="ezcGraphLine_53"/><path d=" M 196.0000,209.5000 L 197.0000,209.5000" style="fill: none; stroke: #2e3436; stroke-width: 1; stroke-opacity: 1.00; stroke-linecap: round; stroke-linejoin: round;" id="ezcGraphLine_54"/><path d=" M 196.0000,200.5000 L 644.0000,200.5000" style="fill: none; stroke: #000000; stroke-width: 1; stroke-opacity: 0.00; stroke-linecap: round; stroke-linejoin: round;" id="ezcGraphLine_55"/><path d=" M 196.0000,200.5000 L 197.0000,200.5000" style="fill: none; stroke: #2e3436; stroke-width: 1; stroke-opacity: 1.00; stroke-linecap: round; stroke-linejoin: round;" id="ezcGraphLine_56"/><path d=" M 196.0000,191.5000 L 644.0000,191.5000" style="fill: none; stroke: #000000; stroke-width: 1; stroke-opacity: 0.00; stroke-linecap: round; stroke-linejoin: round;" id="ezcGraphLine_57"/><path d=" M 196.0000,191.5000 L 199.0000,191.5000" style="fill: none; stroke: #2e3436; stroke-width: 1; stroke-opacity: 1.00; stroke-linecap: round; stroke-linejoin: round;" id="ezcGraphLine_58"/><path d=" M 196.0000,182.5000 L 644.0000,182.5000" style="fill: none; stroke: #000000; stroke-width: 1; stroke-opacity: 0.00; stroke-linecap: round; stroke-linejoin: round;" id="ezcGraphLine_60"/><path d=" M 196.0000,182.5000 L 197.0000,182.5000" style="fill: none; stroke: #2e3436; stroke-width: 1; stroke-opacity: 1.00; stroke-linecap: round; stroke-linejoin: round;" id="ezcGraphLine_61"/><path d=" M 196.0000,173.5000 L 644.0000,173.5000" style="fill: none; stroke: #000000; stroke-width: 1; stroke-opacity: 0.00; stroke-linecap: round; stroke-linejoin: round;" id="ezcGraphLine_62"/><path d=" M 196.0000,173.5000 L 197.0000,173.5000" style="fill: none; stroke: #2e3436; stroke-width: 1; stroke-opacity: 1.00; stroke-linecap: round; stroke-linejoin: round;" id="ezcGraphLine_63"/><path d=" M 196.0000,164.5000 L 644.0000,164.5000" style="fill: none; stroke: #000000; stroke-width: 1; stroke-opacity: 0.00; stroke-linecap: round; stroke-linejoin: round;" id="ezcGraphLine_64"/><path d=" M 196.0000,164.5000 L 197.0000,164.5000" style="fill: none; stroke: #2e3436; stroke-width: 1; stroke-opacity: 1.00; stroke-linecap: round; stroke-linejoin: round;" id="ezcGraphLine_65"/><path d=" M 196.0000,155.5000 L 644.0000,155.5000" style="fill: none; stroke: #000000; stroke-width: 1; stroke-opacity: 0.00; stroke-linecap: round; stroke-linejoin: round;" id="ezcGraphLine_66"/><path d=" M 196.0000,155.5000 L 199.0000,155.5000" style="fill: none; stroke: #2e3436; stroke-width: 1; stroke-opacity: 1.00; stroke-linecap: round; stroke-linejoin: round;" id="ezcGraphLine_67"/><path d=" M 196.0000,146.5000 L 644.0000,146.5000" style="fill: none; stroke: #000000; stroke-width: 1; stroke-opacity: 0.00; stroke-linecap: round; stroke-linejoin: round;" id="ezcGraphLine_69"/><path d=" M 196.0000,146.5000 L 197.0000,146.5000" style="fill: none; stroke: #2e3436; stroke-width: 1; stroke-opacity: 1.00; stroke-linecap: round; stroke-linejoin: round;" id="ezcGraphLine_70"/><path d=" M 196.0000,137.5000 L 644.0000,137.5000" style="fill: none; stroke: #000000; stroke-width: 1; stroke-opacity: 0.00; stroke-linecap: round; stroke-linejoin: round;" id="ezcGraphLine_71"/><path d=" M 196.0000,137.5000 L 197.0000,137.5000" style="fill: none; stroke: #2e3436; stroke-width: 1; stroke-opacity: 1.00; stroke-linecap: round; stroke-linejoin: round;" id="ezcGraphLine_72"/><path d=" M 196.0000,128.5000 L 644.0000,128.5000" style="fill: none; stroke: #000000; stroke-width: 1; stroke-opacity: 0.00; stroke-linecap: round; stroke-linejoin: round;" id="ezcGraphLine_73"/><path d=" M 196.0000,128.5000 L 197.0000,128.5000" style="fill: none; stroke: #2e3436; stroke-width: 1; stroke-opacity: 1.00; stroke-linecap: round; stroke-linejoin: round;" id="ezcGraphLine_74"/><path d=" M 196.0000,119.5000 L 644.0000,119.5000" style="fill: none; stroke: #000000; stroke-width: 1; stroke-opacity: 0.00; stroke-linecap: round; stroke-linejoin: round;" id="ezcGraphLine_75"/><path d=" M 196.0000,119.5000 L 199.0000,119.5000" style="fill: none; stroke: #2e3436; stroke-width: 1; stroke-opacity: 1.00; stroke-linecap: round; stroke-linejoin: round;" id="ezcGraphLine_76"/><path d=" M 196.0000,110.5000 L 644.0000,110.5000" style="fill: none; stroke: #000000; stroke-width: 1; stroke-opacity: 0.00; stroke-linecap: round; stroke-linejoin: round;" id="ezcGraphLine_78"/><path d=" M 196.0000,110.5000 L 197.0000,110.5000" style="fill: none; stroke: #2e3436; stroke-width: 1; stroke-opacity: 1.00; stroke-linecap: round; stroke-linejoin: round;" id="ezcGraphLine_79"/><path d=" M 196.0000,101.5000 L 644.0000,101.5000" style="fill: none; stroke: #000000; stroke-width: 1; stroke-opacity: 0.00; stroke-linecap: round; stroke-linejoin: round;" id="ezcGraphLine_80"/><path d=" M 196.0000,101.5000 L 197.0000,101.5000" style="fill: none; stroke: #2e3436; stroke-width: 1; stroke-opacity: 1.00; stroke-linecap: round; stroke-linejoin: round;" id="ezcGraphLine_81"/><path d=" M 196.0000,92.5000 L 644.0000,92.5000" style="fill: none; stroke: #000000; stroke-width: 1; stroke-opacity: 0.00; stroke-linecap: round; stroke-linejoin: round;" id="ezcGraphLine_82"/><path d=" M 196.0000,92.5000 L 197.0000,92.5000" style="fill: none; stroke: #2e3436; stroke-width: 1; stroke-opacity: 1.00; stroke-linecap: round; stroke-linejoin: round;" id="ezcGraphLine_83"/><path d=" M 196.0000,83.5000 L 644.0000,83.5000" style="fill: none; stroke: #000000; stroke-width: 1; stroke-opacity: 0.00; stroke-linecap: round; stroke-linejoin: round;" id="ezcGraphLine_84"/><path d=" M 196.0000,83.5000 L 199.0000,83.5000" style="fill: none; stroke: #2e3436; stroke-width: 1; stroke-opacity: 1.00; stroke-linecap: round; stroke-linejoin: round;" id="ezcGraphLine_85"/><path d=" M 196.0000,74.5000 L 644.0000,74.5000" style="fill: none; stroke: #000000; stroke-width: 1; stroke-opacity: 0.00; stroke-linecap: round; stroke-linejoin: round;" id="ezcGraphLine_87"/><path d=" M 196.0000,74.5000 L 197.0000,74.5000" style="fill: none; stroke: #2e3436; stroke-width: 1; stroke-opacity: 1.00; stroke-linecap: round; stroke-linejoin: round;" id="ezcGraphLine_88"/><path d=" M 196.0000,65.5000 L 644.0000,65.5000" style="fill: none; stroke: #000000; stroke-width: 1; stroke-opacity: 0.00; stroke-linecap: round; stroke-linejoin: round;" id="ezcGraphLine_89"/><path d=" M 196.0000,65.5000 L 197.0000,65.5000" style="fill: none; stroke: #2e3436; stroke-width: 1; stroke-opacity: 1.00; stroke-linecap: round; stroke-linejoin: round;" id="ezcGraphLine_90"/><path d=" M 196.0000,56.5000 L 644.0000,56.5000" style="fill: none; stroke: #000000; stroke-width: 1; stroke-opacity: 0.00; stroke-linecap: round; stroke-linejoin: round;" id="ezcGraphLine_91"/><path d=" M 196.0000,56.5000 L 197.0000,56.5000" style="fill: none; stroke: #2e3436; stroke-width: 1; stroke-opacity: 1.00; stroke-linecap: round; stroke-linejoin: round;" id="ezcGraphLine_92"/><path d=" M 196.0000,47.5000 L 644.0000,47.5000" style="fill: none; stroke: #000000; stroke-width: 1; stroke-opacity: 0.00; stroke-linecap: round; stroke-linejoin: round;" id="ezcGraphLine_93"/><path d=" M 196.0000,47.5000 L 199.0000,47.5000" style="fill: none; stroke: #2e3436; stroke-width: 1; stroke-opacity: 1.00; stroke-linecap: round; stroke-linejoin: round;" id="ezcGraphLine_94"/><path d=" M 196.0000,160.0024 L 196.0000,160.0024" style="fill: none; stroke: #3465a4; stroke-width: 1; stroke-opacity: 1.00; stroke-linecap: round; stroke-linejoin: round;" id="ezcGraphLine_96"/><path d=" M 196.0000,227.5000 L 196.0000,160.0024 L 228.0000,166.6356 L 228.0000,227.5000 L 196.0000,227.5000 z " style="fill: #3465a4; fill-opacity: 0.18; stroke: none;" id="ezcGraphPolygon_97"/><path d=" M 196.0000,160.0024 L 228.0000,166.6356" style="fill: none; stroke: #3465a4; stroke-width: 1; stroke-opacity: 1.00; stroke-linecap: round; stroke-linejoin: round;" id="ezcGraphLine_98"/><path d=" M 228.0000,227.5000 L 228.0000,166.6356 L 260.0000,181.5498 L 260.0000,227.5000 L 228.0000,227.5000 z " style="fill: #3465a4; fill-opacity: 0.18; stroke: none;" id="ezcGraphPolygon_99"/><path d=" M 228.0000,166.6356 L 260.0000,181.5498" style="fill: none; stroke: #3465a4; stroke-width: 1; stroke-opacity: 1.00; stroke-linecap: round; stroke-linejoin: round;" id="ezcGraphLine_100"/><path d=" M 260.0000,227.5000 L 260.0000,181.5498 L 292.0000,196.0024 L 292.0000,227.5000 L 260.0000,227.5000 z " style="fill: #3465a4; fill-opacity: 0.18; stroke: none;" id="ezcGraphPolygon_101"/><path d=" M 260.0000,181.5498 L 292.0000,196.0024" style="fill: none; stroke: #3465a4; stroke-width: 1; stroke-opacity: 1.00; stroke-linecap: round; stroke-linejoin: round;" id="ezcGraphLine_102"/><path d=" M 292.0000,227.5000 L 292.0000,196.0024 L 324.0000,199.6024 L 324.0000,227.5000 L 292.0000,227.5000 z " style="fill: #3465a4; fill-opacity: 0.18; stroke: none;" id="ezcGraphPolygon_103"/><path d=" M 292.0000,196.0024 L 324.0000,199.6024" style="fill: none; stroke: #3465a4; stroke-width: 1; stroke-opacity: 1.00; stroke-linecap: round; stroke-linejoin: round;" id="ezcGraphLine_104"/><path d=" M 324.0000,227.5000 L 324.0000,199.6024 L 356.0000,201.0039 L 356.0000,227.5000 L 324.0000,227.5000 z " style="fill: #3465a4; fill-opacity: 0.18; stroke: none;" id="ezcGraphPolygon_105"/><path d=" M 324.0000,199.6024 L 356.0000,201.0039" style="fill: none; stroke: #3465a4; stroke-width: 1; stroke-opacity: 1.00; stroke-linecap: round; stroke-linejoin: round;" id="ezcGraphLine_106"/><path d=" M 356.0000,227.5000 L 356.0000,201.0039 L 388.0000,124.0024 L 388.0000,227.5000 L 356.0000,227.5000 z " style="fill: #3465a4; fill-opacity: 0.18; stroke: none;" id="ezcGraphPolygon_107"/><path d=" M 356.0000,201.0039 L 388.0000,124.0024" style="fill: none; stroke: #3465a4; stroke-width: 1; stroke-opacity: 1.00; stroke-linecap: round; stroke-linejoin: round;" id="ezcGraphLine_108"/><path d=" M 388.0000,227.5000 L 388.0000,124.0024 L 420.0000,127.6024 L 420.0000,227.5000 L 388.0000,227.5000 z " style="fill: #3465a4; fill-opacity: 0.18; stroke: none;" id="ezcGraphPolygon_109"/><path d=" M 388.0000,124.0024 L 420.0000,127.6024" style="fill: none; stroke: #3465a4; stroke-width: 1; stroke-opacity: 1.00; stroke-linecap: round; stroke-linejoin: round;" id="ezcGraphLine_110"/><path d=" M 420.0000,227.5000 L 420.0000,127.6024 L 452.0000,127.6024 L 452.0000,227.5000 L 420.0000,227.5000 z " style="fill: #3465a4; fill-opacity: 0.18; stroke: none;" id="ezcGraphPolygon_111"/><path d=" M 420.0000,127.6024 L 452.0000,127.6024" style="fill: none; stroke: #3465a4; stroke-width: 1; stroke-opacity: 1.00; stroke-linecap: round; stroke-linejoin: round;" id="ezcGraphLine_112"/><path d=" M 452.0000,227.5000 L 452.0000,127.6024 L 484.0000,152.7714 L 484.0000,227.5000 L 452.0000,227.5000 z " style="fill: #3465a4; fill-opacity: 0.18; stroke: none;" id="ezcGraphPolygon_113"/><path d=" M 452.0000,127.6024 L 484.0000,152.7714" style="fill: none; stroke: #3465a4; stroke-width: 1; stroke-opacity: 1.00; stroke-linecap: round; stroke-linejoin: round;" id="ezcGraphLine_114"/><path d=" M 484.0000,227.5000 L 484.0000,152.7714 L 516.0000,174.4024 L 516.0000,227.5000 L 484.0000,227.5000 z " style="fill: #3465a4; fill-opacity: 0.18; stroke: none;" id="ezcGraphPolygon_115"/><path d=" M 484.0000,152.7714 L 516.0000,174.4024" style="fill: none; stroke: #3465a4; stroke-width: 1; stroke-opacity: 1.00; stroke-linecap: round; stroke-linejoin: round;" id="ezcGraphLine_116"/><path d=" M 516.0000,227.5000 L 516.0000,174.4024 L 548.0000,109.6023 L 548.0000,227.5000 L 516.0000,227.5000 z " style="fill: #3465a4; fill-opacity: 0.18; stroke: none;" id="ezcGraphPolygon_117"/><path d=" M 516.0000,174.4024 L 548.0000,109.6023" style="fill: none; stroke: #3465a4; stroke-width: 1; stroke-opacity: 1.00; stroke-linecap: round; stroke-linejoin: round;" id="ezcGraphLine_118"/><path d=" M 548.0000,227.5000 L 548.0000,109.6023 L 580.0000,95.1422 L 580.0000,227.5000 L 548.0000,227.5000 z " style="fill: #3465a4; fill-opacity: 0.18; stroke: none;" id="ezcGraphPolygon_119"/><path d=" M 548.0000,109.6023 L 580.0000,95.1422" style="fill: none; stroke: #3465a4; stroke-width: 1; stroke-opacity: 1.00; stroke-linecap: round; stroke-linejoin: round;" id="ezcGraphLine_120"/><path d=" M 580.0000,227.5000 L 580.0000,95.1422 L 612.0000,70.1241 L 612.0000,227.5000 L 580.0000,227.5000 z " style="fill: #3465a4; fill-opacity: 0.18; stroke: none;" id="ezcGraphPolygon_121"/><path d=" M 580.0000,95.1422 L 612.0000,70.1241" style="fill: none; stroke: #3465a4; stroke-width: 1; stroke-opacity: 1.00; stroke-linecap: round; stroke-linejoin: round;" id="ezcGraphLine_122"/><path d=" M 612.0000,227.5000 L 612.0000,70.1241 L 644.0000,145.6310 L 644.0000,227.5000 L 612.0000,227.5000 z " style="fill: #3465a4; fill-opacity: 0.18; stroke: none;" id="ezcGraphPolygon_123"/><path d=" M 612.0000,70.1241 L 644.0000,145.6310" style="fill: none; stroke: #3465a4; stroke-width: 1; stroke-opacity: 1.00; stroke-linecap: round; stroke-linejoin: round;" id="ezcGraphLine_124"/><path d=" M 196.0000,148.7785 L 196.0000,148.7785" style="fill: none; stroke: #4e9a06; stroke-width: 1; stroke-opacity: 1.00; stroke-linecap: round; stroke-linejoin: round;" id="ezcGraphLine_125"/><path d=" M 196.0000,227.5000 L 196.0000,148.7785 L 228.0000,148.7785 L 228.0000,227.5000 L 196.0000,227.5000 z " style="fill: #4e9a06; fill-opacity: 0.18; stroke: none;" id="ezcGraphPolygon_126"/><path d=" M 196.0000,148.7785 L 228.0000,148.7785" style="fill: none; stroke: #4e9a06; stroke-width: 1; stroke-opacity: 1.00; stroke-linecap: round; stroke-linejoin: round;" id="ezcGraphLine_127"/><path d=" M 228.0000,227.5000 L 228.0000,148.7785 L 260.0000,148.7785 L 260.0000,227.5000 L 228.0000,227.5000 z " style="fill: #4e9a06; fill-opacity: 0.18; stroke: none;" id="ezcGraphPolygon_128"/><path d=" M 228.0000,148.7785 L 260.0000,148.7785" style="fill: none; stroke: #4e9a06; stroke-width: 1; stroke-opacity: 1.00; stroke-linecap: round; stroke-linejoin: round;" id="ezcGraphLine_129"/><path d=" M 260.0000,227.5000 L 260.0000,148.7785 L 292.0000,148.7785 L 292.0000,227.5000 L 260.0000,227.5000 z " style="fill: #4e9a06; fill-opacity: 0.18; stroke: none;" id="ezcGraphPolygon_130"/><path d=" M 260.0000,148.7785 L 292.0000,148.7785" style="fill: none; stroke: #4e9a06; stroke-width: 1; stroke-opacity: 1.00; stroke-linecap: round; stroke-linejoin: round;" id="ezcGraphLine_131"/><path d=" M 292.0000,227.5000 L 292.0000,148.7785 L 324.0000,148.7785 L 324.0000,227.5000 L 292.0000,227.5000 z " style="fill: #4e9a06; fill-opacity: 0.18; stroke: none;" id="ezcGraphPolygon_132"/><path d=" M 292.0000,148.7785 L 324.0000,148.7785" style="fill: none; stroke: #4e9a06; stroke-width: 1; stroke-opacity: 1.00; stroke-linecap: round; stroke-linejoin: round;" id="ezcGraphLine_133"/><path d=" M 324.0000,227.5000 L 324.0000,148.7785 L 356.0000,148.7785 L 356.0000,227.5000 L 324.0000,227.5000 z " style="fill: #4e9a06; fill-opacity: 0.18; stroke: none;" id="ezcGraphPolygon_134"/><path d=" M 324.0000,148.7785 L 356.0000,148.7785" style="fill: none; stroke: #4e9a06; stroke-width: 1; stroke-opacity: 1.00; stroke-linecap: round; stroke-linejoin: round;" id="ezcGraphLine_135"/><path d=" M 356.0000,227.5000 L 356.0000,148.7785 L 388.0000,148.7785 L 388.0000,227.5000 L 356.0000,227.5000 z " style="fill: #4e9a06; fill-opacity: 0.18; stroke: none;" id="ezcGraphPolygon_136"/><path d=" M 356.0000,148.7785 L 388.0000,148.7785" style="fill: none; stroke: #4e9a06; stroke-width: 1; stroke-opacity: 1.00; stroke-linecap: round; stroke-linejoin: round;" id="ezcGraphLine_137"/><path d=" M 388.0000,227.5000 L 388.0000,148.7785 L 420.0000,148.7785 L 420.0000,227.5000 L 388.0000,227.5000 z " style="fill: #4e9a06; fill-opacity: 0.18; stroke: none;" id="ezcGraphPolygon_138"/><path d=" M 388.0000,148.7785 L 420.0000,148.7785" style="fill: none; stroke: #4e9a06; stroke-width: 1; stroke-opacity: 1.00; stroke-linecap: round; stroke-linejoin: round;" id="ezcGraphLine_139"/><path d=" M 420.0000,227.5000 L 420.0000,148.7785 L 452.0000,148.7785 L 452.0000,227.5000 L 420.0000,227.5000 z " style="fill: #4e9a06; fill-opacity: 0.18; stroke: none;" id="ezcGraphPolygon_140"/><path d=" M 420.0000,148.7785 L 452.0000,148.7785" style="fill: none; stroke: #4e9a06; stroke-width: 1; stroke-opacity: 1.00; stroke-linecap: round; stroke-linejoin: round;" id="ezcGraphLine_141"/><path d=" M 452.0000,227.5000 L 452.0000,148.7785 L 484.0000,148.7785 L 484.0000,227.5000 L 452.0000,227.5000 z " style="fill: #4e9a06; fill-opacity: 0.18; stroke: none;" id="ezcGraphPolygon_142"/><path d=" M 452.0000,148.7785 L 484.0000,148.7785" style="fill: none; stroke: #4e9a06; stroke-width: 1; stroke-opacity: 1.00; stroke-linecap: round; stroke-linejoin: round;" id="ezcGraphLine_143"/><path d=" M 484.0000,227.5000 L 484.0000,148.7785 L 516.0000,148.7785 L 516.0000,227.5000 L 484.0000,227.5000 z " style="fill: #4e9a06; fill-opacity: 0.18; stroke: none;" id="ezcGraphPolygon_144"/><path d=" M 484.0000,148.7785 L 516.0000,148.7785" style="fill: none; stroke: #4e9a06; stroke-width: 1; stroke-opacity: 1.00; stroke-linecap: round; stroke-linejoin: round;" id="ezcGraphLine_145"/><path d=" M 516.0000,227.5000 L 516.0000,148.7785 L 548.0000,148.7785 L 548.0000,227.5000 L 516.0000,227.5000 z " style="fill: #4e9a06; fill-opacity: 0.18; stroke: none;" id="ezcGraphPolygon_146"/><path d=" M 516.0000,148.7785 L 548.0000,148.7785" style="fill: none; stroke: #4e9a06; stroke-width: 1; stroke-opacity: 1.00; stroke-linecap: round; stroke-linejoin: round;" id="ezcGraphLine_147"/><path d=" M 548.0000,227.5000 L 548.0000,148.7785 L 580.0000,148.7785 L 580.0000,227.5000 L 548.0000,227.5000 z " style="fill: #4e9a06; fill-opacity: 0.18; stroke: none;" id="ezcGraphPolygon_148"/><path d=" M 548.0000,148.7785 L 580.0000,148.7785" style="fill: none; stroke: #4e9a06; stroke-width: 1; stroke-opacity: 1.00; stroke-linecap: round; stroke-linejoin: round;" id="ezcGraphLine_149"/><path d=" M 580.0000,227.5000 L 580.0000,148.7785 L 612.0000,148.7785 L 612.0000,227.5000 L 580.0000,227.5000 z " style="fill: #4e9a06; fill-opacity: 0.18; stroke: none;" id="ezcGraphPolygon_150"/><path d=" M 580.0000,148.7785 L 612.0000,148.7785" style="fill: none; stroke: #4e9a06; stroke-width: 1; stroke-opacity: 1.00; stroke-linecap: round; stroke-linejoin: round;" id="ezcGraphLine_151"/><path d=" M 612.0000,227.5000 L 612.0000,148.7785 L 644.0000,148.7785 L 644.0000,227.5000 L 612.0000,227.5000 z " style="fill: #4e9a06; fill-opacity: 0.18; stroke: none;" id="ezcGraphPolygon_152"/><path d=" M 612.0000,148.7785 L 644.0000,148.7785" style="fill: none; stroke: #4e9a06; stroke-width: 1; stroke-opacity: 1.00; stroke-linecap: round; stroke-linejoin: round;" id="ezcGraphLine_153"/><g id="ezcGraphTextBox_3"><path d=" M 258.0750,25.0000 L 258.0750,0.5000 L 442.4250,0.5000 L 442.4250,25.0000 L 258.0750,25.0000 z " style="fill: #ffffff; fill-opacity: 0.00; stroke: none;" id="ezcGraphPolygon_154"/><text id="ezcGraphTextBox_3_text" x="258.5750" text-length="182.8500px" y="20.5500" style="font-size: 23px; font-family: 'sans-serif'; fill: #2e3436; fill-opacity: 1.00; stroke: none;">Elevation Graph</text></g><g id="ezcGraphTextBox_6"><path d=" M 16.5000,41.5000 L 16.5000,27.0000 L 80.0100,27.0000 L 80.0100,41.5000 L 16.5000,41.5000 z " style="fill: #ffffff; fill-opacity: 0.00; stroke: none;" id="ezcGraphPolygon_155"/><text id="ezcGraphTextBox_6_text" x="17.0000" text-length="62.0100px" y="38.5500" style="font-size: 13px; font-family: 'sans-serif'; fill: #2e3436; fill-opacity: 1.00; stroke: none;">Elevation</text></g><g id="ezcGraphTextBox_8"><path d=" M 16.5000,59.5000 L 16.5000,45.0000 L 135.1300,45.0000 L 135.1300,59.5000 L 16.5000,59.5000 z " style="fill: #ffffff; fill-opacity: 0.00; stroke: none;" id="ezcGraphPolygon_156"/><text id="ezcGraphTextBox_8_text" x="17.0000" text-length="117.1300px" y="56.5500" style="font-size: 13px; font-family: 'sans-serif'; fill: #2e3436; fill-opacity: 1.00; stroke: none;">Average Elevation</text></g><g id="ezcGraphTextBox_15"><path d=" M 255.1600,244.5000 L 255.1600,229.0000 L 265.3400,229.0000 L 265.3400,244.5000 L 255.1600,244.5000 z " style="fill: #ffffff; fill-opacity: 0.00; stroke: none;" id="ezcGraphPolygon_157"/><text id="ezcGraphTextBox_15_text" x="255.6600" text-length="8.6800px" y="241.4000" style="font-size: 14px; font-family: 'sans-serif'; fill: #2e3436; fill-opacity: 1.00; stroke: none;">2</text></g><g id="ezcGraphTextBox_20"><path d=" M 319.1600,244.5000 L 319.1600,229.0000 L 329.3400,229.0000 L 329.3400,244.5000 L 319.1600,244.5000 z " style="fill: #ffffff; fill-opacity: 0.00; stroke: none;" id="ezcGraphPolygon_158"/><text id="ezcGraphTextBox_20_text" x="319.6600" text-length="8.6800px" y="241.4000" style="font-size: 14px; font-family: 'sans-serif'; fill: #2e3436; fill-opacity: 1.00; stroke: none;">4</text></g><g id="ezcGraphTextBox_25"><path d=" M 383.1600,244.5000 L 383.1600,229.0000 L 393.3400,229.0000 L 393.3400,244.5000 L 383.1600,244.5000 z " style="fill: #ffffff; fill-opacity: 0.00; stroke: none;" id="ezcGraphPolygon_159"/><text id="ezcGraphTextBox_25_text" x="383.6600" text-length="8.6800px" y="241.4000" style="font-size: 14px; font-family: 'sans-serif'; fill: #2e3436; fill-opacity: 1.00; stroke: none;">6</text></g><g id="ezcGraphTextBox_30"><path d=" M 447.1600,244.5000 L 447.1600,229.0000 L 457.3400,229.0000 L 457.3400,244.5000 L 447.1600,244.5000 z " style="fill: #ffffff; fill-opacity: 0.00; stroke: none;" id="ezcGraphPolygon_160"/><text id="ezcGraphTextBox_30_text" x="447.6600" text-length="8.6800px" y="241.4000" style="font-size: 14px; font-family: 'sans-serif'; fill: #2e3436; fill-opacity: 1.00; stroke: none;">8</text></g><g id="ezcGraphTextBox_35"><path d=" M 506.8200,244.5000 L 506.8200,229.0000 L 525.6800,229.0000 L 525.6800,244.5000 L 506.8200,244.5000 z " style="fill: #ffffff; fill-opacity: 0.00; stroke: none;" id="ezcGraphPolygon_161"/><text id="ezcGraphTextBox_35_text" x="507.3200" text-length="17.3600px" y="241.4000" style="font-size: 14px; font-family: 'sans-serif'; fill: #2e3436; fill-opacity: 1.00; stroke: none;">10</text></g><g id="ezcGraphTextBox_40"><path d=" M 570.8200,244.5000 L 570.8200,229.0000 L 589.6800,229.0000 L 589.6800,244.5000 L 570.8200,244.5000 z " style="fill: #ffffff; fill-opacity: 0.00; stroke: none;" id="ezcGraphPolygon_162"/><text id="ezcGraphTextBox_40_text" x="571.3200" text-length="17.3600px" y="241.4000" style="font-size: 14px; font-family: 'sans-serif'; fill: #2e3436; fill-opacity: 1.00; stroke: none;">12</text></g><g id="ezcGraphTextBox_45"><path d=" M 634.8200,244.5000 L 634.8200,229.0000 L 653.6800,229.0000 L 653.6800,244.5000 L 634.8200,244.5000 z " style="fill: #ffffff; fill-opacity: 0.00; stroke: none;" id="ezcGraphPolygon_163"/><text id="ezcGraphTextBox_45_text" x="635.3200" text-length="17.3600px" y="241.4000" style="font-size: 14px; font-family: 'sans-serif'; fill: #2e3436; fill-opacity: 1.00; stroke: none;">14</text></g><g id="ezcGraphTextBox_50"><path d=" M 176.1400,226.5000 L 176.1400,211.0000 L 195.0000,211.0000 L 195.0000,226.5000 L 176.1400,226.5000 z " style="fill: #ffffff; fill-opacity: 0.00; stroke: none;" id="ezcGraphPolygon_164"/><text id="ezcGraphTextBox_50_text" x="176.6400" text-length="17.3600px" y="223.4000" style="font-size: 14px; font-family: 'sans-serif'; fill: #2e3436; fill-opacity: 1.00; stroke: none;">10</text></g><g id="ezcGraphTextBox_59"><path d=" M 176.1400,190.5000 L 176.1400,175.0000 L 195.0000,175.0000 L 195.0000,190.5000 L 176.1400,190.5000 z " style="fill: #ffffff; fill-opacity: 0.00; stroke: none;" id="ezcGraphPolygon_165"/><text id="ezcGraphTextBox_59_text" x="176.6400" text-length="17.3600px" y="187.4000" style="font-size: 14px; font-family: 'sans-serif'; fill: #2e3436; fill-opacity: 1.00; stroke: none;">20</text></g><g id="ezcGraphTextBox_68"><path d=" M 176.1400,154.5000 L 176.1400,139.0000 L 195.0000,139.0000 L 195.0000,154.5000 L 176.1400,154.5000 z " style="fill: #ffffff; fill-opacity: 0.00; stroke: none;" id="ezcGraphPolygon_166"/><text id="ezcGraphTextBox_68_text" x="176.6400" text-length="17.3600px" y="151.4000" style="font-size: 14px; font-family: 'sans-serif'; fill: #2e3436; fill-opacity: 1.00; stroke: none;">30</text></g><g id="ezcGraphTextBox_77"><path d=" M 176.1400,118.5000 L 176.1400,103.0000 L 195.0000,103.0000 L 195.0000,118.5000 L 176.1400,118.5000 z " style="fill: #ffffff; fill-opacity: 0.00; stroke: none;" id="ezcGraphPolygon_167"/><text id="ezcGraphTextBox_77_text" x="176.6400" text-length="17.3600px" y="115.4000" style="font-size: 14px; font-family: 'sans-serif'; fill: #2e3436; fill-opacity: 1.00; stroke: none;">40</text></g><g id="ezcGraphTextBox_86"><path d=" M 176.1400,82.5000 L 176.1400,67.0000 L 195.0000,67.0000 L 195.0000,82.5000 L 176.1400,82.5000 z " style="fill: #ffffff; fill-opacity: 0.00; stroke: none;" id="ezcGraphPolygon_168"/><text id="ezcGraphTextBox_86_text" x="176.6400" text-length="17.3600px" y="79.4000" style="font-size: 14px; font-family: 'sans-serif'; fill: #2e3436; fill-opacity: 1.00; stroke: none;">50</text></g><g id="ezcGraphTextBox_95"><path d=" M 176.1400,64.5000 L 176.1400,49.0000 L 195.0000,49.0000 L 195.0000,64.5000 L 176.1400,64.5000 z " style="fill: #ffffff; fill-opacity: 0.00; stroke: none;" id="ezcGraphPolygon_169"/><text id="ezcGraphTextBox_95_text" x="176.6400" text-length="17.3600px" y="61.4000" style="font-size: 14px; font-family: 'sans-serif'; fill: #2e3436; fill-opacity: 1.00; stroke: none;">60</text></g></g></svg>
