<?xml version="1.0"?>
<svg xmlns="http://www.w3.org/2000/svg" width="650" height="350" version="1.0" id="ezcGraph"><defs/><g id="ezcGraphChart" color-rendering="optimizeQuality" shape-rendering="geometricPrecision" text-rendering="optimizeLegibility"><path d=" M 0.0000,350.0000 L 0.0000,0.0000 L 650.0000,0.0000 L 650.0000,350.0000 L 0.0000,350.0000 z " style="fill: #eeeeec; fill-opacity: 1.00; stroke: none;" id="ezcGraphPolygon_1"/><path d=" M 0.0000,35.0000 L 0.0000,0.0000 L 650.0000,0.0000 L 650.0000,35.0000 L 0.0000,35.0000 z " style="fill: #000000; fill-opacity: 0.00; stroke: none;" id="ezcGraphPolygon_2"/><path d=" M 0.0000,350.0000 L 0.0000,35.0000 L 130.0000,35.0000 L 130.0000,350.0000 L 0.0000,350.0000 z " style="fill: #000000; fill-opacity: 0.00; stroke: none;" id="ezcGraphPolygon_4"/><path d=" M 2.0000,51.0000 L 2.0000,37.0000 L 16.0000,37.0000 L 16.0000,51.0000 L 2.0000,51.0000 z " style="fill: #3465a4; fill-opacity: 1.00; stroke: none;" id="ezcGraphPolygon_5"/><path d=" M 2.0000,69.0000 L 2.0000,55.0000 L 16.0000,55.0000 L 16.0000,69.0000 L 2.0000,69.0000 z " style="fill: #4e9a06; fill-opacity: 1.00; stroke: none;" id="ezcGraphPolygon_7"/><path d=" M 130.0000,318.5000 L 650.0000,318.5000" style="fill: none; stroke: #2e3436; stroke-width: 1; stroke-opacity: 1.00; stroke-linecap: round; stroke-linejoin: round;" id="ezcGraphLine_9"/><path d=" M 642.0000,314.5000 L 650.0000,318.5000 L 642.0000,322.5000 L 642.0000,314.5000 z " style="fill: #2e3436; fill-opacity: 1.00; stroke: none;" id="ezcGraphPolygon_10"/><path d=" M 320.6667,66.5000 L 320.6667,318.5000" style="fill: none; stroke: #000000; stroke-width: 1; stroke-opacity: 0.00; stroke-linecap: round; stroke-linejoin: round;" id="ezcGraphLine_12"/><path d=" M 320.6667,315.5000 L 320.6667,321.5000" style="fill: none; stroke: #2e3436; stroke-width: 1; stroke-opacity: 1.00; stroke-linecap: round; stroke-linejoin: round;" id="ezcGraphLine_13"/><path d=" M 459.3333,66.5000 L 459.3333,318.5000" style="fill: none; stroke: #000000; stroke-width: 1; stroke-opacity: 0.00; stroke-linecap: round; stroke-linejoin: round;" id="ezcGraphLine_15"/><path d=" M 459.3333,315.5000 L 459.3333,321.5000" style="fill: none; stroke: #2e3436; stroke-width: 1; stroke-opacity: 1.00; stroke-linecap: round; stroke-linejoin: round;" id="ezcGraphLine_16"/><path d=" M 598.0000,66.5000 L 598.0000,318.5000" style="fill: none; stroke: #000000; stroke-width: 1; stroke-opacity: 0.00; stroke-linecap: round; stroke-linejoin: round;" id="ezcGraphLine_18"/><path d=" M 598.0000,315.5000 L 598.0000,321.5000" style="fill: none; stroke: #2e3436; stroke-width: 1; stroke-opacity: 1.00; stroke-linecap: round; stroke-linejoin: round;" id="ezcGraphLine_19"/><path d=" M 182.0000,350.0000 L 182.0000,35.0000" style="fill: none; stroke: #2e3436; stroke-width: 1; stroke-opacity: 1.00; stroke-linecap: round; stroke-linejoin: round;" id="ezcGraphLine_20"/><path d=" M 178.5000,42.0000 L 182.0000,35.0000 L 185.5000,42.0000 L 178.5000,42.0000 z " style="fill: #2e3436; fill-opacity: 1.00; stroke: none;" id="ezcGraphPolygon_21"/><path d=" M 182.0000,318.5000 L 598.0000,318.5000" style="fill: none; stroke: #000000; stroke-width: 1; stroke-opacity: 0.00; stroke-linecap: round; stroke-linejoin: round;" id="ezcGraphLine_22"/><path d=" M 182.0000,318.5000 L 185.0000,318.5000" style="fill: none; stroke: #2e3436; stroke-width: 1; stroke-opacity: 1.00; stroke-linecap: round; stroke-linejoin: round;" id="ezcGraphLine_23"/><path d=" M 182.0000,305.9000 L 598.0000,305.9000" style="fill: none; stroke: #000000; stroke-width: 1; stroke-opacity: 0.00; stroke-linecap: round; stroke-linejoin: round;" id="ezcGraphLine_25"/><path d=" M 182.0000,305.9000 L 183.0000,305.9000" style="fill: none; stroke: #2e3436; stroke-width: 1; stroke-opacity: 1.00; stroke-linecap: round; stroke-linejoin: round;" id="ezcGraphLine_26"/><path d=" M 182.0000,293.3000 L 598.0000,293.3000" style="fill: none; stroke: #000000; stroke-width: 1; stroke-opacity: 0.00; stroke-linecap: round; stroke-linejoin: round;" id="ezcGraphLine_27"/><path d=" M 182.0000,293.3000 L 183.0000,293.3000" style="fill: none; stroke: #2e3436; stroke-width: 1; stroke-opacity: 1.00; stroke-linecap: round; stroke-linejoin: round;" id="ezcGraphLine_28"/><path d=" M 182.0000,280.7000 L 598.0000,280.7000" style="fill: none; stroke: #000000; stroke-width: 1; stroke-opacity: 0.00; stroke-linecap: round; stroke-linejoin: round;" id="ezcGraphLine_29"/><path d=" M 182.0000,280.7000 L 183.0000,280.7000" style="fill: none; stroke: #2e3436; stroke-width: 1; stroke-opacity: 1.00; stroke-linecap: round; stroke-linejoin: round;" id="ezcGraphLine_30"/><path d=" M 182.0000,268.1000 L 598.0000,268.1000" style="fill: none; stroke: #000000; stroke-width: 1; stroke-opacity: 0.00; stroke-linecap: round; stroke-linejoin: round;" id="ezcGraphLine_31"/><path d=" M 182.0000,268.1000 L 183.0000,268.1000" style="fill: none; stroke: #2e3436; stroke-width: 1; stroke-opacity: 1.00; stroke-linecap: round; stroke-linejoin: round;" id="ezcGraphLine_32"/><path d=" M 182.0000,255.5000 L 598.0000,255.5000" style="fill: none; stroke: #000000; stroke-width: 1; stroke-opacity: 0.00; stroke-linecap: round; stroke-linejoin: round;" id="ezcGraphLine_33"/><path d=" M 182.0000,255.5000 L 185.0000,255.5000" style="fill: none; stroke: #2e3436; stroke-width: 1; stroke-opacity: 1.00; stroke-linecap: round; stroke-linejoin: round;" id="ezcGraphLine_34"/><path d=" M 182.0000,242.9000 L 598.0000,242.9000" style="fill: none; stroke: #000000; stroke-width: 1; stroke-opacity: 0.00; stroke-linecap: round; stroke-linejoin: round;" id="ezcGraphLine_36"/><path d=" M 182.0000,242.9000 L 183.0000,242.9000" style="fill: none; stroke: #2e3436; stroke-width: 1; stroke-opacity: 1.00; stroke-linecap: round; stroke-linejoin: round;" id="ezcGraphLine_37"/><path d=" M 182.0000,230.3000 L 598.0000,230.3000" style="fill: none; stroke: #000000; stroke-width: 1; stroke-opacity: 0.00; stroke-linecap: round; stroke-linejoin: round;" id="ezcGraphLine_38"/><path d=" M 182.0000,230.3000 L 183.0000,230.3000" style="fill: none; stroke: #2e3436; stroke-width: 1; stroke-opacity: 1.00; stroke-linecap: round; stroke-linejoin: round;" id="ezcGraphLine_39"/><path d=" M 182.0000,217.7000 L 598.0000,217.7000" style="fill: none; stroke: #000000; stroke-width: 1; stroke-opacity: 0.00; stroke-linecap: round; stroke-linejoin: round;" id="ezcGraphLine_40"/><path d=" M 182.0000,217.7000 L 183.0000,217.7000" style="fill: none; stroke: #2e3436; stroke-width: 1; stroke-opacity: 1.00; stroke-linecap: round; stroke-linejoin: round;" id="ezcGraphLine_41"/><path d=" M 182.0000,205.1000 L 598.0000,205.1000" style="fill: none; stroke: #000000; stroke-width: 1; stroke-opacity: 0.00; stroke-linecap: round; stroke-linejoin: round;" id="ezcGraphLine_42"/><path d=" M 182.0000,205.1000 L 183.0000,205.1000" style="fill: none; stroke: #2e3436; stroke-width: 1; stroke-opacity: 1.00; stroke-linecap: round; stroke-linejoin: round;" id="ezcGraphLine_43"/><path d=" M 182.0000,192.5000 L 598.0000,192.5000" style="fill: none; stroke: #000000; stroke-width: 1; stroke-opacity: 0.00; stroke-linecap: round; stroke-linejoin: round;" id="ezcGraphLine_44"/><path d=" M 182.0000,192.5000 L 185.0000,192.5000" style="fill: none; stroke: #2e3436; stroke-width: 1; stroke-opacity: 1.00; stroke-linecap: round; stroke-linejoin: round;" id="ezcGraphLine_45"/><path d=" M 182.0000,179.9000 L 598.0000,179.9000" style="fill: none; stroke: #000000; stroke-width: 1; stroke-opacity: 0.00; stroke-linecap: round; stroke-linejoin: round;" id="ezcGraphLine_47"/><path d=" M 182.0000,179.9000 L 183.0000,179.9000" style="fill: none; stroke: #2e3436; stroke-width: 1; stroke-opacity: 1.00; stroke-linecap: round; stroke-linejoin: round;" id="ezcGraphLine_48"/><path d=" M 182.0000,167.3000 L 598.0000,167.3000" style="fill: none; stroke: #000000; stroke-width: 1; stroke-opacity: 0.00; stroke-linecap: round; stroke-linejoin: round;" id="ezcGraphLine_49"/><path d=" M 182.0000,167.3000 L 183.0000,167.3000" style="fill: none; stroke: #2e3436; stroke-width: 1; stroke-opacity: 1.00; stroke-linecap: round; stroke-linejoin: round;" id="ezcGraphLine_50"/><path d=" M 182.0000,154.7000 L 598.0000,154.7000" style="fill: none; stroke: #000000; stroke-width: 1; stroke-opacity: 0.00; stroke-linecap: round; stroke-linejoin: round;" id="ezcGraphLine_51"/><path d=" M 182.0000,154.7000 L 183.0000,154.7000" style="fill: none; stroke: #2e3436; stroke-width: 1; stroke-opacity: 1.00; stroke-linecap: round; stroke-linejoin: round;" id="ezcGraphLine_52"/><path d=" M 182.0000,142.1000 L 598.0000,142.1000" style="fill: none; stroke: #000000; stroke-width: 1; stroke-opacity: 0.00; stroke-linecap: round; stroke-linejoin: round;" id="ezcGraphLine_53"/><path d=" M 182.0000,142.1000 L 183.0000,142.1000" style="fill: none; stroke: #2e3436; stroke-width: 1; stroke-opacity: 1.00; stroke-linecap: round; stroke-linejoin: round;" id="ezcGraphLine_54"/><path d=" M 182.0000,129.5000 L 598.0000,129.5000" style="fill: none; stroke: #000000; stroke-width: 1; stroke-opacity: 0.00; stroke-linecap: round; stroke-linejoin: round;" id="ezcGraphLine_55"/><path d=" M 182.0000,129.5000 L 185.0000,129.5000" style="fill: none; stroke: #2e3436; stroke-width: 1; stroke-opacity: 1.00; stroke-linecap: round; stroke-linejoin: round;" id="ezcGraphLine_56"/><path d=" M 182.0000,116.9000 L 598.0000,116.9000" style="fill: none; stroke: #000000; stroke-width: 1; stroke-opacity: 0.00; stroke-linecap: round; stroke-linejoin: round;" id="ezcGraphLine_58"/><path d=" M 182.0000,116.9000 L 183.0000,116.9000" style="fill: none; stroke: #2e3436; stroke-width: 1; stroke-opacity: 1.00; stroke-linecap: round; stroke-linejoin: round;" id="ezcGraphLine_59"/><path d=" M 182.0000,104.3000 L 598.0000,104.3000" style="fill: none; stroke: #000000; stroke-width: 1; stroke-opacity: 0.00; stroke-linecap: round; stroke-linejoin: round;" id="ezcGraphLine_60"/><path d=" M 182.0000,104.3000 L 183.0000,104.3000" style="fill: none; stroke: #2e3436; stroke-width: 1; stroke-opacity: 1.00; stroke-linecap: round; stroke-linejoin: round;" id="ezcGraphLine_61"/><path d=" M 182.0000,91.7000 L 598.0000,91.7000" style="fill: none; stroke: #000000; stroke-width: 1; stroke-opacity: 0.00; stroke-linecap: round; stroke-linejoin: round;" id="ezcGraphLine_62"/><path d=" M 182.0000,91.7000 L 183.0000,91.7000" style="fill: none; stroke: #2e3436; stroke-width: 1; stroke-opacity: 1.00; stroke-linecap: round; stroke-linejoin: round;" id="ezcGraphLine_63"/><path d=" M 182.0000,79.1000 L 598.0000,79.1000" style="fill: none; stroke: #000000; stroke-width: 1; stroke-opacity: 0.00; stroke-linecap: round; stroke-linejoin: round;" id="ezcGraphLine_64"/><path d=" M 182.0000,79.1000 L 183.0000,79.1000" style="fill: none; stroke: #2e3436; stroke-width: 1; stroke-opacity: 1.00; stroke-linecap: round; stroke-linejoin: round;" id="ezcGraphLine_65"/><path d=" M 182.0000,66.5000 L 598.0000,66.5000" style="fill: none; stroke: #000000; stroke-width: 1; stroke-opacity: 0.00; stroke-linecap: round; stroke-linejoin: round;" id="ezcGraphLine_66"/><path d=" M 182.0000,66.5000 L 185.0000,66.5000" style="fill: none; stroke: #2e3436; stroke-width: 1; stroke-opacity: 1.00; stroke-linecap: round; stroke-linejoin: round;" id="ezcGraphLine_67"/><path d=" M 310.3375,318.5000 L 192.3292,318.5000 L 192.3292,318.5000 L 310.3375,318.5000 L 310.3375,318.5000 z " style="fill: #3465a4; fill-opacity: 1.00; stroke: none;" id="ezcGraphPolygon_69"/><path d=" M 449.0042,318.5000 L 330.9958,318.5000 L 330.9958,318.5000 L 449.0042,318.5000 L 449.0042,318.5000 z " style="fill: #3465a4; fill-opacity: 1.00; stroke: none;" id="ezcGraphPolygon_70"/><path d=" M 587.6708,318.5000 L 469.6625,318.5000 L 469.6625,66.5000 L 587.6708,66.5000 L 587.6708,318.5000 z " style="fill: #3465a4; fill-opacity: 1.00; stroke: none;" id="ezcGraphPolygon_71"/><path d=" M 470.1625,318.0000 L 470.1625,67.0000 L 587.1708,67.0000 L 587.1708,318.0000 L 470.1625,318.0000 z " style="fill: none; stroke: #1a3352; stroke-width: 1; stroke-opacity: 1.00; stroke-linecap: round; stroke-linejoin: round;" id="ezcGraphPolygon_72"/><path d=" M 251.3333,234.5000 L 251.3333,234.5000" style="fill: none; stroke: #4e9a06; stroke-width: 1; stroke-opacity: 1.00; stroke-linecap: round; stroke-linejoin: round;" id="ezcGraphLine_73"/><path d=" M 251.3333,318.5000 L 251.3333,234.5000 L 390.0000,234.5000 L 390.0000,318.5000 L 251.3333,318.5000 z " style="fill: #4e9a06; fill-opacity: 0.18; stroke: none;" id="ezcGraphPolygon_74"/><path d=" M 251.3333,234.5000 L 390.0000,234.5000" style="fill: none; stroke: #4e9a06; stroke-width: 1; stroke-opacity: 1.00; stroke-linecap: round; stroke-linejoin: round;" id="ezcGraphLine_75"/><path d=" M 390.0000,318.5000 L 390.0000,234.5000 L 528.6667,234.5000 L 528.6667,318.5000 L 390.0000,318.5000 z " style="fill: #4e9a06; fill-opacity: 0.18; stroke: none;" id="ezcGraphPolygon_76"/><path d=" M 390.0000,234.5000 L 528.6667,234.5000" style="fill: none; stroke: #4e9a06; stroke-width: 1; stroke-opacity: 1.00; stroke-linecap: round; stroke-linejoin: round;" id="ezcGraphLine_77"/><g id="ezcGraphTextBox_3"><path d=" M 193.3250,35.0000 L 193.3250,0.5000 L 457.1750,0.5000 L 457.1750,35.0000 L 193.3250,35.0000 z " style="fill: #ffffff; fill-opacity: 0.00; stroke: none;" id="ezcGraphPolygon_78"/><text id="ezcGraphTextBox_3_text" x="193.8250" text-length="262.3500px" y="29.0500" style="font-size: 33px; font-family: 'sans-serif'; fill: #2e3436; fill-opacity: 1.00; stroke: none;">Number of Rides</text></g><g id="ezcGraphTextBox_6"><path d=" M 16.5000,52.0000 L 16.5000,36.5000 L 107.0400,36.5000 L 107.0400,52.0000 L 16.5000,52.0000 z " style="fill: #ffffff; fill-opacity: 0.00; stroke: none;" id="ezcGraphPolygon_79"/><text id="ezcGraphTextBox_6_text" x="17.0000" text-length="89.0400px" y="48.9000" style="font-size: 14px; font-family: 'sans-serif'; fill: #2e3436; fill-opacity: 1.00; stroke: none;">Weekly Total</text></g><g id="ezcGraphTextBox_8"><path d=" M 16.5000,70.0000 L 16.5000,54.5000 L 69.9400,54.5000 L 69.9400,70.0000 L 16.5000,70.0000 z " style="fill: #ffffff; fill-opacity: 0.00; stroke: none;" id="ezcGraphPolygon_80"/><text id="ezcGraphTextBox_8_text" x="17.0000" text-length="51.9400px" y="66.9000" style="font-size: 14px; font-family: 'sans-serif'; fill: #2e3436; fill-opacity: 1.00; stroke: none;">Average</text></g><g id="ezcGraphTextBox_11"><path d=" M 195.4483,340.5000 L 195.4483,320.0000 L 307.7183,320.0000 L 307.7183,340.5000 L 195.4483,340.5000 z " style="fill: #ffffff; fill-opacity: 0.00; stroke: none;" id="ezcGraphPolygon_81"/><text id="ezcGraphTextBox_11_text" x="195.9483" text-length="110.7700px" y="336.6500" style="font-size: 19px; font-family: 'sans-serif'; fill: #2e3436; fill-opacity: 1.00; stroke: none;">26-Jan-2009</text></g><g id="ezcGraphTextBox_14"><path d=" M 334.1150,340.5000 L 334.1150,320.0000 L 446.3850,320.0000 L 446.3850,340.5000 L 334.1150,340.5000 z " style="fill: #ffffff; fill-opacity: 0.00; stroke: none;" id="ezcGraphPolygon_82"/><text id="ezcGraphTextBox_14_text" x="334.6150" text-length="110.7700px" y="336.6500" style="font-size: 19px; font-family: 'sans-serif'; fill: #2e3436; fill-opacity: 1.00; stroke: none;">23-Feb-2009</text></g><g id="ezcGraphTextBox_17"><path d=" M 472.7817,340.5000 L 472.7817,320.0000 L 585.0517,320.0000 L 585.0517,340.5000 L 472.7817,340.5000 z " style="fill: #ffffff; fill-opacity: 0.00; stroke: none;" id="ezcGraphPolygon_83"/><text id="ezcGraphTextBox_17_text" x="473.2817" text-length="110.7700px" y="336.6500" style="font-size: 19px; font-family: 'sans-serif'; fill: #2e3436; fill-opacity: 1.00; stroke: none;">30-Mar-2009</text></g><g id="ezcGraphTextBox_24"><path d=" M 167.7200,317.5000 L 167.7200,297.0000 L 181.0000,297.0000 L 181.0000,317.5000 L 167.7200,317.5000 z " style="fill: #ffffff; fill-opacity: 0.00; stroke: none;" id="ezcGraphPolygon_84"/><text id="ezcGraphTextBox_24_text" x="168.2200" text-length="11.7800px" y="313.6500" style="font-size: 19px; font-family: 'sans-serif'; fill: #2e3436; fill-opacity: 1.00; stroke: none;">1</text></g><g id="ezcGraphTextBox_35"><path d=" M 132.3800,254.5000 L 132.3800,234.0000 L 181.0000,234.0000 L 181.0000,254.5000 L 132.3800,254.5000 z " style="fill: #ffffff; fill-opacity: 0.00; stroke: none;" id="ezcGraphPolygon_85"/><text id="ezcGraphTextBox_35_text" x="132.8800" text-length="47.1200px" y="250.6500" style="font-size: 19px; font-family: 'sans-serif'; fill: #2e3436; fill-opacity: 1.00; stroke: none;">1.25</text></g><g id="ezcGraphTextBox_46"><path d=" M 144.1600,191.5000 L 144.1600,171.0000 L 181.0000,171.0000 L 181.0000,191.5000 L 144.1600,191.5000 z " style="fill: #ffffff; fill-opacity: 0.00; stroke: none;" id="ezcGraphPolygon_86"/><text id="ezcGraphTextBox_46_text" x="144.6600" text-length="35.3400px" y="187.6500" style="font-size: 19px; font-family: 'sans-serif'; fill: #2e3436; fill-opacity: 1.00; stroke: none;">1.5</text></g><g id="ezcGraphTextBox_57"><path d=" M 132.3800,128.5000 L 132.3800,108.0000 L 181.0000,108.0000 L 181.0000,128.5000 L 132.3800,128.5000 z " style="fill: #ffffff; fill-opacity: 0.00; stroke: none;" id="ezcGraphPolygon_87"/><text id="ezcGraphTextBox_57_text" x="132.8800" text-length="47.1200px" y="124.6500" style="font-size: 19px; font-family: 'sans-serif'; fill: #2e3436; fill-opacity: 1.00; stroke: none;">1.75</text></g><g id="ezcGraphTextBox_68"><path d=" M 167.7200,88.5000 L 167.7200,68.0000 L 181.0000,68.0000 L 181.0000,88.5000 L 167.7200,88.5000 z " style="fill: #ffffff; fill-opacity: 0.00; stroke: none;" id="ezcGraphPolygon_88"/><text id="ezcGraphTextBox_68_text" x="168.2200" text-length="11.7800px" y="84.6500" style="font-size: 19px; font-family: 'sans-serif'; fill: #2e3436; fill-opacity: 1.00; stroke: none;">2</text></g></g></svg>
