<?xml version="1.0"?>
<svg xmlns="http://www.w3.org/2000/svg" width="650" height="350" version="1.0" id="ezcGraph"><defs/><g id="ezcGraphChart" color-rendering="optimizeQuality" shape-rendering="geometricPrecision" text-rendering="optimizeLegibility"><path d=" M 0.0000,350.0000 L 0.0000,0.0000 L 650.0000,0.0000 L 650.0000,350.0000 L 0.0000,350.0000 z " style="fill: #eeeeec; fill-opacity: 1.00; stroke: none;" id="ezcGraphPolygon_1"/><path d=" M 0.0000,35.0000 L 0.0000,0.0000 L 650.0000,0.0000 L 650.0000,35.0000 L 0.0000,35.0000 z " style="fill: #000000; fill-opacity: 0.00; stroke: none;" id="ezcGraphPolygon_2"/><path d=" M 0.0000,350.0000 L 0.0000,35.0000 L 130.0000,35.0000 L 130.0000,350.0000 L 0.0000,350.0000 z " style="fill: #000000; fill-opacity: 0.00; stroke: none;" id="ezcGraphPolygon_4"/><path d=" M 2.0000,51.0000 L 2.0000,37.0000 L 16.0000,37.0000 L 16.0000,51.0000 L 2.0000,51.0000 z " style="fill: #3465a4; fill-opacity: 1.00; stroke: none;" id="ezcGraphPolygon_5"/><path d=" M 2.0000,69.0000 L 2.0000,55.0000 L 16.0000,55.0000 L 16.0000,69.0000 L 2.0000,69.0000 z " style="fill: #4e9a06; fill-opacity: 1.00; stroke: none;" id="ezcGraphPolygon_7"/><path d=" M 130.0000,318.5000 L 650.0000,318.5000" style="fill: none; stroke: #2e3436; stroke-width: 1; stroke-opacity: 1.00; stroke-linecap: round; stroke-linejoin: round;" id="ezcGraphLine_9"/><path d=" M 642.0000,314.5000 L 650.0000,318.5000 L 642.0000,322.5000 L 642.0000,314.5000 z " style="fill: #2e3436; fill-opacity: 1.00; stroke: none;" id="ezcGraphPolygon_10"/><path d=" M 320.6667,66.5000 L 320.6667,318.5000" style="fill: none; stroke: #000000; stroke-width: 1; stroke-opacity: 0.00; stroke-linecap: round; stroke-linejoin: round;" id="ezcGraphLine_12"/><path d=" M 320.6667,315.5000 L 320.6667,321.5000" style="fill: none; stroke: #2e3436; stroke-width: 1; stroke-opacity: 1.00; stroke-linecap: round; stroke-linejoin: round;" id="ezcGraphLine_13"/><path d=" M 459.3333,66.5000 L 459.3333,318.5000" style="fill: none; stroke: #000000; stroke-width: 1; stroke-opacity: 0.00; stroke-linecap: round; stroke-linejoin: round;" id="ezcGraphLine_15"/><path d=" M 459.3333,315.5000 L 459.3333,321.5000" style="fill: none; stroke: #2e3436; stroke-width: 1; stroke-opacity: 1.00; stroke-linecap: round; stroke-linejoin: round;" id="ezcGraphLine_16"/><path d=" M 598.0000,66.5000 L 598.0000,318.5000" style="fill: none; stroke: #000000; stroke-width: 1; stroke-opacity: 0.00; stroke-linecap: round; stroke-linejoin: round;" id="ezcGraphLine_18"/><path d=" M 598.0000,315.5000 L 598.0000,321.5000" style="fill: none; stroke: #2e3436; stroke-width: 1; stroke-opacity: 1.00; stroke-linecap: round; stroke-linejoin: round;" id="ezcGraphLine_19"/><path d=" M 182.0000,350.0000 L 182.0000,35.0000" style="fill: none; stroke: #2e3436; stroke-width: 1; stroke-opacity: 1.00; stroke-linecap: round; stroke-linejoin: round;" id="ezcGraphLine_20"/><path d=" M 178.5000,42.0000 L 182.0000,35.0000 L 185.5000,42.0000 L 178.5000,42.0000 z " style="fill: #2e3436; fill-opacity: 1.00; stroke: none;" id="ezcGraphPolygon_21"/><path d=" M 182.0000,301.7000 L 598.0000,301.7000" style="fill: none; stroke: #000000; stroke-width: 1; stroke-opacity: 0.00; stroke-linecap: round; stroke-linejoin: round;" id="ezcGraphLine_23"/><path d=" M 182.0000,301.7000 L 183.0000,301.7000" style="fill: none; stroke: #2e3436; stroke-width: 1; stroke-opacity: 1.00; stroke-linecap: round; stroke-linejoin: round;" id="ezcGraphLine_24"/><path d=" M 182.0000,284.9000 L 598.0000,284.9000" style="fill: none; stroke: #000000; stroke-width: 1; stroke-opacity: 0.00; stroke-linecap: round; stroke-linejoin: round;" id="ezcGraphLine_25"/><path d=" M 182.0000,284.9000 L 183.0000,284.9000" style="fill: none; stroke: #2e3436; stroke-width: 1; stroke-opacity: 1.00; stroke-linecap: round; stroke-linejoin: round;" id="ezcGraphLine_26"/><path d=" M 182.0000,268.1000 L 598.0000,268.1000" style="fill: none; stroke: #000000; stroke-width: 1; stroke-opacity: 0.00; stroke-linecap: round; stroke-linejoin: round;" id="ezcGraphLine_27"/><path d=" M 182.0000,268.1000 L 183.0000,268.1000" style="fill: none; stroke: #2e3436; stroke-width: 1; stroke-opacity: 1.00; stroke-linecap: round; stroke-linejoin: round;" id="ezcGraphLine_28"/><path d=" M 182.0000,251.3000 L 598.0000,251.3000" style="fill: none; stroke: #000000; stroke-width: 1; stroke-opacity: 0.00; stroke-linecap: round; stroke-linejoin: round;" id="ezcGraphLine_29"/><path d=" M 182.0000,251.3000 L 183.0000,251.3000" style="fill: none; stroke: #2e3436; stroke-width: 1; stroke-opacity: 1.00; stroke-linecap: round; stroke-linejoin: round;" id="ezcGraphLine_30"/><path d=" M 182.0000,234.5000 L 598.0000,234.5000" style="fill: none; stroke: #000000; stroke-width: 1; stroke-opacity: 0.00; stroke-linecap: round; stroke-linejoin: round;" id="ezcGraphLine_31"/><path d=" M 182.0000,234.5000 L 185.0000,234.5000" style="fill: none; stroke: #2e3436; stroke-width: 1; stroke-opacity: 1.00; stroke-linecap: round; stroke-linejoin: round;" id="ezcGraphLine_32"/><path d=" M 182.0000,217.7000 L 598.0000,217.7000" style="fill: none; stroke: #000000; stroke-width: 1; stroke-opacity: 0.00; stroke-linecap: round; stroke-linejoin: round;" id="ezcGraphLine_34"/><path d=" M 182.0000,217.7000 L 183.0000,217.7000" style="fill: none; stroke: #2e3436; stroke-width: 1; stroke-opacity: 1.00; stroke-linecap: round; stroke-linejoin: round;" id="ezcGraphLine_35"/><path d=" M 182.0000,200.9000 L 598.0000,200.9000" style="fill: none; stroke: #000000; stroke-width: 1; stroke-opacity: 0.00; stroke-linecap: round; stroke-linejoin: round;" id="ezcGraphLine_36"/><path d=" M 182.0000,200.9000 L 183.0000,200.9000" style="fill: none; stroke: #2e3436; stroke-width: 1; stroke-opacity: 1.00; stroke-linecap: round; stroke-linejoin: round;" id="ezcGraphLine_37"/><path d=" M 182.0000,184.1000 L 598.0000,184.1000" style="fill: none; stroke: #000000; stroke-width: 1; stroke-opacity: 0.00; stroke-linecap: round; stroke-linejoin: round;" id="ezcGraphLine_38"/><path d=" M 182.0000,184.1000 L 183.0000,184.1000" style="fill: none; stroke: #2e3436; stroke-width: 1; stroke-opacity: 1.00; stroke-linecap: round; stroke-linejoin: round;" id="ezcGraphLine_39"/><path d=" M 182.0000,167.3000 L 598.0000,167.3000" style="fill: none; stroke: #000000; stroke-width: 1; stroke-opacity: 0.00; stroke-linecap: round; stroke-linejoin: round;" id="ezcGraphLine_40"/><path d=" M 182.0000,167.3000 L 183.0000,167.3000" style="fill: none; stroke: #2e3436; stroke-width: 1; stroke-opacity: 1.00; stroke-linecap: round; stroke-linejoin: round;" id="ezcGraphLine_41"/><path d=" M 182.0000,150.5000 L 598.0000,150.5000" style="fill: none; stroke: #000000; stroke-width: 1; stroke-opacity: 0.00; stroke-linecap: round; stroke-linejoin: round;" id="ezcGraphLine_42"/><path d=" M 182.0000,150.5000 L 185.0000,150.5000" style="fill: none; stroke: #2e3436; stroke-width: 1; stroke-opacity: 1.00; stroke-linecap: round; stroke-linejoin: round;" id="ezcGraphLine_43"/><path d=" M 182.0000,133.7000 L 598.0000,133.7000" style="fill: none; stroke: #000000; stroke-width: 1; stroke-opacity: 0.00; stroke-linecap: round; stroke-linejoin: round;" id="ezcGraphLine_45"/><path d=" M 182.0000,133.7000 L 183.0000,133.7000" style="fill: none; stroke: #2e3436; stroke-width: 1; stroke-opacity: 1.00; stroke-linecap: round; stroke-linejoin: round;" id="ezcGraphLine_46"/><path d=" M 182.0000,116.9000 L 598.0000,116.9000" style="fill: none; stroke: #000000; stroke-width: 1; stroke-opacity: 0.00; stroke-linecap: round; stroke-linejoin: round;" id="ezcGraphLine_47"/><path d=" M 182.0000,116.9000 L 183.0000,116.9000" style="fill: none; stroke: #2e3436; stroke-width: 1; stroke-opacity: 1.00; stroke-linecap: round; stroke-linejoin: round;" id="ezcGraphLine_48"/><path d=" M 182.0000,100.1000 L 598.0000,100.1000" style="fill: none; stroke: #000000; stroke-width: 1; stroke-opacity: 0.00; stroke-linecap: round; stroke-linejoin: round;" id="ezcGraphLine_49"/><path d=" M 182.0000,100.1000 L 183.0000,100.1000" style="fill: none; stroke: #2e3436; stroke-width: 1; stroke-opacity: 1.00; stroke-linecap: round; stroke-linejoin: round;" id="ezcGraphLine_50"/><path d=" M 182.0000,83.3000 L 598.0000,83.3000" style="fill: none; stroke: #000000; stroke-width: 1; stroke-opacity: 0.00; stroke-linecap: round; stroke-linejoin: round;" id="ezcGraphLine_51"/><path d=" M 182.0000,83.3000 L 183.0000,83.3000" style="fill: none; stroke: #2e3436; stroke-width: 1; stroke-opacity: 1.00; stroke-linecap: round; stroke-linejoin: round;" id="ezcGraphLine_52"/><path d=" M 182.0000,66.5000 L 598.0000,66.5000" style="fill: none; stroke: #000000; stroke-width: 1; stroke-opacity: 0.00; stroke-linecap: round; stroke-linejoin: round;" id="ezcGraphLine_53"/><path d=" M 182.0000,66.5000 L 185.0000,66.5000" style="fill: none; stroke: #2e3436; stroke-width: 1; stroke-opacity: 1.00; stroke-linecap: round; stroke-linejoin: round;" id="ezcGraphLine_54"/><path d=" M 310.3375,318.5000 L 192.3292,318.5000 L 192.3292,318.5000 L 310.3375,318.5000 L 310.3375,318.5000 z " style="fill: #3465a4; fill-opacity: 1.00; stroke: none;" id="ezcGraphPolygon_56"/><path d=" M 449.0042,318.5000 L 330.9958,318.5000 L 330.9958,103.4600 L 449.0042,103.4600 L 449.0042,318.5000 z " style="fill: #3465a4; fill-opacity: 1.00; stroke: none;" id="ezcGraphPolygon_57"/><path d=" M 331.4958,318.0000 L 331.4958,103.9600 L 448.5042,103.9600 L 448.5042,318.0000 L 331.4958,318.0000 z " style="fill: none; stroke: #1a3352; stroke-width: 1; stroke-opacity: 1.00; stroke-linecap: round; stroke-linejoin: round;" id="ezcGraphPolygon_58"/><path d=" M 587.6708,318.5000 L 469.6625,318.5000 L 469.6625,318.5000 L 587.6708,318.5000 L 587.6708,318.5000 z " style="fill: #3465a4; fill-opacity: 1.00; stroke: none;" id="ezcGraphPolygon_59"/><path d=" M 251.3333,246.8200 L 251.3333,246.8200" style="fill: none; stroke: #4e9a06; stroke-width: 1; stroke-opacity: 1.00; stroke-linecap: round; stroke-linejoin: round;" id="ezcGraphLine_60"/><path d=" M 251.3333,318.5000 L 251.3333,246.8200 L 390.0000,246.8200 L 390.0000,318.5000 L 251.3333,318.5000 z " style="fill: #4e9a06; fill-opacity: 0.18; stroke: none;" id="ezcGraphPolygon_61"/><path d=" M 251.3333,246.8200 L 390.0000,246.8200" style="fill: none; stroke: #4e9a06; stroke-width: 1; stroke-opacity: 1.00; stroke-linecap: round; stroke-linejoin: round;" id="ezcGraphLine_62"/><path d=" M 390.0000,318.5000 L 390.0000,246.8200 L 528.6667,246.8200 L 528.6667,318.5000 L 390.0000,318.5000 z " style="fill: #4e9a06; fill-opacity: 0.18; stroke: none;" id="ezcGraphPolygon_63"/><path d=" M 390.0000,246.8200 L 528.6667,246.8200" style="fill: none; stroke: #4e9a06; stroke-width: 1; stroke-opacity: 1.00; stroke-linecap: round; stroke-linejoin: round;" id="ezcGraphLine_64"/><g id="ezcGraphTextBox_3"><path d=" M 289.5200,35.0000 L 289.5200,0.5000 L 360.9800,0.5000 L 360.9800,35.0000 L 289.5200,35.0000 z " style="fill: #ffffff; fill-opacity: 0.00; stroke: none;" id="ezcGraphPolygon_65"/><text id="ezcGraphTextBox_3_text" x="290.0200" text-length="69.9600px" y="29.0500" style="font-size: 33px; font-family: 'sans-serif'; fill: #2e3436; fill-opacity: 1.00; stroke: none;">Time</text></g><g id="ezcGraphTextBox_6"><path d=" M 16.5000,52.0000 L 16.5000,36.5000 L 107.0400,36.5000 L 107.0400,52.0000 L 16.5000,52.0000 z " style="fill: #ffffff; fill-opacity: 0.00; stroke: none;" id="ezcGraphPolygon_66"/><text id="ezcGraphTextBox_6_text" x="17.0000" text-length="89.0400px" y="48.9000" style="font-size: 14px; font-family: 'sans-serif'; fill: #2e3436; fill-opacity: 1.00; stroke: none;">Weekly Total</text></g><g id="ezcGraphTextBox_8"><path d=" M 16.5000,70.0000 L 16.5000,54.5000 L 69.9400,54.5000 L 69.9400,70.0000 L 16.5000,70.0000 z " style="fill: #ffffff; fill-opacity: 0.00; stroke: none;" id="ezcGraphPolygon_67"/><text id="ezcGraphTextBox_8_text" x="17.0000" text-length="51.9400px" y="66.9000" style="font-size: 14px; font-family: 'sans-serif'; fill: #2e3436; fill-opacity: 1.00; stroke: none;">Average</text></g><g id="ezcGraphTextBox_11"><path d=" M 183.7883,344.5000 L 183.7883,320.0000 L 319.3783,320.0000 L 319.3783,344.5000 L 183.7883,344.5000 z " style="fill: #ffffff; fill-opacity: 0.00; stroke: none;" id="ezcGraphPolygon_68"/><text id="ezcGraphTextBox_11_text" x="184.2883" text-length="134.0900px" y="340.0500" style="font-size: 23px; font-family: 'sans-serif'; fill: #2e3436; fill-opacity: 1.00; stroke: none;">26-Jan-2009</text></g><g id="ezcGraphTextBox_14"><path d=" M 322.4550,344.5000 L 322.4550,320.0000 L 458.0450,320.0000 L 458.0450,344.5000 L 322.4550,344.5000 z " style="fill: #ffffff; fill-opacity: 0.00; stroke: none;" id="ezcGraphPolygon_69"/><text id="ezcGraphTextBox_14_text" x="322.9550" text-length="134.0900px" y="340.0500" style="font-size: 23px; font-family: 'sans-serif'; fill: #2e3436; fill-opacity: 1.00; stroke: none;">23-Feb-2009</text></g><g id="ezcGraphTextBox_17"><path d=" M 461.1217,344.5000 L 461.1217,320.0000 L 596.7117,320.0000 L 596.7117,344.5000 L 461.1217,344.5000 z " style="fill: #ffffff; fill-opacity: 0.00; stroke: none;" id="ezcGraphPolygon_70"/><text id="ezcGraphTextBox_17_text" x="461.6217" text-length="134.0900px" y="340.0500" style="font-size: 23px; font-family: 'sans-serif'; fill: #2e3436; fill-opacity: 1.00; stroke: none;">30-Mar-2009</text></g><g id="ezcGraphTextBox_22"><path d=" M 165.2400,317.5000 L 165.2400,293.0000 L 181.0000,293.0000 L 181.0000,317.5000 L 165.2400,317.5000 z " style="fill: #ffffff; fill-opacity: 0.00; stroke: none;" id="ezcGraphPolygon_71"/><text id="ezcGraphTextBox_22_text" x="165.7400" text-length="14.2600px" y="313.0500" style="font-size: 23px; font-family: 'sans-serif'; fill: #2e3436; fill-opacity: 1.00; stroke: none;">0</text></g><g id="ezcGraphTextBox_33"><path d=" M 150.9800,233.5000 L 150.9800,209.0000 L 181.0000,209.0000 L 181.0000,233.5000 L 150.9800,233.5000 z " style="fill: #ffffff; fill-opacity: 0.00; stroke: none;" id="ezcGraphPolygon_72"/><text id="ezcGraphTextBox_33_text" x="151.4800" text-length="28.5200px" y="229.0500" style="font-size: 23px; font-family: 'sans-serif'; fill: #2e3436; fill-opacity: 1.00; stroke: none;">25</text></g><g id="ezcGraphTextBox_44"><path d=" M 150.9800,149.5000 L 150.9800,125.0000 L 181.0000,125.0000 L 181.0000,149.5000 L 150.9800,149.5000 z " style="fill: #ffffff; fill-opacity: 0.00; stroke: none;" id="ezcGraphPolygon_73"/><text id="ezcGraphTextBox_44_text" x="151.4800" text-length="28.5200px" y="145.0500" style="font-size: 23px; font-family: 'sans-serif'; fill: #2e3436; fill-opacity: 1.00; stroke: none;">50</text></g><g id="ezcGraphTextBox_55"><path d=" M 150.9800,92.5000 L 150.9800,68.0000 L 181.0000,68.0000 L 181.0000,92.5000 L 150.9800,92.5000 z " style="fill: #ffffff; fill-opacity: 0.00; stroke: none;" id="ezcGraphPolygon_74"/><text id="ezcGraphTextBox_55_text" x="151.4800" text-length="28.5200px" y="88.0500" style="font-size: 23px; font-family: 'sans-serif'; fill: #2e3436; fill-opacity: 1.00; stroke: none;">75</text></g></g></svg>
