<?xml version="1.0"?>
<svg xmlns="http://www.w3.org/2000/svg" width="700" height="550" version="1.0" id="ezcGraph"><defs/><g id="ezcGraphChart" color-rendering="optimizeQuality" shape-rendering="geometricPrecision" text-rendering="optimizeLegibility"><path d=" M 0.0000,550.0000 L 0.0000,0.0000 L 700.0000,0.0000 L 700.0000,550.0000 L 0.0000,550.0000 z " style="fill: #eeeeec; fill-opacity: 1.00; stroke: none;" id="ezcGraphPolygon_1"/><path d=" M 0.0000,55.0000 L 0.0000,0.0000 L 700.0000,0.0000 L 700.0000,55.0000 L 0.0000,55.0000 z " style="fill: #000000; fill-opacity: 0.00; stroke: none;" id="ezcGraphPolygon_2"/><path d=" M 0.0000,550.0000 L 0.0000,55.0000 L 140.0000,55.0000 L 140.0000,550.0000 L 0.0000,550.0000 z " style="fill: #000000; fill-opacity: 0.00; stroke: none;" id="ezcGraphPolygon_4"/><path d=" M 2.0000,71.0000 L 2.0000,57.0000 L 16.0000,57.0000 L 16.0000,71.0000 L 2.0000,71.0000 z " style="fill: #3465a4; fill-opacity: 1.00; stroke: none;" id="ezcGraphPolygon_5"/><path d=" M 2.0000,89.0000 L 2.0000,75.0000 L 16.0000,75.0000 L 16.0000,89.0000 L 2.0000,89.0000 z " style="fill: #4e9a06; fill-opacity: 1.00; stroke: none;" id="ezcGraphPolygon_7"/><path d=" M 2.0000,107.0000 L 2.0000,93.0000 L 16.0000,93.0000 L 16.0000,107.0000 L 2.0000,107.0000 z " style="fill: #cc0000; fill-opacity: 1.00; stroke: none;" id="ezcGraphPolygon_9"/><path d=" M 140.0000,505.4500 L 189.5000,455.9500 L 700.0000,455.9500 L 650.5000,505.4500 L 140.0000,505.4500 z " style="fill: #2e3436; fill-opacity: 0.20; stroke: none;" id="ezcGraphPolygon_11"/><path d=" M 189.5000,455.9500 L 700.0000,455.9500" style="fill: none; stroke: #2e3436; stroke-width: 1; stroke-opacity: 1.00; stroke-linecap: round; stroke-linejoin: round;" id="ezcGraphLine_12"/><path d=" M 692.0000,451.9500 L 700.0000,455.9500 L 692.0000,459.9500 L 692.0000,451.9500 z " style="fill: #2e3436; fill-opacity: 1.00; stroke: none;" id="ezcGraphPolygon_13"/><path d=" M 191.0500,550.0000 L 240.5500,500.5000 L 240.5500,55.0000 L 191.0500,104.5000 L 191.0500,550.0000 z " style="fill: #2e3436; fill-opacity: 0.20; stroke: none;" id="ezcGraphPolygon_14"/><path d=" M 240.5500,500.5000 L 240.5500,55.0000" style="fill: none; stroke: #2e3436; stroke-width: 1; stroke-opacity: 1.00; stroke-linecap: round; stroke-linejoin: round;" id="ezcGraphLine_15"/><path d=" M 236.5500,63.0000 L 240.5500,55.0000 L 244.5500,63.0000 L 236.5500,63.0000 z " style="fill: #2e3436; fill-opacity: 1.00; stroke: none;" id="ezcGraphPolygon_16"/><path d=" M 444.7500,455.9500 L 444.7500,99.5500" style="fill: none; stroke: #000000; stroke-width: 1; stroke-opacity: 0.00; stroke-linecap: round; stroke-linejoin: round;" id="ezcGraphLine_18"/><path d=" M 395.2500,502.7500 L 444.7500,453.2500 L 444.7500,458.6500 L 395.2500,508.1500 L 395.2500,502.7500 z " style="fill: #2e3436; fill-opacity: 0.20; stroke: none;" id="ezcGraphPolygon_19"/><path d=" M 444.2500,454.4571 L 444.2500,458.4429 L 395.7500,506.9429 L 395.7500,502.9571 L 444.2500,454.4571 z " style="fill: none; stroke: #2e3436; stroke-width: 1; stroke-opacity: 1.00; stroke-linecap: round; stroke-linejoin: round;" id="ezcGraphPolygon_20"/><path d=" M 648.9500,455.9500 L 648.9500,99.5500" style="fill: none; stroke: #000000; stroke-width: 1; stroke-opacity: 0.00; stroke-linecap: round; stroke-linejoin: round;" id="ezcGraphLine_22"/><path d=" M 599.4500,502.7500 L 648.9500,453.2500 L 648.9500,458.6500 L 599.4500,508.1500 L 599.4500,502.7500 z " style="fill: #2e3436; fill-opacity: 0.20; stroke: none;" id="ezcGraphPolygon_23"/><path d=" M 648.4500,454.4571 L 648.4500,458.4429 L 599.9500,506.9429 L 599.9500,502.9571 L 648.4500,454.4571 z " style="fill: none; stroke: #2e3436; stroke-width: 1; stroke-opacity: 1.00; stroke-linecap: round; stroke-linejoin: round;" id="ezcGraphPolygon_24"/><path d=" M 648.9500,455.9500 L 240.5500,455.9500" style="fill: none; stroke: #000000; stroke-width: 1; stroke-opacity: 0.00; stroke-linecap: round; stroke-linejoin: round;" id="ezcGraphLine_25"/><path d=" M 191.0500,505.4500 L 240.5500,455.9500 L 243.2848,455.9500 L 193.7848,505.4500 L 191.0500,505.4500 z " style="fill: #2e3436; fill-opacity: 0.20; stroke: none;" id="ezcGraphPolygon_26"/><path d=" M 240.7571,456.4500 L 242.0777,456.4500 L 193.5777,504.9500 L 192.2571,504.9500 L 240.7571,456.4500 z " style="fill: none; stroke: #2e3436; stroke-width: 1; stroke-opacity: 1.00; stroke-linecap: round; stroke-linejoin: round;" id="ezcGraphPolygon_27"/><path d=" M 648.9500,441.6940 L 240.5500,441.6940" style="fill: none; stroke: #000000; stroke-width: 1; stroke-opacity: 0.00; stroke-linecap: round; stroke-linejoin: round;" id="ezcGraphLine_29"/><path d=" M 191.0500,491.1940 L 240.5500,441.6940 L 241.4616,441.6940 L 191.9616,491.1940 L 191.0500,491.1940 z " style="fill: #2e3436; fill-opacity: 0.20; stroke: none;" id="ezcGraphPolygon_30"/><path d=" M 240.7571,442.1940 L 240.2545,442.1940 L 191.7545,490.6940 L 192.2571,490.6940 L 240.7571,442.1940 z " style="fill: none; stroke: #2e3436; stroke-width: 1; stroke-opacity: 1.00; stroke-linecap: round; stroke-linejoin: round;" id="ezcGraphPolygon_31"/><path d=" M 648.9500,427.4380 L 240.5500,427.4380" style="fill: none; stroke: #000000; stroke-width: 1; stroke-opacity: 0.00; stroke-linecap: round; stroke-linejoin: round;" id="ezcGraphLine_32"/><path d=" M 191.0500,476.9380 L 240.5500,427.4380 L 241.4616,427.4380 L 191.9616,476.9380 L 191.0500,476.9380 z " style="fill: #2e3436; fill-opacity: 0.20; stroke: none;" id="ezcGraphPolygon_33"/><path d=" M 240.7571,427.9380 L 240.2545,427.9380 L 191.7545,476.4380 L 192.2571,476.4380 L 240.7571,427.9380 z " style="fill: none; stroke: #2e3436; stroke-width: 1; stroke-opacity: 1.00; stroke-linecap: round; stroke-linejoin: round;" id="ezcGraphPolygon_34"/><path d=" M 648.9500,413.1820 L 240.5500,413.1820" style="fill: none; stroke: #000000; stroke-width: 1; stroke-opacity: 0.00; stroke-linecap: round; stroke-linejoin: round;" id="ezcGraphLine_35"/><path d=" M 191.0500,462.6820 L 240.5500,413.1820 L 241.4616,413.1820 L 191.9616,462.6820 L 191.0500,462.6820 z " style="fill: #2e3436; fill-opacity: 0.20; stroke: none;" id="ezcGraphPolygon_36"/><path d=" M 240.7571,413.6820 L 240.2545,413.6820 L 191.7545,462.1820 L 192.2571,462.1820 L 240.7571,413.6820 z " style="fill: none; stroke: #2e3436; stroke-width: 1; stroke-opacity: 1.00; stroke-linecap: round; stroke-linejoin: round;" id="ezcGraphPolygon_37"/><path d=" M 648.9500,398.9260 L 240.5500,398.9260" style="fill: none; stroke: #000000; stroke-width: 1; stroke-opacity: 0.00; stroke-linecap: round; stroke-linejoin: round;" id="ezcGraphLine_38"/><path d=" M 191.0500,448.4260 L 240.5500,398.9260 L 241.4616,398.9260 L 191.9616,448.4260 L 191.0500,448.4260 z " style="fill: #2e3436; fill-opacity: 0.20; stroke: none;" id="ezcGraphPolygon_39"/><path d=" M 240.7571,399.4260 L 240.2545,399.4260 L 191.7545,447.9260 L 192.2571,447.9260 L 240.7571,399.4260 z " style="fill: none; stroke: #2e3436; stroke-width: 1; stroke-opacity: 1.00; stroke-linecap: round; stroke-linejoin: round;" id="ezcGraphPolygon_40"/><path d=" M 648.9500,384.6700 L 240.5500,384.6700" style="fill: none; stroke: #000000; stroke-width: 1; stroke-opacity: 0.00; stroke-linecap: round; stroke-linejoin: round;" id="ezcGraphLine_41"/><path d=" M 191.0500,434.1700 L 240.5500,384.6700 L 243.2848,384.6700 L 193.7848,434.1700 L 191.0500,434.1700 z " style="fill: #2e3436; fill-opacity: 0.20; stroke: none;" id="ezcGraphPolygon_42"/><path d=" M 240.7571,385.1700 L 242.0777,385.1700 L 193.5777,433.6700 L 192.2571,433.6700 L 240.7571,385.1700 z " style="fill: none; stroke: #2e3436; stroke-width: 1; stroke-opacity: 1.00; stroke-linecap: round; stroke-linejoin: round;" id="ezcGraphPolygon_43"/><path d=" M 648.9500,370.4140 L 240.5500,370.4140" style="fill: none; stroke: #000000; stroke-width: 1; stroke-opacity: 0.00; stroke-linecap: round; stroke-linejoin: round;" id="ezcGraphLine_45"/><path d=" M 191.0500,419.9140 L 240.5500,370.4140 L 241.4616,370.4140 L 191.9616,419.9140 L 191.0500,419.9140 z " style="fill: #2e3436; fill-opacity: 0.20; stroke: none;" id="ezcGraphPolygon_46"/><path d=" M 240.7571,370.9140 L 240.2545,370.9140 L 191.7545,419.4140 L 192.2571,419.4140 L 240.7571,370.9140 z " style="fill: none; stroke: #2e3436; stroke-width: 1; stroke-opacity: 1.00; stroke-linecap: round; stroke-linejoin: round;" id="ezcGraphPolygon_47"/><path d=" M 648.9500,356.1580 L 240.5500,356.1580" style="fill: none; stroke: #000000; stroke-width: 1; stroke-opacity: 0.00; stroke-linecap: round; stroke-linejoin: round;" id="ezcGraphLine_48"/><path d=" M 191.0500,405.6580 L 240.5500,356.1580 L 241.4616,356.1580 L 191.9616,405.6580 L 191.0500,405.6580 z " style="fill: #2e3436; fill-opacity: 0.20; stroke: none;" id="ezcGraphPolygon_49"/><path d=" M 240.7571,356.6580 L 240.2545,356.6580 L 191.7545,405.1580 L 192.2571,405.1580 L 240.7571,356.6580 z " style="fill: none; stroke: #2e3436; stroke-width: 1; stroke-opacity: 1.00; stroke-linecap: round; stroke-linejoin: round;" id="ezcGraphPolygon_50"/><path d=" M 648.9500,341.9020 L 240.5500,341.9020" style="fill: none; stroke: #000000; stroke-width: 1; stroke-opacity: 0.00; stroke-linecap: round; stroke-linejoin: round;" id="ezcGraphLine_51"/><path d=" M 191.0500,391.4020 L 240.5500,341.9020 L 241.4616,341.9020 L 191.9616,391.4020 L 191.0500,391.4020 z " style="fill: #2e3436; fill-opacity: 0.20; stroke: none;" id="ezcGraphPolygon_52"/><path d=" M 240.7571,342.4020 L 240.2545,342.4020 L 191.7545,390.9020 L 192.2571,390.9020 L 240.7571,342.4020 z " style="fill: none; stroke: #2e3436; stroke-width: 1; stroke-opacity: 1.00; stroke-linecap: round; stroke-linejoin: round;" id="ezcGraphPolygon_53"/><path d=" M 648.9500,327.6460 L 240.5500,327.6460" style="fill: none; stroke: #000000; stroke-width: 1; stroke-opacity: 0.00; stroke-linecap: round; stroke-linejoin: round;" id="ezcGraphLine_54"/><path d=" M 191.0500,377.1460 L 240.5500,327.6460 L 241.4616,327.6460 L 191.9616,377.1460 L 191.0500,377.1460 z " style="fill: #2e3436; fill-opacity: 0.20; stroke: none;" id="ezcGraphPolygon_55"/><path d=" M 240.7571,328.1460 L 240.2545,328.1460 L 191.7545,376.6460 L 192.2571,376.6460 L 240.7571,328.1460 z " style="fill: none; stroke: #2e3436; stroke-width: 1; stroke-opacity: 1.00; stroke-linecap: round; stroke-linejoin: round;" id="ezcGraphPolygon_56"/><path d=" M 648.9500,313.3900 L 240.5500,313.3900" style="fill: none; stroke: #000000; stroke-width: 1; stroke-opacity: 0.00; stroke-linecap: round; stroke-linejoin: round;" id="ezcGraphLine_57"/><path d=" M 191.0500,362.8900 L 240.5500,313.3900 L 243.2848,313.3900 L 193.7848,362.8900 L 191.0500,362.8900 z " style="fill: #2e3436; fill-opacity: 0.20; stroke: none;" id="ezcGraphPolygon_58"/><path d=" M 240.7571,313.8900 L 242.0777,313.8900 L 193.5777,362.3900 L 192.2571,362.3900 L 240.7571,313.8900 z " style="fill: none; stroke: #2e3436; stroke-width: 1; stroke-opacity: 1.00; stroke-linecap: round; stroke-linejoin: round;" id="ezcGraphPolygon_59"/><path d=" M 648.9500,299.1340 L 240.5500,299.1340" style="fill: none; stroke: #000000; stroke-width: 1; stroke-opacity: 0.00; stroke-linecap: round; stroke-linejoin: round;" id="ezcGraphLine_61"/><path d=" M 191.0500,348.6340 L 240.5500,299.1340 L 241.4616,299.1340 L 191.9616,348.6340 L 191.0500,348.6340 z " style="fill: #2e3436; fill-opacity: 0.20; stroke: none;" id="ezcGraphPolygon_62"/><path d=" M 240.7571,299.6340 L 240.2545,299.6340 L 191.7545,348.1340 L 192.2571,348.1340 L 240.7571,299.6340 z " style="fill: none; stroke: #2e3436; stroke-width: 1; stroke-opacity: 1.00; stroke-linecap: round; stroke-linejoin: round;" id="ezcGraphPolygon_63"/><path d=" M 648.9500,284.8780 L 240.5500,284.8780" style="fill: none; stroke: #000000; stroke-width: 1; stroke-opacity: 0.00; stroke-linecap: round; stroke-linejoin: round;" id="ezcGraphLine_64"/><path d=" M 191.0500,334.3780 L 240.5500,284.8780 L 241.4616,284.8780 L 191.9616,334.3780 L 191.0500,334.3780 z " style="fill: #2e3436; fill-opacity: 0.20; stroke: none;" id="ezcGraphPolygon_65"/><path d=" M 240.7571,285.3780 L 240.2545,285.3780 L 191.7545,333.8780 L 192.2571,333.8780 L 240.7571,285.3780 z " style="fill: none; stroke: #2e3436; stroke-width: 1; stroke-opacity: 1.00; stroke-linecap: round; stroke-linejoin: round;" id="ezcGraphPolygon_66"/><path d=" M 648.9500,270.6220 L 240.5500,270.6220" style="fill: none; stroke: #000000; stroke-width: 1; stroke-opacity: 0.00; stroke-linecap: round; stroke-linejoin: round;" id="ezcGraphLine_67"/><path d=" M 191.0500,320.1220 L 240.5500,270.6220 L 241.4616,270.6220 L 191.9616,320.1220 L 191.0500,320.1220 z " style="fill: #2e3436; fill-opacity: 0.20; stroke: none;" id="ezcGraphPolygon_68"/><path d=" M 240.7571,271.1220 L 240.2545,271.1220 L 191.7545,319.6220 L 192.2571,319.6220 L 240.7571,271.1220 z " style="fill: none; stroke: #2e3436; stroke-width: 1; stroke-opacity: 1.00; stroke-linecap: round; stroke-linejoin: round;" id="ezcGraphPolygon_69"/><path d=" M 648.9500,256.3660 L 240.5500,256.3660" style="fill: none; stroke: #000000; stroke-width: 1; stroke-opacity: 0.00; stroke-linecap: round; stroke-linejoin: round;" id="ezcGraphLine_70"/><path d=" M 191.0500,305.8660 L 240.5500,256.3660 L 241.4616,256.3660 L 191.9616,305.8660 L 191.0500,305.8660 z " style="fill: #2e3436; fill-opacity: 0.20; stroke: none;" id="ezcGraphPolygon_71"/><path d=" M 240.7571,256.8660 L 240.2545,256.8660 L 191.7545,305.3660 L 192.2571,305.3660 L 240.7571,256.8660 z " style="fill: none; stroke: #2e3436; stroke-width: 1; stroke-opacity: 1.00; stroke-linecap: round; stroke-linejoin: round;" id="ezcGraphPolygon_72"/><path d=" M 648.9500,242.1100 L 240.5500,242.1100" style="fill: none; stroke: #000000; stroke-width: 1; stroke-opacity: 0.00; stroke-linecap: round; stroke-linejoin: round;" id="ezcGraphLine_73"/><path d=" M 191.0500,291.6100 L 240.5500,242.1100 L 243.2848,242.1100 L 193.7848,291.6100 L 191.0500,291.6100 z " style="fill: #2e3436; fill-opacity: 0.20; stroke: none;" id="ezcGraphPolygon_74"/><path d=" M 240.7571,242.6100 L 242.0777,242.6100 L 193.5777,291.1100 L 192.2571,291.1100 L 240.7571,242.6100 z " style="fill: none; stroke: #2e3436; stroke-width: 1; stroke-opacity: 1.00; stroke-linecap: round; stroke-linejoin: round;" id="ezcGraphPolygon_75"/><path d=" M 648.9500,227.8540 L 240.5500,227.8540" style="fill: none; stroke: #000000; stroke-width: 1; stroke-opacity: 0.00; stroke-linecap: round; stroke-linejoin: round;" id="ezcGraphLine_77"/><path d=" M 191.0500,277.3540 L 240.5500,227.8540 L 241.4616,227.8540 L 191.9616,277.3540 L 191.0500,277.3540 z " style="fill: #2e3436; fill-opacity: 0.20; stroke: none;" id="ezcGraphPolygon_78"/><path d=" M 240.7571,228.3540 L 240.2545,228.3540 L 191.7545,276.8540 L 192.2571,276.8540 L 240.7571,228.3540 z " style="fill: none; stroke: #2e3436; stroke-width: 1; stroke-opacity: 1.00; stroke-linecap: round; stroke-linejoin: round;" id="ezcGraphPolygon_79"/><path d=" M 648.9500,213.5980 L 240.5500,213.5980" style="fill: none; stroke: #000000; stroke-width: 1; stroke-opacity: 0.00; stroke-linecap: round; stroke-linejoin: round;" id="ezcGraphLine_80"/><path d=" M 191.0500,263.0980 L 240.5500,213.5980 L 241.4616,213.5980 L 191.9616,263.0980 L 191.0500,263.0980 z " style="fill: #2e3436; fill-opacity: 0.20; stroke: none;" id="ezcGraphPolygon_81"/><path d=" M 240.7571,214.0980 L 240.2545,214.0980 L 191.7545,262.5980 L 192.2571,262.5980 L 240.7571,214.0980 z " style="fill: none; stroke: #2e3436; stroke-width: 1; stroke-opacity: 1.00; stroke-linecap: round; stroke-linejoin: round;" id="ezcGraphPolygon_82"/><path d=" M 648.9500,199.3420 L 240.5500,199.3420" style="fill: none; stroke: #000000; stroke-width: 1; stroke-opacity: 0.00; stroke-linecap: round; stroke-linejoin: round;" id="ezcGraphLine_83"/><path d=" M 191.0500,248.8420 L 240.5500,199.3420 L 241.4616,199.3420 L 191.9616,248.8420 L 191.0500,248.8420 z " style="fill: #2e3436; fill-opacity: 0.20; stroke: none;" id="ezcGraphPolygon_84"/><path d=" M 240.7571,199.8420 L 240.2545,199.8420 L 191.7545,248.3420 L 192.2571,248.3420 L 240.7571,199.8420 z " style="fill: none; stroke: #2e3436; stroke-width: 1; stroke-opacity: 1.00; stroke-linecap: round; stroke-linejoin: round;" id="ezcGraphPolygon_85"/><path d=" M 648.9500,185.0860 L 240.5500,185.0860" style="fill: none; stroke: #000000; stroke-width: 1; stroke-opacity: 0.00; stroke-linecap: round; stroke-linejoin: round;" id="ezcGraphLine_86"/><path d=" M 191.0500,234.5860 L 240.5500,185.0860 L 241.4616,185.0860 L 191.9616,234.5860 L 191.0500,234.5860 z " style="fill: #2e3436; fill-opacity: 0.20; stroke: none;" id="ezcGraphPolygon_87"/><path d=" M 240.7571,185.5860 L 240.2545,185.5860 L 191.7545,234.0860 L 192.2571,234.0860 L 240.7571,185.5860 z " style="fill: none; stroke: #2e3436; stroke-width: 1; stroke-opacity: 1.00; stroke-linecap: round; stroke-linejoin: round;" id="ezcGraphPolygon_88"/><path d=" M 648.9500,170.8300 L 240.5500,170.8300" style="fill: none; stroke: #000000; stroke-width: 1; stroke-opacity: 0.00; stroke-linecap: round; stroke-linejoin: round;" id="ezcGraphLine_89"/><path d=" M 191.0500,220.3300 L 240.5500,170.8300 L 243.2848,170.8300 L 193.7848,220.3300 L 191.0500,220.3300 z " style="fill: #2e3436; fill-opacity: 0.20; stroke: none;" id="ezcGraphPolygon_90"/><path d=" M 240.7571,171.3300 L 242.0777,171.3300 L 193.5777,219.8300 L 192.2571,219.8300 L 240.7571,171.3300 z " style="fill: none; stroke: #2e3436; stroke-width: 1; stroke-opacity: 1.00; stroke-linecap: round; stroke-linejoin: round;" id="ezcGraphPolygon_91"/><path d=" M 648.9500,156.5740 L 240.5500,156.5740" style="fill: none; stroke: #000000; stroke-width: 1; stroke-opacity: 0.00; stroke-linecap: round; stroke-linejoin: round;" id="ezcGraphLine_93"/><path d=" M 191.0500,206.0740 L 240.5500,156.5740 L 241.4616,156.5740 L 191.9616,206.0740 L 191.0500,206.0740 z " style="fill: #2e3436; fill-opacity: 0.20; stroke: none;" id="ezcGraphPolygon_94"/><path d=" M 240.7571,157.0740 L 240.2545,157.0740 L 191.7545,205.5740 L 192.2571,205.5740 L 240.7571,157.0740 z " style="fill: none; stroke: #2e3436; stroke-width: 1; stroke-opacity: 1.00; stroke-linecap: round; stroke-linejoin: round;" id="ezcGraphPolygon_95"/><path d=" M 648.9500,142.3180 L 240.5500,142.3180" style="fill: none; stroke: #000000; stroke-width: 1; stroke-opacity: 0.00; stroke-linecap: round; stroke-linejoin: round;" id="ezcGraphLine_96"/><path d=" M 191.0500,191.8180 L 240.5500,142.3180 L 241.4616,142.3180 L 191.9616,191.8180 L 191.0500,191.8180 z " style="fill: #2e3436; fill-opacity: 0.20; stroke: none;" id="ezcGraphPolygon_97"/><path d=" M 240.7571,142.8180 L 240.2545,142.8180 L 191.7545,191.3180 L 192.2571,191.3180 L 240.7571,142.8180 z " style="fill: none; stroke: #2e3436; stroke-width: 1; stroke-opacity: 1.00; stroke-linecap: round; stroke-linejoin: round;" id="ezcGraphPolygon_98"/><path d=" M 648.9500,128.0620 L 240.5500,128.0620" style="fill: none; stroke: #000000; stroke-width: 1; stroke-opacity: 0.00; stroke-linecap: round; stroke-linejoin: round;" id="ezcGraphLine_99"/><path d=" M 191.0500,177.5620 L 240.5500,128.0620 L 241.4616,128.0620 L 191.9616,177.5620 L 191.0500,177.5620 z " style="fill: #2e3436; fill-opacity: 0.20; stroke: none;" id="ezcGraphPolygon_100"/><path d=" M 240.7571,128.5620 L 240.2545,128.5620 L 191.7545,177.0620 L 192.2571,177.0620 L 240.7571,128.5620 z " style="fill: none; stroke: #2e3436; stroke-width: 1; stroke-opacity: 1.00; stroke-linecap: round; stroke-linejoin: round;" id="ezcGraphPolygon_101"/><path d=" M 648.9500,113.8060 L 240.5500,113.8060" style="fill: none; stroke: #000000; stroke-width: 1; stroke-opacity: 0.00; stroke-linecap: round; stroke-linejoin: round;" id="ezcGraphLine_102"/><path d=" M 191.0500,163.3060 L 240.5500,113.8060 L 241.4616,113.8060 L 191.9616,163.3060 L 191.0500,163.3060 z " style="fill: #2e3436; fill-opacity: 0.20; stroke: none;" id="ezcGraphPolygon_103"/><path d=" M 240.7571,114.3060 L 240.2545,114.3060 L 191.7545,162.8060 L 192.2571,162.8060 L 240.7571,114.3060 z " style="fill: none; stroke: #2e3436; stroke-width: 1; stroke-opacity: 1.00; stroke-linecap: round; stroke-linejoin: round;" id="ezcGraphPolygon_104"/><path d=" M 648.9500,99.5500 L 240.5500,99.5500" style="fill: none; stroke: #000000; stroke-width: 1; stroke-opacity: 0.00; stroke-linecap: round; stroke-linejoin: round;" id="ezcGraphLine_105"/><path d=" M 191.0500,149.0500 L 240.5500,99.5500 L 243.2848,99.5500 L 193.7848,149.0500 L 191.0500,149.0500 z " style="fill: #2e3436; fill-opacity: 0.20; stroke: none;" id="ezcGraphPolygon_106"/><path d=" M 240.7571,100.0500 L 242.0777,100.0500 L 193.5777,148.5500 L 192.2571,148.5500 L 240.7571,100.0500 z " style="fill: none; stroke: #2e3436; stroke-width: 1; stroke-opacity: 1.00; stroke-linecap: round; stroke-linejoin: round;" id="ezcGraphPolygon_107"/><path d=" M 250.8181,257.0392 L 211.2181,296.6392 L 262.3251,296.6392 L 301.9251,257.0392 L 250.8181,257.0392 z " style="fill: #1f3d62; fill-opacity: 1.00; stroke: none;" id="ezcGraphPolygon_109"/><path d=" M 262.3251,500.5000 L 211.2181,500.5000 L 211.2181,296.6392 L 262.3251,296.6392 L 262.3251,500.5000 z " style="fill: #3465a4; fill-opacity: 1.00; stroke: none;" id="ezcGraphPolygon_110"/><path d=" M 301.9251,257.0392 L 262.3251,296.6392 L 262.3251,500.5000 L 301.9251,460.9000 L 301.9251,257.0392 z " style="fill: #2a5183; fill-opacity: 1.00; stroke: none;" id="ezcGraphPolygon_111"/><path d=" M 312.1465,456.6232 L 272.5465,496.2232 L 323.6535,496.2232 L 363.2535,456.6232 L 312.1465,456.6232 z " style="fill: #2f5c04; fill-opacity: 1.00; stroke: none;" id="ezcGraphPolygon_112"/><path d=" M 323.6535,500.5000 L 272.5465,500.5000 L 272.5465,496.2232 L 323.6535,496.2232 L 323.6535,500.5000 z " style="fill: #4e9a06; fill-opacity: 1.00; stroke: none;" id="ezcGraphPolygon_113"/><path d=" M 363.2535,456.6232 L 323.6535,496.2232 L 323.6535,500.5000 L 363.2535,460.9000 L 363.2535,456.6232 z " style="fill: #3e7b05; fill-opacity: 1.00; stroke: none;" id="ezcGraphPolygon_114"/><path d=" M 373.4749,262.7416 L 333.8749,302.3416 L 384.9819,302.3416 L 424.5819,262.7416 L 373.4749,262.7416 z " style="fill: #7a0000; fill-opacity: 1.00; stroke: none;" id="ezcGraphPolygon_115"/><path d=" M 384.9819,500.5000 L 333.8749,500.5000 L 333.8749,302.3416 L 384.9819,302.3416 L 384.9819,500.5000 z " style="fill: #cc0000; fill-opacity: 1.00; stroke: none;" id="ezcGraphPolygon_116"/><path d=" M 424.5819,262.7416 L 384.9819,302.3416 L 384.9819,500.5000 L 424.5819,460.9000 L 424.5819,262.7416 z " style="fill: #a30000; fill-opacity: 1.00; stroke: none;" id="ezcGraphPolygon_117"/><path d=" M 455.0181,247.0600 L 415.4181,286.6600 L 466.5251,286.6600 L 506.1251,247.0600 L 455.0181,247.0600 z " style="fill: #1f3d62; fill-opacity: 1.00; stroke: none;" id="ezcGraphPolygon_118"/><path d=" M 466.5251,500.5000 L 415.4181,500.5000 L 415.4181,286.6600 L 466.5251,286.6600 L 466.5251,500.5000 z " style="fill: #3465a4; fill-opacity: 1.00; stroke: none;" id="ezcGraphPolygon_119"/><path d=" M 506.1251,247.0600 L 466.5251,286.6600 L 466.5251,500.5000 L 506.1251,460.9000 L 506.1251,247.0600 z " style="fill: #2a5183; fill-opacity: 1.00; stroke: none;" id="ezcGraphPolygon_120"/><path d=" M 516.3465,161.5240 L 476.7465,201.1240 L 527.8535,201.1240 L 567.4535,161.5240 L 516.3465,161.5240 z " style="fill: #2f5c04; fill-opacity: 1.00; stroke: none;" id="ezcGraphPolygon_121"/><path d=" M 527.8535,500.5000 L 476.7465,500.5000 L 476.7465,201.1240 L 527.8535,201.1240 L 527.8535,500.5000 z " style="fill: #4e9a06; fill-opacity: 1.00; stroke: none;" id="ezcGraphPolygon_122"/><path d=" M 567.4535,161.5240 L 527.8535,201.1240 L 527.8535,500.5000 L 567.4535,460.9000 L 567.4535,161.5240 z " style="fill: #3e7b05; fill-opacity: 1.00; stroke: none;" id="ezcGraphPolygon_123"/><path d=" M 577.6749,389.6200 L 538.0749,429.2200 L 589.1819,429.2200 L 628.7819,389.6200 L 577.6749,389.6200 z " style="fill: #7a0000; fill-opacity: 1.00; stroke: none;" id="ezcGraphPolygon_124"/><path d=" M 589.1819,500.5000 L 538.0749,500.5000 L 538.0749,429.2200 L 589.1819,429.2200 L 589.1819,500.5000 z " style="fill: #cc0000; fill-opacity: 1.00; stroke: none;" id="ezcGraphPolygon_125"/><path d=" M 628.7819,389.6200 L 589.1819,429.2200 L 589.1819,500.5000 L 628.7819,460.9000 L 628.7819,389.6200 z " style="fill: #a30000; fill-opacity: 1.00; stroke: none;" id="ezcGraphPolygon_126"/><path d=" M 700.0000,455.9500 L 650.5000,505.4500" style="fill: none; stroke: #2e3436; stroke-width: 1; stroke-opacity: 1.00; stroke-linecap: round; stroke-linejoin: round;" id="ezcGraphLine_127"/><path d=" M 650.5000,505.4500 L 140.0000,505.4500" style="fill: none; stroke: #2e3436; stroke-width: 1; stroke-opacity: 1.00; stroke-linecap: round; stroke-linejoin: round;" id="ezcGraphLine_128"/><path d=" M 140.0000,505.4500 L 189.5000,455.9500" style="fill: none; stroke: #2e3436; stroke-width: 1; stroke-opacity: 1.00; stroke-linecap: round; stroke-linejoin: round;" id="ezcGraphLine_129"/><path d=" M 240.5500,55.0000 L 191.0500,104.5000" style="fill: none; stroke: #2e3436; stroke-width: 1; stroke-opacity: 1.00; stroke-linecap: round; stroke-linejoin: round;" id="ezcGraphLine_130"/><path d=" M 191.0500,104.5000 L 191.0500,550.0000" style="fill: none; stroke: #2e3436; stroke-width: 1; stroke-opacity: 1.00; stroke-linecap: round; stroke-linejoin: round;" id="ezcGraphLine_131"/><path d=" M 191.0500,550.0000 L 240.5500,500.5000" style="fill: none; stroke: #2e3436; stroke-width: 1; stroke-opacity: 1.00; stroke-linecap: round; stroke-linejoin: round;" id="ezcGraphLine_132"/><g id="ezcGraphTextBox_3"><path d=" M 96.6900,55.0000 L 96.6900,0.5000 L 603.8100,0.5000 L 603.8100,55.0000 L 96.6900,55.0000 z " style="fill: #ffffff; fill-opacity: 0.00; stroke: none;" id="ezcGraphPolygon_133"/><text id="ezcGraphTextBox_3_text" x="97.1900" text-length="505.6200px" y="46.0500" style="font-size: 53px; font-family: 'sans-serif'; fill: #2e3436; fill-opacity: 1.00; stroke: none;">Wikipedia articles</text></g><g id="ezcGraphTextBox_6"><path d=" M 16.5000,72.0000 L 16.5000,56.5000 L 69.9400,56.5000 L 69.9400,72.0000 L 16.5000,72.0000 z " style="fill: #ffffff; fill-opacity: 0.00; stroke: none;" id="ezcGraphPolygon_134"/><text id="ezcGraphTextBox_6_text" x="17.0000" text-length="51.9400px" y="68.9000" style="font-size: 14px; font-family: 'sans-serif'; fill: #2e3436; fill-opacity: 1.00; stroke: none;">English</text></g><g id="ezcGraphTextBox_8"><path d=" M 16.5000,90.0000 L 16.5000,74.5000 L 62.5200,74.5000 L 62.5200,90.0000 L 16.5000,90.0000 z " style="fill: #ffffff; fill-opacity: 0.00; stroke: none;" id="ezcGraphPolygon_135"/><text id="ezcGraphTextBox_8_text" x="17.0000" text-length="44.5200px" y="86.9000" style="font-size: 14px; font-family: 'sans-serif'; fill: #2e3436; fill-opacity: 1.00; stroke: none;">GERMAN</text></g><g id="ezcGraphTextBox_10"><path d=" M 16.5000,108.0000 L 16.5000,92.5000 L 55.1000,92.5000 L 55.1000,108.0000 L 16.5000,108.0000 z " style="fill: #ffffff; fill-opacity: 0.00; stroke: none;" id="ezcGraphPolygon_136"/><text id="ezcGraphTextBox_10_text" x="17.0000" text-length="37.1000px" y="104.9000" style="font-size: 14px; font-family: 'sans-serif'; fill: #2e3436; fill-opacity: 1.00; stroke: none;">SWiss</text></g><g id="ezcGraphTextBox_17"><path d=" M 252.3700,527.2500 L 252.3700,506.7500 L 334.4300,506.7500 L 334.4300,527.2500 L 252.3700,527.2500 z " style="fill: #ffffff; fill-opacity: 0.00; stroke: none;" id="ezcGraphPolygon_137"/><text id="ezcGraphTextBox_17_text" x="252.8700" text-length="80.5600px" y="523.4000" style="font-size: 19px; font-family: 'sans-serif'; fill: #2e3436; fill-opacity: 1.00; stroke: none;">Jan 2006</text></g><g id="ezcGraphTextBox_21"><path d=" M 456.5700,527.2500 L 456.5700,506.7500 L 538.6300,506.7500 L 538.6300,527.2500 L 456.5700,527.2500 z " style="fill: #ffffff; fill-opacity: 0.00; stroke: none;" id="ezcGraphPolygon_138"/><text id="ezcGraphTextBox_21_text" x="457.0700" text-length="80.5600px" y="523.4000" style="font-size: 19px; font-family: 'sans-serif'; fill: #2e3436; fill-opacity: 1.00; stroke: none;">Feb 2006</text></g><g id="ezcGraphTextBox_28"><path d=" M 153.3868,504.6500 L 153.3868,484.1500 L 190.2268,484.1500 L 190.2268,504.6500 L 153.3868,504.6500 z " style="fill: #ffffff; fill-opacity: 0.00; stroke: none;" id="ezcGraphPolygon_139"/><text id="ezcGraphTextBox_28_text" x="153.8868" text-length="35.3400px" y="500.8000" style="font-size: 19px; font-family: 'sans-serif'; fill: #2e3436; fill-opacity: 1.00; stroke: none;">250</text></g><g id="ezcGraphTextBox_44"><path d=" M 153.3868,433.3700 L 153.3868,412.8700 L 190.2268,412.8700 L 190.2268,433.3700 L 153.3868,433.3700 z " style="fill: #ffffff; fill-opacity: 0.00; stroke: none;" id="ezcGraphPolygon_140"/><text id="ezcGraphTextBox_44_text" x="153.8868" text-length="35.3400px" y="429.5200" style="font-size: 19px; font-family: 'sans-serif'; fill: #2e3436; fill-opacity: 1.00; stroke: none;">500</text></g><g id="ezcGraphTextBox_60"><path d=" M 153.3868,362.0900 L 153.3868,341.5900 L 190.2268,341.5900 L 190.2268,362.0900 L 153.3868,362.0900 z " style="fill: #ffffff; fill-opacity: 0.00; stroke: none;" id="ezcGraphPolygon_141"/><text id="ezcGraphTextBox_60_text" x="153.8868" text-length="35.3400px" y="358.2400" style="font-size: 19px; font-family: 'sans-serif'; fill: #2e3436; fill-opacity: 1.00; stroke: none;">750</text></g><g id="ezcGraphTextBox_76"><path d=" M 141.6068,290.8100 L 141.6068,270.3100 L 190.2268,270.3100 L 190.2268,290.8100 L 141.6068,290.8100 z " style="fill: #ffffff; fill-opacity: 0.00; stroke: none;" id="ezcGraphPolygon_142"/><text id="ezcGraphTextBox_76_text" x="142.1068" text-length="47.1200px" y="286.9600" style="font-size: 19px; font-family: 'sans-serif'; fill: #2e3436; fill-opacity: 1.00; stroke: none;">1000</text></g><g id="ezcGraphTextBox_92"><path d=" M 141.6068,219.5300 L 141.6068,199.0300 L 190.2268,199.0300 L 190.2268,219.5300 L 141.6068,219.5300 z " style="fill: #ffffff; fill-opacity: 0.00; stroke: none;" id="ezcGraphPolygon_143"/><text id="ezcGraphTextBox_92_text" x="142.1068" text-length="47.1200px" y="215.6800" style="font-size: 19px; font-family: 'sans-serif'; fill: #2e3436; fill-opacity: 1.00; stroke: none;">1250</text></g><g id="ezcGraphTextBox_108"><path d=" M 141.6068,170.8500 L 141.6068,150.3500 L 190.2268,150.3500 L 190.2268,170.8500 L 141.6068,170.8500 z " style="fill: #ffffff; fill-opacity: 0.00; stroke: none;" id="ezcGraphPolygon_144"/><text id="ezcGraphTextBox_108_text" x="142.1068" text-length="47.1200px" y="167.0000" style="font-size: 19px; font-family: 'sans-serif'; fill: #2e3436; fill-opacity: 1.00; stroke: none;">1500</text></g></g></svg>
